SplineFontDB: 3.2
FontName: YanHuoSTD
FullName: YanHuo STD
FamilyName: YanHuo STD
Weight: Regular
Copyright: Copyright (c) 2025, NANJING UNIVERSITY MINECRAFT ORGANIZATION, OwlinMorninSky.
UComments: "2025-2-24: Created with FontForge (http://fontforge.org)"
Version: 001.000
ItalicAngle: 0
UnderlinePosition: -175
UnderlineWidth: 87
Ascent: 1400
Descent: 350
InvalidEm: 0
LayerCount: 2
Layer: 0 0 "Back" 1
Layer: 1 0 "Fore" 0
XUID: [1021 633 -1104432301 30171]
FSType: 0
OS2Version: 0
OS2_WeightWidthSlopeOnly: 0
OS2_UseTypoMetrics: 1
CreationTime: 1740408898
ModificationTime: 1740454028
PfmFamily: 17
TTFWeight: 400
TTFWidth: 5
LineGap: 157
VLineGap: 0
OS2TypoAscent: 0
OS2TypoAOffset: 1
OS2TypoDescent: 0
OS2TypoDOffset: 1
OS2TypoLinegap: 157
OS2WinAscent: 0
OS2WinAOffset: 1
OS2WinDescent: 0
OS2WinDOffset: 1
HheadAscent: 0
HheadAOffset: 1
HheadDescent: 0
HheadDOffset: 1
OS2Vendor: 'PfEd'
MarkAttachClasses: 1
DEI: 91125
LangName: 1033
Encoding: UnicodeFull
UnicodeInterp: none
NameList: AGL For New Fonts
DisplaySize: -48
AntiAlias: 1
FitToEm: 0
WinInfo: 0 16 13
OnlyBitmaps: 1
BeginPrivate: 0
EndPrivate
BeginChars: 1114112 1601

StartChar: zero
Encoding: 48 48 0
Width: 1000
Flags: W
LayerCount: 2
Fore
SplineSet
0 1150 m 1
 0 1400 l 1
 750 1400 l 1
 750 1150 l 1
 0 1150 l 1
0 -350 m 1
 0 -100 l 1
 750 -100 l 1
 750 -350 l 1
 0 -350 l 1
EndSplineSet
EndChar

StartChar: one
Encoding: 49 49 1
Width: 1000
Flags: W
LayerCount: 2
Fore
SplineSet
0 1150 m 1
 0 1400 l 1
 750 1400 l 1
 750 1150 l 1
 0 1150 l 1
0 650 m 1
 0 900 l 1
 250 900 l 1
 250 650 l 1
 0 650 l 1
0 -350 m 1
 0 -100 l 1
 750 -100 l 1
 750 -350 l 1
 0 -350 l 1
EndSplineSet
EndChar

StartChar: two
Encoding: 50 50 2
Width: 1000
Flags: W
LayerCount: 2
Fore
SplineSet
0 1150 m 1
 0 1400 l 1
 750 1400 l 1
 750 1150 l 1
 0 1150 l 1
0 400 m 1
 0 900 l 1
 250 900 l 1
 250 400 l 1
 0 400 l 1
0 -350 m 1
 0 -100 l 1
 750 -100 l 1
 750 -350 l 1
 0 -350 l 1
EndSplineSet
EndChar

StartChar: three
Encoding: 51 51 3
Width: 1000
Flags: W
LayerCount: 2
Fore
SplineSet
0 1150 m 1
 0 1400 l 1
 750 1400 l 1
 750 1150 l 1
 0 1150 l 1
0 150 m 1
 0 900 l 1
 250 900 l 1
 250 150 l 1
 0 150 l 1
0 -350 m 1
 0 -100 l 1
 750 -100 l 1
 750 -350 l 1
 0 -350 l 1
EndSplineSet
EndChar

StartChar: four
Encoding: 52 52 4
Width: 1000
Flags: W
LayerCount: 2
Fore
SplineSet
0 1150 m 1
 0 1400 l 1
 750 1400 l 1
 750 1150 l 1
 0 1150 l 1
0 150 m 1
 0 900 l 1
 500 900 l 1
 500 650 l 1
 250 650 l 1
 250 150 l 1
 0 150 l 1
0 -350 m 1
 0 -100 l 1
 750 -100 l 1
 750 -350 l 1
 0 -350 l 1
EndSplineSet
EndChar

StartChar: five
Encoding: 53 53 5
Width: 1000
Flags: W
LayerCount: 2
Fore
SplineSet
0 1150 m 1
 0 1400 l 1
 750 1400 l 1
 750 1150 l 1
 0 1150 l 1
0 150 m 1
 0 900 l 1
 500 900 l 1
 500 400 l 1
 250 400 l 1
 250 150 l 1
 0 150 l 1
0 -350 m 1
 0 -100 l 1
 750 -100 l 1
 750 -350 l 1
 0 -350 l 1
EndSplineSet
EndChar

StartChar: six
Encoding: 54 54 6
Width: 1000
Flags: W
LayerCount: 2
Fore
SplineSet
0 1150 m 1
 0 1400 l 1
 750 1400 l 1
 750 1150 l 1
 0 1150 l 1
0 150 m 1
 0 900 l 1
 500 900 l 1
 500 150 l 1
 0 150 l 1
0 -350 m 1
 0 -100 l 1
 750 -100 l 1
 750 -350 l 1
 0 -350 l 1
EndSplineSet
EndChar

StartChar: seven
Encoding: 55 55 7
Width: 1000
Flags: W
LayerCount: 2
Fore
SplineSet
0 1150 m 1
 0 1400 l 1
 750 1400 l 1
 750 1150 l 1
 0 1150 l 1
0 150 m 1
 0 900 l 1
 750 900 l 1
 750 650 l 1
 500 650 l 1
 500 150 l 1
 0 150 l 1
0 -350 m 1
 0 -100 l 1
 750 -100 l 1
 750 -350 l 1
 0 -350 l 1
EndSplineSet
EndChar

StartChar: eight
Encoding: 56 56 8
Width: 1000
Flags: W
LayerCount: 2
Fore
SplineSet
0 1150 m 1
 0 1400 l 1
 750 1400 l 1
 750 1150 l 1
 0 1150 l 1
0 150 m 1
 0 900 l 1
 750 900 l 1
 750 400 l 1
 500 400 l 1
 500 150 l 1
 0 150 l 1
0 -350 m 1
 0 -100 l 1
 750 -100 l 1
 750 -350 l 1
 0 -350 l 1
EndSplineSet
EndChar

StartChar: nine
Encoding: 57 57 9
Width: 1000
Flags: W
LayerCount: 2
Fore
SplineSet
0 1150 m 1
 0 1400 l 1
 750 1400 l 1
 750 1150 l 1
 0 1150 l 1
0 150 m 1
 0 900 l 1
 750 900 l 1
 750 150 l 1
 0 150 l 1
0 -350 m 1
 0 -100 l 1
 750 -100 l 1
 750 -350 l 1
 0 -350 l 1
EndSplineSet
EndChar

StartChar: uniE001
Encoding: 57345 57345 10
Width: 1000
Flags: W
LayerCount: 2
Fore
SplineSet
0 900 m 1
 0 1150 l 1
 250 1150 l 1
 250 900 l 1
 0 900 l 1
EndSplineSet
EndChar

StartChar: uniE002
Encoding: 57346 57346 11
Width: 1000
Flags: W
LayerCount: 2
Fore
SplineSet
250 900 m 1
 250 1150 l 1
 500 1150 l 1
 500 900 l 1
 250 900 l 1
EndSplineSet
EndChar

StartChar: uniE003
Encoding: 57347 57347 12
Width: 1000
Flags: W
LayerCount: 2
Fore
SplineSet
500 900 m 1
 500 1150 l 1
 750 1150 l 1
 750 900 l 1
 500 900 l 1
EndSplineSet
EndChar

StartChar: uniE004
Encoding: 57348 57348 13
Width: 1000
Flags: W
LayerCount: 2
Fore
SplineSet
0 -100 m 1
 0 150 l 1
 250 150 l 1
 250 -100 l 1
 0 -100 l 1
EndSplineSet
EndChar

StartChar: uniE005
Encoding: 57349 57349 14
Width: 1000
Flags: W
LayerCount: 2
Fore
SplineSet
250 -100 m 1
 250 150 l 1
 500 150 l 1
 500 -100 l 1
 250 -100 l 1
EndSplineSet
EndChar

StartChar: uniE006
Encoding: 57350 57350 15
Width: 1000
Flags: W
LayerCount: 2
Fore
SplineSet
500 -100 m 1
 500 150 l 1
 750 150 l 1
 750 -100 l 1
 500 -100 l 1
EndSplineSet
EndChar

StartChar: uniE009
Encoding: 57353 57353 16
Width: 1000
Flags: W
LayerCount: 2
Fore
SplineSet
0 900 m 1
 0 1400 l 1
 250 1400 l 1
 250 900 l 1
 0 900 l 1
EndSplineSet
EndChar

StartChar: uniE00A
Encoding: 57354 57354 17
Width: 1000
Flags: W
LayerCount: 2
Fore
SplineSet
250 1150 m 1
 250 1400 l 1
 500 1400 l 1
 500 900 l 1
 0 900 l 1
 0 1150 l 1
 250 1150 l 1
EndSplineSet
EndChar

StartChar: uniE00B
Encoding: 57355 57355 18
Width: 1000
Flags: W
LayerCount: 2
Fore
SplineSet
500 900 m 1
 500 1400 l 1
 750 1400 l 1
 750 900 l 1
 500 900 l 1
0 900 m 1
 0 1150 l 1
 250 1150 l 1
 250 900 l 1
 0 900 l 1
EndSplineSet
EndChar

StartChar: uniE00C
Encoding: 57356 57356 19
Width: 1000
Flags: W
LayerCount: 2
Fore
SplineSet
0 900 m 1
 0 1150 l 1
 250 1150 l 1
 250 900 l 1
 0 900 l 1
0 -350 m 1
 0 150 l 1
 250 150 l 1
 250 -350 l 1
 0 -350 l 1
EndSplineSet
EndChar

StartChar: uniE00D
Encoding: 57357 57357 20
Width: 1000
Flags: W
LayerCount: 2
Fore
SplineSet
0 900 m 1
 0 1150 l 1
 250 1150 l 1
 250 900 l 1
 0 900 l 1
250 -350 m 1
 250 150 l 1
 500 150 l 1
 500 -350 l 1
 250 -350 l 1
EndSplineSet
EndChar

StartChar: uniE00E
Encoding: 57358 57358 21
Width: 1000
Flags: W
LayerCount: 2
Fore
SplineSet
0 900 m 1
 0 1150 l 1
 250 1150 l 1
 250 900 l 1
 0 900 l 1
500 -350 m 1
 500 150 l 1
 750 150 l 1
 750 -350 l 1
 500 -350 l 1
EndSplineSet
EndChar

StartChar: uniE011
Encoding: 57361 57361 22
Width: 1000
Flags: W
LayerCount: 2
Fore
SplineSet
0 900 m 1
 0 1400 l 1
 250 1400 l 1
 250 1150 l 1
 500 1150 l 1
 500 900 l 1
 0 900 l 1
EndSplineSet
EndChar

StartChar: uniE012
Encoding: 57362 57362 23
Width: 1000
Flags: W
LayerCount: 2
Fore
SplineSet
250 900 m 1
 250 1400 l 1
 500 1400 l 1
 500 900 l 1
 250 900 l 1
EndSplineSet
EndChar

StartChar: uniE013
Encoding: 57363 57363 24
Width: 1000
Flags: W
LayerCount: 2
Fore
SplineSet
500 1150 m 1
 500 1400 l 1
 750 1400 l 1
 750 900 l 1
 250 900 l 1
 250 1150 l 1
 500 1150 l 1
EndSplineSet
EndChar

StartChar: uniE014
Encoding: 57364 57364 25
Width: 1000
Flags: W
LayerCount: 2
Fore
SplineSet
250 900 m 1
 250 1150 l 1
 500 1150 l 1
 500 900 l 1
 250 900 l 1
0 -350 m 1
 0 150 l 1
 250 150 l 1
 250 -350 l 1
 0 -350 l 1
EndSplineSet
EndChar

StartChar: uniE015
Encoding: 57365 57365 26
Width: 1000
Flags: W
LayerCount: 2
Fore
SplineSet
250 900 m 1
 250 1150 l 1
 500 1150 l 1
 500 900 l 1
 250 900 l 1
250 -350 m 1
 250 150 l 1
 500 150 l 1
 500 -350 l 1
 250 -350 l 1
EndSplineSet
EndChar

StartChar: uniE016
Encoding: 57366 57366 27
Width: 1000
Flags: W
LayerCount: 2
Fore
SplineSet
250 900 m 1
 250 1150 l 1
 500 1150 l 1
 500 900 l 1
 250 900 l 1
500 -350 m 1
 500 150 l 1
 750 150 l 1
 750 -350 l 1
 500 -350 l 1
EndSplineSet
EndChar

StartChar: uniE019
Encoding: 57369 57369 28
Width: 1000
Flags: W
LayerCount: 2
Fore
SplineSet
0 900 m 1
 0 1400 l 1
 250 1400 l 1
 250 900 l 1
 0 900 l 1
500 900 m 1
 500 1150 l 1
 750 1150 l 1
 750 900 l 1
 500 900 l 1
EndSplineSet
EndChar

StartChar: uniE01A
Encoding: 57370 57370 29
Width: 1000
Flags: W
LayerCount: 2
Fore
SplineSet
250 900 m 1
 250 1400 l 1
 500 1400 l 1
 500 1150 l 1
 750 1150 l 1
 750 900 l 1
 250 900 l 1
EndSplineSet
EndChar

StartChar: uniE01B
Encoding: 57371 57371 30
Width: 1000
Flags: W
LayerCount: 2
Fore
SplineSet
500 900 m 1
 500 1400 l 1
 750 1400 l 1
 750 900 l 1
 500 900 l 1
EndSplineSet
EndChar

StartChar: uniE01C
Encoding: 57372 57372 31
Width: 1000
Flags: W
LayerCount: 2
Fore
SplineSet
500 900 m 1
 500 1150 l 1
 750 1150 l 1
 750 900 l 1
 500 900 l 1
0 -350 m 1
 0 150 l 1
 250 150 l 1
 250 -350 l 1
 0 -350 l 1
EndSplineSet
EndChar

StartChar: uniE01D
Encoding: 57373 57373 32
Width: 1000
Flags: W
LayerCount: 2
Fore
SplineSet
500 900 m 1
 500 1150 l 1
 750 1150 l 1
 750 900 l 1
 500 900 l 1
250 -350 m 1
 250 150 l 1
 500 150 l 1
 500 -350 l 1
 250 -350 l 1
EndSplineSet
EndChar

StartChar: uniE01E
Encoding: 57374 57374 33
Width: 1000
Flags: W
LayerCount: 2
Fore
SplineSet
500 900 m 1
 500 1150 l 1
 750 1150 l 1
 750 900 l 1
 500 900 l 1
500 -350 m 1
 500 150 l 1
 750 150 l 1
 750 -350 l 1
 500 -350 l 1
EndSplineSet
EndChar

StartChar: uniE021
Encoding: 57377 57377 34
Width: 1000
Flags: W
LayerCount: 2
Fore
SplineSet
0 900 m 1
 0 1400 l 1
 250 1400 l 1
 250 900 l 1
 0 900 l 1
0 -100 m 1
 0 150 l 1
 250 150 l 1
 250 -100 l 1
 0 -100 l 1
EndSplineSet
EndChar

StartChar: uniE022
Encoding: 57378 57378 35
Width: 1000
Flags: W
LayerCount: 2
Fore
SplineSet
250 900 m 1
 250 1400 l 1
 500 1400 l 1
 500 900 l 1
 250 900 l 1
0 -100 m 1
 0 150 l 1
 250 150 l 1
 250 -100 l 1
 0 -100 l 1
EndSplineSet
EndChar

StartChar: uniE023
Encoding: 57379 57379 36
Width: 1000
Flags: W
LayerCount: 2
Fore
SplineSet
500 900 m 1
 500 1400 l 1
 750 1400 l 1
 750 900 l 1
 500 900 l 1
0 -100 m 1
 0 150 l 1
 250 150 l 1
 250 -100 l 1
 0 -100 l 1
EndSplineSet
EndChar

StartChar: uniE024
Encoding: 57380 57380 37
Width: 1000
Flags: W
LayerCount: 2
Fore
SplineSet
0 -350 m 1
 0 150 l 1
 250 150 l 1
 250 -350 l 1
 0 -350 l 1
EndSplineSet
EndChar

StartChar: uniE025
Encoding: 57381 57381 38
Width: 1000
Flags: W
LayerCount: 2
Fore
SplineSet
0 -100 m 1
 0 150 l 1
 500 150 l 1
 500 -350 l 1
 250 -350 l 1
 250 -100 l 1
 0 -100 l 1
EndSplineSet
EndChar

StartChar: uniE026
Encoding: 57382 57382 39
Width: 1000
Flags: W
LayerCount: 2
Fore
SplineSet
0 -100 m 1
 0 150 l 1
 250 150 l 1
 250 -100 l 1
 0 -100 l 1
500 -350 m 1
 500 150 l 1
 750 150 l 1
 750 -350 l 1
 500 -350 l 1
EndSplineSet
EndChar

StartChar: uniE029
Encoding: 57385 57385 40
Width: 1000
Flags: W
LayerCount: 2
Fore
SplineSet
0 900 m 1
 0 1400 l 1
 250 1400 l 1
 250 900 l 1
 0 900 l 1
250 -100 m 1
 250 150 l 1
 500 150 l 1
 500 -100 l 1
 250 -100 l 1
EndSplineSet
EndChar

StartChar: uniE02A
Encoding: 57386 57386 41
Width: 1000
Flags: W
LayerCount: 2
Fore
SplineSet
250 900 m 1
 250 1400 l 1
 500 1400 l 1
 500 900 l 1
 250 900 l 1
250 -100 m 1
 250 150 l 1
 500 150 l 1
 500 -100 l 1
 250 -100 l 1
EndSplineSet
EndChar

StartChar: uniE02B
Encoding: 57387 57387 42
Width: 1000
Flags: W
LayerCount: 2
Fore
SplineSet
500 900 m 1
 500 1400 l 1
 750 1400 l 1
 750 900 l 1
 500 900 l 1
250 -100 m 1
 250 150 l 1
 500 150 l 1
 500 -100 l 1
 250 -100 l 1
EndSplineSet
EndChar

StartChar: uniE02C
Encoding: 57388 57388 43
Width: 1000
Flags: W
LayerCount: 2
Fore
SplineSet
0 -350 m 1
 0 150 l 1
 500 150 l 1
 500 -100 l 1
 250 -100 l 1
 250 -350 l 1
 0 -350 l 1
EndSplineSet
EndChar

StartChar: uniE02D
Encoding: 57389 57389 44
Width: 1000
Flags: W
LayerCount: 2
Fore
SplineSet
250 -350 m 1
 250 150 l 1
 500 150 l 1
 500 -350 l 1
 250 -350 l 1
EndSplineSet
EndChar

StartChar: uniE02E
Encoding: 57390 57390 45
Width: 1000
Flags: W
LayerCount: 2
Fore
SplineSet
250 -100 m 1
 250 150 l 1
 750 150 l 1
 750 -350 l 1
 500 -350 l 1
 500 -100 l 1
 250 -100 l 1
EndSplineSet
EndChar

StartChar: uniE031
Encoding: 57393 57393 46
Width: 1000
Flags: W
LayerCount: 2
Fore
SplineSet
0 900 m 1
 0 1400 l 1
 250 1400 l 1
 250 900 l 1
 0 900 l 1
500 -100 m 1
 500 150 l 1
 750 150 l 1
 750 -100 l 1
 500 -100 l 1
EndSplineSet
EndChar

StartChar: uniE032
Encoding: 57394 57394 47
Width: 1000
Flags: W
LayerCount: 2
Fore
SplineSet
250 900 m 1
 250 1400 l 1
 500 1400 l 1
 500 900 l 1
 250 900 l 1
500 -100 m 1
 500 150 l 1
 750 150 l 1
 750 -100 l 1
 500 -100 l 1
EndSplineSet
EndChar

StartChar: uniE033
Encoding: 57395 57395 48
Width: 1000
Flags: W
LayerCount: 2
Fore
SplineSet
500 900 m 1
 500 1400 l 1
 750 1400 l 1
 750 900 l 1
 500 900 l 1
500 -100 m 1
 500 150 l 1
 750 150 l 1
 750 -100 l 1
 500 -100 l 1
EndSplineSet
EndChar

StartChar: uniE034
Encoding: 57396 57396 49
Width: 1000
Flags: W
LayerCount: 2
Fore
SplineSet
0 -350 m 1
 0 150 l 1
 250 150 l 1
 250 -350 l 1
 0 -350 l 1
500 -100 m 1
 500 150 l 1
 750 150 l 1
 750 -100 l 1
 500 -100 l 1
EndSplineSet
EndChar

StartChar: uniE035
Encoding: 57397 57397 50
Width: 1000
Flags: W
LayerCount: 2
Fore
SplineSet
250 -350 m 1
 250 150 l 1
 750 150 l 1
 750 -100 l 1
 500 -100 l 1
 500 -350 l 1
 250 -350 l 1
EndSplineSet
EndChar

StartChar: uniE036
Encoding: 57398 57398 51
Width: 1000
Flags: W
LayerCount: 2
Fore
SplineSet
500 -350 m 1
 500 150 l 1
 750 150 l 1
 750 -350 l 1
 500 -350 l 1
EndSplineSet
EndChar

StartChar: uniE100
Encoding: 57600 57600 52
Width: 1000
Flags: W
LayerCount: 2
Fore
SplineSet
0 150 m 1
 0 900 l 1
 750 900 l 1
 750 150 l 1
 0 150 l 1
500 400 m 1
 500 650 l 1
 250 650 l 1
 250 400 l 1
 500 400 l 1
EndSplineSet
EndChar

StartChar: uniE101
Encoding: 57601 57601 53
Width: 1000
Flags: W
LayerCount: 2
Fore
SplineSet
0 150 m 1
 0 1150 l 1
 250 1150 l 1
 250 900 l 1
 750 900 l 1
 750 150 l 1
 0 150 l 1
500 400 m 1
 500 650 l 1
 250 650 l 1
 250 400 l 1
 500 400 l 1
EndSplineSet
EndChar

StartChar: uniE102
Encoding: 57602 57602 54
Width: 1000
Flags: W
LayerCount: 2
Fore
SplineSet
250 900 m 1
 250 1150 l 1
 500 1150 l 1
 500 900 l 1
 750 900 l 1
 750 150 l 1
 0 150 l 1
 0 900 l 1
 250 900 l 1
500 400 m 1
 500 650 l 1
 250 650 l 1
 250 400 l 1
 500 400 l 1
EndSplineSet
EndChar

StartChar: uniE103
Encoding: 57603 57603 55
Width: 1000
Flags: W
LayerCount: 2
Fore
SplineSet
500 900 m 1
 500 1150 l 1
 750 1150 l 1
 750 150 l 1
 0 150 l 1
 0 900 l 1
 500 900 l 1
500 400 m 1
 500 650 l 1
 250 650 l 1
 250 400 l 1
 500 400 l 1
EndSplineSet
EndChar

StartChar: uniE104
Encoding: 57604 57604 56
Width: 1000
Flags: W
LayerCount: 2
Fore
SplineSet
0 -100 m 1
 0 900 l 1
 750 900 l 1
 750 150 l 1
 250 150 l 1
 250 -100 l 1
 0 -100 l 1
500 400 m 1
 500 650 l 1
 250 650 l 1
 250 400 l 1
 500 400 l 1
EndSplineSet
EndChar

StartChar: uniE105
Encoding: 57605 57605 57
Width: 1000
Flags: W
LayerCount: 2
Fore
SplineSet
0 150 m 1
 0 900 l 1
 750 900 l 1
 750 150 l 1
 500 150 l 1
 500 -100 l 1
 250 -100 l 1
 250 150 l 1
 0 150 l 1
500 400 m 1
 500 650 l 1
 250 650 l 1
 250 400 l 1
 500 400 l 1
EndSplineSet
EndChar

StartChar: uniE106
Encoding: 57606 57606 58
Width: 1000
Flags: W
LayerCount: 2
Fore
SplineSet
0 150 m 1
 0 900 l 1
 750 900 l 1
 750 -100 l 1
 500 -100 l 1
 500 150 l 1
 0 150 l 1
500 400 m 1
 500 650 l 1
 250 650 l 1
 250 400 l 1
 500 400 l 1
EndSplineSet
EndChar

StartChar: uniE109
Encoding: 57609 57609 59
Width: 1000
Flags: W
LayerCount: 2
Fore
SplineSet
0 150 m 1
 0 1400 l 1
 250 1400 l 1
 250 900 l 1
 750 900 l 1
 750 150 l 1
 0 150 l 1
500 400 m 1
 500 650 l 1
 250 650 l 1
 250 400 l 1
 500 400 l 1
EndSplineSet
EndChar

StartChar: uniE10A
Encoding: 57610 57610 60
Width: 1000
Flags: W
LayerCount: 2
Fore
SplineSet
250 1150 m 1
 250 1400 l 1
 500 1400 l 1
 500 900 l 1
 750 900 l 1
 750 150 l 1
 0 150 l 1
 0 1150 l 1
 250 1150 l 1
500 400 m 1
 500 650 l 1
 250 650 l 1
 250 400 l 1
 500 400 l 1
EndSplineSet
EndChar

StartChar: uniE10B
Encoding: 57611 57611 61
Width: 1000
Flags: W
LayerCount: 2
Fore
SplineSet
500 900 m 1
 500 1400 l 1
 750 1400 l 1
 750 150 l 1
 0 150 l 1
 0 1150 l 1
 250 1150 l 1
 250 900 l 1
 500 900 l 1
500 400 m 1
 500 650 l 1
 250 650 l 1
 250 400 l 1
 500 400 l 1
EndSplineSet
EndChar

StartChar: uniE10C
Encoding: 57612 57612 62
Width: 1000
Flags: W
LayerCount: 2
Fore
SplineSet
0 -350 m 1
 0 1150 l 1
 250 1150 l 1
 250 900 l 1
 750 900 l 1
 750 150 l 1
 250 150 l 1
 250 -350 l 1
 0 -350 l 1
500 400 m 1
 500 650 l 1
 250 650 l 1
 250 400 l 1
 500 400 l 1
EndSplineSet
EndChar

StartChar: uniE10D
Encoding: 57613 57613 63
Width: 1000
Flags: W
LayerCount: 2
Fore
SplineSet
0 150 m 1
 0 1150 l 1
 250 1150 l 1
 250 900 l 1
 750 900 l 1
 750 150 l 1
 500 150 l 1
 500 -350 l 1
 250 -350 l 1
 250 150 l 1
 0 150 l 1
500 400 m 1
 500 650 l 1
 250 650 l 1
 250 400 l 1
 500 400 l 1
EndSplineSet
EndChar

StartChar: uniE10E
Encoding: 57614 57614 64
Width: 1000
Flags: W
LayerCount: 2
Fore
SplineSet
0 150 m 1
 0 1150 l 1
 250 1150 l 1
 250 900 l 1
 750 900 l 1
 750 -350 l 1
 500 -350 l 1
 500 150 l 1
 0 150 l 1
500 400 m 1
 500 650 l 1
 250 650 l 1
 250 400 l 1
 500 400 l 1
EndSplineSet
EndChar

StartChar: uniE111
Encoding: 57617 57617 65
Width: 1000
Flags: W
LayerCount: 2
Fore
SplineSet
0 150 m 1
 0 1400 l 1
 250 1400 l 1
 250 1150 l 1
 500 1150 l 1
 500 900 l 1
 750 900 l 1
 750 150 l 1
 0 150 l 1
500 400 m 1
 500 650 l 1
 250 650 l 1
 250 400 l 1
 500 400 l 1
EndSplineSet
EndChar

StartChar: uniE112
Encoding: 57618 57618 66
Width: 1000
Flags: W
LayerCount: 2
Fore
SplineSet
250 900 m 1
 250 1400 l 1
 500 1400 l 1
 500 900 l 1
 750 900 l 1
 750 150 l 1
 0 150 l 1
 0 900 l 1
 250 900 l 1
500 400 m 1
 500 650 l 1
 250 650 l 1
 250 400 l 1
 500 400 l 1
EndSplineSet
EndChar

StartChar: uniE113
Encoding: 57619 57619 67
Width: 1000
Flags: W
LayerCount: 2
Fore
SplineSet
500 1150 m 1
 500 1400 l 1
 750 1400 l 1
 750 150 l 1
 0 150 l 1
 0 900 l 1
 250 900 l 1
 250 1150 l 1
 500 1150 l 1
500 400 m 1
 500 650 l 1
 250 650 l 1
 250 400 l 1
 500 400 l 1
EndSplineSet
EndChar

StartChar: uniE114
Encoding: 57620 57620 68
Width: 1000
Flags: W
LayerCount: 2
Fore
SplineSet
250 900 m 1
 250 1150 l 1
 500 1150 l 1
 500 900 l 1
 750 900 l 1
 750 150 l 1
 250 150 l 1
 250 -350 l 1
 0 -350 l 1
 0 900 l 1
 250 900 l 1
500 400 m 1
 500 650 l 1
 250 650 l 1
 250 400 l 1
 500 400 l 1
EndSplineSet
EndChar

StartChar: uniE115
Encoding: 57621 57621 69
Width: 1000
Flags: W
LayerCount: 2
Fore
SplineSet
250 900 m 1
 250 1150 l 1
 500 1150 l 1
 500 900 l 1
 750 900 l 1
 750 150 l 1
 500 150 l 1
 500 -350 l 1
 250 -350 l 1
 250 150 l 1
 0 150 l 1
 0 900 l 1
 250 900 l 1
500 400 m 1
 500 650 l 1
 250 650 l 1
 250 400 l 1
 500 400 l 1
EndSplineSet
EndChar

StartChar: uniE116
Encoding: 57622 57622 70
Width: 1000
Flags: W
LayerCount: 2
Fore
SplineSet
250 900 m 1
 250 1150 l 1
 500 1150 l 1
 500 900 l 1
 750 900 l 1
 750 -350 l 1
 500 -350 l 1
 500 150 l 1
 0 150 l 1
 0 900 l 1
 250 900 l 1
500 400 m 1
 500 650 l 1
 250 650 l 1
 250 400 l 1
 500 400 l 1
EndSplineSet
EndChar

StartChar: uniE119
Encoding: 57625 57625 71
Width: 1000
Flags: W
LayerCount: 2
Fore
SplineSet
0 150 m 1
 0 1400 l 1
 250 1400 l 1
 250 900 l 1
 500 900 l 1
 500 1150 l 1
 750 1150 l 1
 750 150 l 1
 0 150 l 1
500 400 m 1
 500 650 l 1
 250 650 l 1
 250 400 l 1
 500 400 l 1
EndSplineSet
EndChar

StartChar: uniE11A
Encoding: 57626 57626 72
Width: 1000
Flags: W
LayerCount: 2
Fore
SplineSet
250 900 m 1
 250 1400 l 1
 500 1400 l 1
 500 1150 l 1
 750 1150 l 1
 750 150 l 1
 0 150 l 1
 0 900 l 1
 250 900 l 1
500 400 m 1
 500 650 l 1
 250 650 l 1
 250 400 l 1
 500 400 l 1
EndSplineSet
EndChar

StartChar: uniE11B
Encoding: 57627 57627 73
Width: 1000
Flags: W
LayerCount: 2
Fore
SplineSet
500 900 m 1
 500 1400 l 1
 750 1400 l 1
 750 150 l 1
 0 150 l 1
 0 900 l 1
 500 900 l 1
500 400 m 1
 500 650 l 1
 250 650 l 1
 250 400 l 1
 500 400 l 1
EndSplineSet
EndChar

StartChar: uniE11C
Encoding: 57628 57628 74
Width: 1000
Flags: W
LayerCount: 2
Fore
SplineSet
500 900 m 1
 500 1150 l 1
 750 1150 l 1
 750 150 l 1
 250 150 l 1
 250 -350 l 1
 0 -350 l 1
 0 900 l 1
 500 900 l 1
500 400 m 1
 500 650 l 1
 250 650 l 1
 250 400 l 1
 500 400 l 1
EndSplineSet
EndChar

StartChar: uniE11D
Encoding: 57629 57629 75
Width: 1000
Flags: W
LayerCount: 2
Fore
SplineSet
500 900 m 1
 500 1150 l 1
 750 1150 l 1
 750 150 l 1
 500 150 l 1
 500 -350 l 1
 250 -350 l 1
 250 150 l 1
 0 150 l 1
 0 900 l 1
 500 900 l 1
500 400 m 1
 500 650 l 1
 250 650 l 1
 250 400 l 1
 500 400 l 1
EndSplineSet
EndChar

StartChar: uniE11E
Encoding: 57630 57630 76
Width: 1000
Flags: W
LayerCount: 2
Fore
SplineSet
500 900 m 1
 500 1150 l 1
 750 1150 l 1
 750 -350 l 1
 500 -350 l 1
 500 150 l 1
 0 150 l 1
 0 900 l 1
 500 900 l 1
500 400 m 1
 500 650 l 1
 250 650 l 1
 250 400 l 1
 500 400 l 1
EndSplineSet
EndChar

StartChar: uniE121
Encoding: 57633 57633 77
Width: 1000
Flags: W
LayerCount: 2
Fore
SplineSet
0 -100 m 1
 0 1400 l 1
 250 1400 l 1
 250 900 l 1
 750 900 l 1
 750 150 l 1
 250 150 l 1
 250 -100 l 1
 0 -100 l 1
500 400 m 1
 500 650 l 1
 250 650 l 1
 250 400 l 1
 500 400 l 1
EndSplineSet
EndChar

StartChar: uniE122
Encoding: 57634 57634 78
Width: 1000
Flags: W
LayerCount: 2
Fore
SplineSet
250 900 m 1
 250 1400 l 1
 500 1400 l 1
 500 900 l 1
 750 900 l 1
 750 150 l 1
 250 150 l 1
 250 -100 l 1
 0 -100 l 1
 0 900 l 1
 250 900 l 1
500 400 m 1
 500 650 l 1
 250 650 l 1
 250 400 l 1
 500 400 l 1
EndSplineSet
EndChar

StartChar: uniE123
Encoding: 57635 57635 79
Width: 1000
Flags: W
LayerCount: 2
Fore
SplineSet
500 900 m 1
 500 1400 l 1
 750 1400 l 1
 750 150 l 1
 250 150 l 1
 250 -100 l 1
 0 -100 l 1
 0 900 l 1
 500 900 l 1
500 400 m 1
 500 650 l 1
 250 650 l 1
 250 400 l 1
 500 400 l 1
EndSplineSet
EndChar

StartChar: uniE124
Encoding: 57636 57636 80
Width: 1000
Flags: W
LayerCount: 2
Fore
SplineSet
0 -350 m 1
 0 900 l 1
 750 900 l 1
 750 150 l 1
 250 150 l 1
 250 -350 l 1
 0 -350 l 1
500 400 m 1
 500 650 l 1
 250 650 l 1
 250 400 l 1
 500 400 l 1
EndSplineSet
EndChar

StartChar: uniE125
Encoding: 57637 57637 81
Width: 1000
Flags: W
LayerCount: 2
Fore
SplineSet
0 -100 m 1
 0 900 l 1
 750 900 l 1
 750 150 l 1
 500 150 l 1
 500 -350 l 1
 250 -350 l 1
 250 -100 l 1
 0 -100 l 1
500 400 m 1
 500 650 l 1
 250 650 l 1
 250 400 l 1
 500 400 l 1
EndSplineSet
EndChar

StartChar: uniE126
Encoding: 57638 57638 82
Width: 1000
Flags: W
LayerCount: 2
Fore
SplineSet
0 -100 m 1
 0 900 l 1
 750 900 l 1
 750 -350 l 1
 500 -350 l 1
 500 150 l 1
 250 150 l 1
 250 -100 l 1
 0 -100 l 1
500 400 m 1
 500 650 l 1
 250 650 l 1
 250 400 l 1
 500 400 l 1
EndSplineSet
EndChar

StartChar: uniE129
Encoding: 57641 57641 83
Width: 1000
Flags: W
LayerCount: 2
Fore
SplineSet
0 150 m 1
 0 1400 l 1
 250 1400 l 1
 250 900 l 1
 750 900 l 1
 750 150 l 1
 500 150 l 1
 500 -100 l 1
 250 -100 l 1
 250 150 l 1
 0 150 l 1
500 400 m 1
 500 650 l 1
 250 650 l 1
 250 400 l 1
 500 400 l 1
EndSplineSet
EndChar

StartChar: uniE12A
Encoding: 57642 57642 84
Width: 1000
Flags: W
LayerCount: 2
Fore
SplineSet
250 900 m 1
 250 1400 l 1
 500 1400 l 1
 500 900 l 1
 750 900 l 1
 750 150 l 1
 500 150 l 1
 500 -100 l 1
 250 -100 l 1
 250 150 l 1
 0 150 l 1
 0 900 l 1
 250 900 l 1
500 400 m 1
 500 650 l 1
 250 650 l 1
 250 400 l 1
 500 400 l 1
EndSplineSet
EndChar

StartChar: uniE12B
Encoding: 57643 57643 85
Width: 1000
Flags: W
LayerCount: 2
Fore
SplineSet
500 900 m 1
 500 1400 l 1
 750 1400 l 1
 750 150 l 1
 500 150 l 1
 500 -100 l 1
 250 -100 l 1
 250 150 l 1
 0 150 l 1
 0 900 l 1
 500 900 l 1
500 400 m 1
 500 650 l 1
 250 650 l 1
 250 400 l 1
 500 400 l 1
EndSplineSet
EndChar

StartChar: uniE12C
Encoding: 57644 57644 86
Width: 1000
Flags: W
LayerCount: 2
Fore
SplineSet
0 -350 m 1
 0 900 l 1
 750 900 l 1
 750 150 l 1
 500 150 l 1
 500 -100 l 1
 250 -100 l 1
 250 -350 l 1
 0 -350 l 1
500 400 m 1
 500 650 l 1
 250 650 l 1
 250 400 l 1
 500 400 l 1
EndSplineSet
EndChar

StartChar: uniE12D
Encoding: 57645 57645 87
Width: 1000
Flags: W
LayerCount: 2
Fore
SplineSet
0 150 m 1
 0 900 l 1
 750 900 l 1
 750 150 l 1
 500 150 l 1
 500 -350 l 1
 250 -350 l 1
 250 150 l 1
 0 150 l 1
500 400 m 1
 500 650 l 1
 250 650 l 1
 250 400 l 1
 500 400 l 1
EndSplineSet
EndChar

StartChar: uniE12E
Encoding: 57646 57646 88
Width: 1000
Flags: W
LayerCount: 2
Fore
SplineSet
0 150 m 1
 0 900 l 1
 750 900 l 1
 750 -350 l 1
 500 -350 l 1
 500 -100 l 1
 250 -100 l 1
 250 150 l 1
 0 150 l 1
500 400 m 1
 500 650 l 1
 250 650 l 1
 250 400 l 1
 500 400 l 1
EndSplineSet
EndChar

StartChar: uniE131
Encoding: 57649 57649 89
Width: 1000
Flags: W
LayerCount: 2
Fore
SplineSet
0 150 m 1
 0 1400 l 1
 250 1400 l 1
 250 900 l 1
 750 900 l 1
 750 -100 l 1
 500 -100 l 1
 500 150 l 1
 0 150 l 1
500 400 m 1
 500 650 l 1
 250 650 l 1
 250 400 l 1
 500 400 l 1
EndSplineSet
EndChar

StartChar: uniE132
Encoding: 57650 57650 90
Width: 1000
Flags: W
LayerCount: 2
Fore
SplineSet
250 900 m 1
 250 1400 l 1
 500 1400 l 1
 500 900 l 1
 750 900 l 1
 750 -100 l 1
 500 -100 l 1
 500 150 l 1
 0 150 l 1
 0 900 l 1
 250 900 l 1
500 400 m 1
 500 650 l 1
 250 650 l 1
 250 400 l 1
 500 400 l 1
EndSplineSet
EndChar

StartChar: uniE133
Encoding: 57651 57651 91
Width: 1000
Flags: W
LayerCount: 2
Fore
SplineSet
500 900 m 1
 500 1400 l 1
 750 1400 l 1
 750 -100 l 1
 500 -100 l 1
 500 150 l 1
 0 150 l 1
 0 900 l 1
 500 900 l 1
500 400 m 1
 500 650 l 1
 250 650 l 1
 250 400 l 1
 500 400 l 1
EndSplineSet
EndChar

StartChar: uniE134
Encoding: 57652 57652 92
Width: 1000
Flags: W
LayerCount: 2
Fore
SplineSet
0 -350 m 1
 0 900 l 1
 750 900 l 1
 750 -100 l 1
 500 -100 l 1
 500 150 l 1
 250 150 l 1
 250 -350 l 1
 0 -350 l 1
500 400 m 1
 500 650 l 1
 250 650 l 1
 250 400 l 1
 500 400 l 1
EndSplineSet
EndChar

StartChar: uniE135
Encoding: 57653 57653 93
Width: 1000
Flags: W
LayerCount: 2
Fore
SplineSet
0 150 m 1
 0 900 l 1
 750 900 l 1
 750 -100 l 1
 500 -100 l 1
 500 -350 l 1
 250 -350 l 1
 250 150 l 1
 0 150 l 1
500 400 m 1
 500 650 l 1
 250 650 l 1
 250 400 l 1
 500 400 l 1
EndSplineSet
EndChar

StartChar: uniE136
Encoding: 57654 57654 94
Width: 1000
Flags: W
LayerCount: 2
Fore
SplineSet
0 150 m 1
 0 900 l 1
 750 900 l 1
 750 -350 l 1
 500 -350 l 1
 500 150 l 1
 0 150 l 1
500 400 m 1
 500 650 l 1
 250 650 l 1
 250 400 l 1
 500 400 l 1
EndSplineSet
EndChar

StartChar: uniE140
Encoding: 57664 57664 95
Width: 1000
Flags: W
LayerCount: 2
Fore
SplineSet
250 650 m 1
 250 900 l 1
 500 900 l 1
 500 650 l 1
 750 650 l 1
 750 400 l 1
 500 400 l 1
 500 150 l 1
 250 150 l 1
 250 400 l 1
 0 400 l 1
 0 650 l 1
 250 650 l 1
500 400 m 1
 500 650 l 1
 250 650 l 1
 250 400 l 1
 500 400 l 1
EndSplineSet
EndChar

StartChar: uniE141
Encoding: 57665 57665 96
Width: 1000
Flags: W
LayerCount: 2
Fore
SplineSet
0 900 m 1
 0 1150 l 1
 250 1150 l 1
 250 900 l 1
 500 900 l 1
 500 650 l 1
 750 650 l 1
 750 400 l 1
 500 400 l 1
 500 150 l 1
 250 150 l 1
 250 400 l 1
 0 400 l 1
 0 650 l 1
 250 650 l 1
 250 900 l 1
 0 900 l 1
500 400 m 1
 500 650 l 1
 250 650 l 1
 250 400 l 1
 500 400 l 1
EndSplineSet
EndChar

StartChar: uniE142
Encoding: 57666 57666 97
Width: 1000
Flags: W
LayerCount: 2
Fore
SplineSet
250 650 m 1
 250 1150 l 1
 500 1150 l 1
 500 650 l 1
 750 650 l 1
 750 400 l 1
 500 400 l 1
 500 150 l 1
 250 150 l 1
 250 400 l 1
 0 400 l 1
 0 650 l 1
 250 650 l 1
500 400 m 1
 500 650 l 1
 250 650 l 1
 250 400 l 1
 500 400 l 1
EndSplineSet
EndChar

StartChar: uniE143
Encoding: 57667 57667 98
Width: 1000
Flags: W
LayerCount: 2
Fore
SplineSet
500 900 m 1
 500 1150 l 1
 750 1150 l 1
 750 900 l 1
 500 900 l 1
 500 650 l 1
 750 650 l 1
 750 400 l 1
 500 400 l 1
 500 150 l 1
 250 150 l 1
 250 400 l 1
 0 400 l 1
 0 650 l 1
 250 650 l 1
 250 900 l 1
 500 900 l 1
500 400 m 1
 500 650 l 1
 250 650 l 1
 250 400 l 1
 500 400 l 1
EndSplineSet
EndChar

StartChar: uniE144
Encoding: 57668 57668 99
Width: 1000
Flags: W
LayerCount: 2
Fore
SplineSet
250 650 m 1
 250 900 l 1
 500 900 l 1
 500 650 l 1
 750 650 l 1
 750 400 l 1
 500 400 l 1
 500 150 l 1
 250 150 l 1
 250 -100 l 1
 0 -100 l 1
 0 150 l 1
 250 150 l 1
 250 400 l 1
 0 400 l 1
 0 650 l 1
 250 650 l 1
500 400 m 1
 500 650 l 1
 250 650 l 1
 250 400 l 1
 500 400 l 1
EndSplineSet
EndChar

StartChar: uniE145
Encoding: 57669 57669 100
Width: 1000
Flags: W
LayerCount: 2
Fore
SplineSet
250 650 m 1
 250 900 l 1
 500 900 l 1
 500 650 l 1
 750 650 l 1
 750 400 l 1
 500 400 l 1
 500 -100 l 1
 250 -100 l 1
 250 400 l 1
 0 400 l 1
 0 650 l 1
 250 650 l 1
500 400 m 1
 500 650 l 1
 250 650 l 1
 250 400 l 1
 500 400 l 1
EndSplineSet
EndChar

StartChar: uniE146
Encoding: 57670 57670 101
Width: 1000
Flags: W
LayerCount: 2
Fore
SplineSet
250 650 m 1
 250 900 l 1
 500 900 l 1
 500 650 l 1
 750 650 l 1
 750 400 l 1
 500 400 l 1
 500 150 l 1
 750 150 l 1
 750 -100 l 1
 500 -100 l 1
 500 150 l 1
 250 150 l 1
 250 400 l 1
 0 400 l 1
 0 650 l 1
 250 650 l 1
500 400 m 1
 500 650 l 1
 250 650 l 1
 250 400 l 1
 500 400 l 1
EndSplineSet
EndChar

StartChar: uniE149
Encoding: 57673 57673 102
Width: 1000
Flags: W
LayerCount: 2
Fore
SplineSet
0 900 m 1
 0 1400 l 1
 250 1400 l 1
 250 900 l 1
 500 900 l 1
 500 650 l 1
 750 650 l 1
 750 400 l 1
 500 400 l 1
 500 150 l 1
 250 150 l 1
 250 400 l 1
 0 400 l 1
 0 650 l 1
 250 650 l 1
 250 900 l 1
 0 900 l 1
500 400 m 1
 500 650 l 1
 250 650 l 1
 250 400 l 1
 500 400 l 1
EndSplineSet
EndChar

StartChar: uniE14A
Encoding: 57674 57674 103
Width: 1000
Flags: W
LayerCount: 2
Fore
SplineSet
250 1150 m 1
 250 1400 l 1
 500 1400 l 1
 500 650 l 1
 750 650 l 1
 750 400 l 1
 500 400 l 1
 500 150 l 1
 250 150 l 1
 250 400 l 1
 0 400 l 1
 0 650 l 1
 250 650 l 1
 250 900 l 1
 0 900 l 1
 0 1150 l 1
 250 1150 l 1
500 400 m 1
 500 650 l 1
 250 650 l 1
 250 400 l 1
 500 400 l 1
EndSplineSet
EndChar

StartChar: uniE14B
Encoding: 57675 57675 104
Width: 1000
Flags: W
LayerCount: 2
Fore
SplineSet
500 900 m 1
 500 1400 l 1
 750 1400 l 1
 750 900 l 1
 500 900 l 1
 500 650 l 1
 750 650 l 1
 750 400 l 1
 500 400 l 1
 500 150 l 1
 250 150 l 1
 250 400 l 1
 0 400 l 1
 0 650 l 1
 250 650 l 1
 250 900 l 1
 0 900 l 1
 0 1150 l 1
 250 1150 l 1
 250 900 l 1
 500 900 l 1
500 400 m 1
 500 650 l 1
 250 650 l 1
 250 400 l 1
 500 400 l 1
EndSplineSet
EndChar

StartChar: uniE14C
Encoding: 57676 57676 105
Width: 1000
Flags: W
LayerCount: 2
Fore
SplineSet
0 900 m 1
 0 1150 l 1
 250 1150 l 1
 250 900 l 1
 500 900 l 1
 500 650 l 1
 750 650 l 1
 750 400 l 1
 500 400 l 1
 500 150 l 1
 250 150 l 1
 250 -350 l 1
 0 -350 l 1
 0 150 l 1
 250 150 l 1
 250 400 l 1
 0 400 l 1
 0 650 l 1
 250 650 l 1
 250 900 l 1
 0 900 l 1
500 400 m 1
 500 650 l 1
 250 650 l 1
 250 400 l 1
 500 400 l 1
EndSplineSet
EndChar

StartChar: uniE14D
Encoding: 57677 57677 106
Width: 1000
Flags: W
LayerCount: 2
Fore
SplineSet
0 900 m 1
 0 1150 l 1
 250 1150 l 1
 250 900 l 1
 500 900 l 1
 500 650 l 1
 750 650 l 1
 750 400 l 1
 500 400 l 1
 500 -350 l 1
 250 -350 l 1
 250 400 l 1
 0 400 l 1
 0 650 l 1
 250 650 l 1
 250 900 l 1
 0 900 l 1
500 400 m 1
 500 650 l 1
 250 650 l 1
 250 400 l 1
 500 400 l 1
EndSplineSet
EndChar

StartChar: uniE14E
Encoding: 57678 57678 107
Width: 1000
Flags: W
LayerCount: 2
Fore
SplineSet
0 900 m 1
 0 1150 l 1
 250 1150 l 1
 250 900 l 1
 500 900 l 1
 500 650 l 1
 750 650 l 1
 750 400 l 1
 500 400 l 1
 500 150 l 1
 750 150 l 1
 750 -350 l 1
 500 -350 l 1
 500 150 l 1
 250 150 l 1
 250 400 l 1
 0 400 l 1
 0 650 l 1
 250 650 l 1
 250 900 l 1
 0 900 l 1
500 400 m 1
 500 650 l 1
 250 650 l 1
 250 400 l 1
 500 400 l 1
EndSplineSet
EndChar

StartChar: uniE151
Encoding: 57681 57681 108
Width: 1000
Flags: W
LayerCount: 2
Fore
SplineSet
0 900 m 1
 0 1400 l 1
 250 1400 l 1
 250 1150 l 1
 500 1150 l 1
 500 650 l 1
 750 650 l 1
 750 400 l 1
 500 400 l 1
 500 150 l 1
 250 150 l 1
 250 400 l 1
 0 400 l 1
 0 650 l 1
 250 650 l 1
 250 900 l 1
 0 900 l 1
500 400 m 1
 500 650 l 1
 250 650 l 1
 250 400 l 1
 500 400 l 1
EndSplineSet
EndChar

StartChar: uniE152
Encoding: 57682 57682 109
Width: 1000
Flags: W
LayerCount: 2
Fore
SplineSet
250 650 m 1
 250 1400 l 1
 500 1400 l 1
 500 650 l 1
 750 650 l 1
 750 400 l 1
 500 400 l 1
 500 150 l 1
 250 150 l 1
 250 400 l 1
 0 400 l 1
 0 650 l 1
 250 650 l 1
500 400 m 1
 500 650 l 1
 250 650 l 1
 250 400 l 1
 500 400 l 1
EndSplineSet
EndChar

StartChar: uniE153
Encoding: 57683 57683 110
Width: 1000
Flags: W
LayerCount: 2
Fore
SplineSet
500 1150 m 1
 500 1400 l 1
 750 1400 l 1
 750 900 l 1
 500 900 l 1
 500 650 l 1
 750 650 l 1
 750 400 l 1
 500 400 l 1
 500 150 l 1
 250 150 l 1
 250 400 l 1
 0 400 l 1
 0 650 l 1
 250 650 l 1
 250 1150 l 1
 500 1150 l 1
500 400 m 1
 500 650 l 1
 250 650 l 1
 250 400 l 1
 500 400 l 1
EndSplineSet
EndChar

StartChar: uniE154
Encoding: 57684 57684 111
Width: 1000
Flags: W
LayerCount: 2
Fore
SplineSet
250 650 m 1
 250 1150 l 1
 500 1150 l 1
 500 650 l 1
 750 650 l 1
 750 400 l 1
 500 400 l 1
 500 150 l 1
 250 150 l 1
 250 -350 l 1
 0 -350 l 1
 0 150 l 1
 250 150 l 1
 250 400 l 1
 0 400 l 1
 0 650 l 1
 250 650 l 1
500 400 m 1
 500 650 l 1
 250 650 l 1
 250 400 l 1
 500 400 l 1
EndSplineSet
EndChar

StartChar: uniE155
Encoding: 57685 57685 112
Width: 1000
Flags: W
LayerCount: 2
Fore
SplineSet
250 650 m 1
 250 1150 l 1
 500 1150 l 1
 500 650 l 1
 750 650 l 1
 750 400 l 1
 500 400 l 1
 500 -350 l 1
 250 -350 l 1
 250 400 l 1
 0 400 l 1
 0 650 l 1
 250 650 l 1
500 400 m 1
 500 650 l 1
 250 650 l 1
 250 400 l 1
 500 400 l 1
EndSplineSet
EndChar

StartChar: uniE156
Encoding: 57686 57686 113
Width: 1000
Flags: W
LayerCount: 2
Fore
SplineSet
250 650 m 1
 250 1150 l 1
 500 1150 l 1
 500 650 l 1
 750 650 l 1
 750 400 l 1
 500 400 l 1
 500 150 l 1
 750 150 l 1
 750 -350 l 1
 500 -350 l 1
 500 150 l 1
 250 150 l 1
 250 400 l 1
 0 400 l 1
 0 650 l 1
 250 650 l 1
500 400 m 1
 500 650 l 1
 250 650 l 1
 250 400 l 1
 500 400 l 1
EndSplineSet
EndChar

StartChar: uniE159
Encoding: 57689 57689 114
Width: 1000
Flags: W
LayerCount: 2
Fore
SplineSet
0 900 m 1
 0 1400 l 1
 250 1400 l 1
 250 900 l 1
 500 900 l 1
 500 1150 l 1
 750 1150 l 1
 750 900 l 1
 500 900 l 1
 500 650 l 1
 750 650 l 1
 750 400 l 1
 500 400 l 1
 500 150 l 1
 250 150 l 1
 250 400 l 1
 0 400 l 1
 0 650 l 1
 250 650 l 1
 250 900 l 1
 0 900 l 1
500 400 m 1
 500 650 l 1
 250 650 l 1
 250 400 l 1
 500 400 l 1
EndSplineSet
EndChar

StartChar: uniE15A
Encoding: 57690 57690 115
Width: 1000
Flags: W
LayerCount: 2
Fore
SplineSet
250 650 m 1
 250 1400 l 1
 500 1400 l 1
 500 1150 l 1
 750 1150 l 1
 750 900 l 1
 500 900 l 1
 500 650 l 1
 750 650 l 1
 750 400 l 1
 500 400 l 1
 500 150 l 1
 250 150 l 1
 250 400 l 1
 0 400 l 1
 0 650 l 1
 250 650 l 1
500 400 m 1
 500 650 l 1
 250 650 l 1
 250 400 l 1
 500 400 l 1
EndSplineSet
EndChar

StartChar: uniE15B
Encoding: 57691 57691 116
Width: 1000
Flags: W
LayerCount: 2
Fore
SplineSet
500 900 m 1
 500 1400 l 1
 750 1400 l 1
 750 900 l 1
 500 900 l 1
 500 650 l 1
 750 650 l 1
 750 400 l 1
 500 400 l 1
 500 150 l 1
 250 150 l 1
 250 400 l 1
 0 400 l 1
 0 650 l 1
 250 650 l 1
 250 900 l 1
 500 900 l 1
500 400 m 1
 500 650 l 1
 250 650 l 1
 250 400 l 1
 500 400 l 1
EndSplineSet
EndChar

StartChar: uniE15C
Encoding: 57692 57692 117
Width: 1000
Flags: W
LayerCount: 2
Fore
SplineSet
500 900 m 1
 500 1150 l 1
 750 1150 l 1
 750 900 l 1
 500 900 l 1
 500 650 l 1
 750 650 l 1
 750 400 l 1
 500 400 l 1
 500 150 l 1
 250 150 l 1
 250 -350 l 1
 0 -350 l 1
 0 150 l 1
 250 150 l 1
 250 400 l 1
 0 400 l 1
 0 650 l 1
 250 650 l 1
 250 900 l 1
 500 900 l 1
500 400 m 1
 500 650 l 1
 250 650 l 1
 250 400 l 1
 500 400 l 1
EndSplineSet
EndChar

StartChar: uniE15D
Encoding: 57693 57693 118
Width: 1000
Flags: W
LayerCount: 2
Fore
SplineSet
500 900 m 1
 500 1150 l 1
 750 1150 l 1
 750 900 l 1
 500 900 l 1
 500 650 l 1
 750 650 l 1
 750 400 l 1
 500 400 l 1
 500 -350 l 1
 250 -350 l 1
 250 400 l 1
 0 400 l 1
 0 650 l 1
 250 650 l 1
 250 900 l 1
 500 900 l 1
500 400 m 1
 500 650 l 1
 250 650 l 1
 250 400 l 1
 500 400 l 1
EndSplineSet
EndChar

StartChar: uniE15E
Encoding: 57694 57694 119
Width: 1000
Flags: W
LayerCount: 2
Fore
SplineSet
500 900 m 1
 500 1150 l 1
 750 1150 l 1
 750 900 l 1
 500 900 l 1
 500 650 l 1
 750 650 l 1
 750 400 l 1
 500 400 l 1
 500 150 l 1
 750 150 l 1
 750 -350 l 1
 500 -350 l 1
 500 150 l 1
 250 150 l 1
 250 400 l 1
 0 400 l 1
 0 650 l 1
 250 650 l 1
 250 900 l 1
 500 900 l 1
500 400 m 1
 500 650 l 1
 250 650 l 1
 250 400 l 1
 500 400 l 1
EndSplineSet
EndChar

StartChar: uniE161
Encoding: 57697 57697 120
Width: 1000
Flags: W
LayerCount: 2
Fore
SplineSet
0 900 m 1
 0 1400 l 1
 250 1400 l 1
 250 900 l 1
 500 900 l 1
 500 650 l 1
 750 650 l 1
 750 400 l 1
 500 400 l 1
 500 150 l 1
 250 150 l 1
 250 -100 l 1
 0 -100 l 1
 0 150 l 1
 250 150 l 1
 250 400 l 1
 0 400 l 1
 0 650 l 1
 250 650 l 1
 250 900 l 1
 0 900 l 1
500 400 m 1
 500 650 l 1
 250 650 l 1
 250 400 l 1
 500 400 l 1
EndSplineSet
EndChar

StartChar: uniE162
Encoding: 57698 57698 121
Width: 1000
Flags: W
LayerCount: 2
Fore
SplineSet
250 650 m 1
 250 1400 l 1
 500 1400 l 1
 500 650 l 1
 750 650 l 1
 750 400 l 1
 500 400 l 1
 500 150 l 1
 250 150 l 1
 250 -100 l 1
 0 -100 l 1
 0 150 l 1
 250 150 l 1
 250 400 l 1
 0 400 l 1
 0 650 l 1
 250 650 l 1
500 400 m 1
 500 650 l 1
 250 650 l 1
 250 400 l 1
 500 400 l 1
EndSplineSet
EndChar

StartChar: uniE163
Encoding: 57699 57699 122
Width: 1000
Flags: W
LayerCount: 2
Fore
SplineSet
500 900 m 1
 500 1400 l 1
 750 1400 l 1
 750 900 l 1
 500 900 l 1
 500 650 l 1
 750 650 l 1
 750 400 l 1
 500 400 l 1
 500 150 l 1
 250 150 l 1
 250 -100 l 1
 0 -100 l 1
 0 150 l 1
 250 150 l 1
 250 400 l 1
 0 400 l 1
 0 650 l 1
 250 650 l 1
 250 900 l 1
 500 900 l 1
500 400 m 1
 500 650 l 1
 250 650 l 1
 250 400 l 1
 500 400 l 1
EndSplineSet
EndChar

StartChar: uniE164
Encoding: 57700 57700 123
Width: 1000
Flags: W
LayerCount: 2
Fore
SplineSet
250 650 m 1
 250 900 l 1
 500 900 l 1
 500 650 l 1
 750 650 l 1
 750 400 l 1
 500 400 l 1
 500 150 l 1
 250 150 l 1
 250 -350 l 1
 0 -350 l 1
 0 150 l 1
 250 150 l 1
 250 400 l 1
 0 400 l 1
 0 650 l 1
 250 650 l 1
500 400 m 1
 500 650 l 1
 250 650 l 1
 250 400 l 1
 500 400 l 1
EndSplineSet
EndChar

StartChar: uniE165
Encoding: 57701 57701 124
Width: 1000
Flags: W
LayerCount: 2
Fore
SplineSet
250 650 m 1
 250 900 l 1
 500 900 l 1
 500 650 l 1
 750 650 l 1
 750 400 l 1
 500 400 l 1
 500 -350 l 1
 250 -350 l 1
 250 -100 l 1
 0 -100 l 1
 0 150 l 1
 250 150 l 1
 250 400 l 1
 0 400 l 1
 0 650 l 1
 250 650 l 1
500 400 m 1
 500 650 l 1
 250 650 l 1
 250 400 l 1
 500 400 l 1
EndSplineSet
EndChar

StartChar: uniE166
Encoding: 57702 57702 125
Width: 1000
Flags: W
LayerCount: 2
Fore
SplineSet
250 650 m 1
 250 900 l 1
 500 900 l 1
 500 650 l 1
 750 650 l 1
 750 400 l 1
 500 400 l 1
 500 150 l 1
 750 150 l 1
 750 -350 l 1
 500 -350 l 1
 500 150 l 1
 250 150 l 1
 250 -100 l 1
 0 -100 l 1
 0 150 l 1
 250 150 l 1
 250 400 l 1
 0 400 l 1
 0 650 l 1
 250 650 l 1
500 400 m 1
 500 650 l 1
 250 650 l 1
 250 400 l 1
 500 400 l 1
EndSplineSet
EndChar

StartChar: uniE169
Encoding: 57705 57705 126
Width: 1000
Flags: W
LayerCount: 2
Fore
SplineSet
0 900 m 1
 0 1400 l 1
 250 1400 l 1
 250 900 l 1
 500 900 l 1
 500 650 l 1
 750 650 l 1
 750 400 l 1
 500 400 l 1
 500 -100 l 1
 250 -100 l 1
 250 400 l 1
 0 400 l 1
 0 650 l 1
 250 650 l 1
 250 900 l 1
 0 900 l 1
500 400 m 1
 500 650 l 1
 250 650 l 1
 250 400 l 1
 500 400 l 1
EndSplineSet
EndChar

StartChar: uniE16A
Encoding: 57706 57706 127
Width: 1000
Flags: W
LayerCount: 2
Fore
SplineSet
250 650 m 1
 250 1400 l 1
 500 1400 l 1
 500 650 l 1
 750 650 l 1
 750 400 l 1
 500 400 l 1
 500 -100 l 1
 250 -100 l 1
 250 400 l 1
 0 400 l 1
 0 650 l 1
 250 650 l 1
500 400 m 1
 500 650 l 1
 250 650 l 1
 250 400 l 1
 500 400 l 1
EndSplineSet
EndChar

StartChar: uniE16B
Encoding: 57707 57707 128
Width: 1000
Flags: W
LayerCount: 2
Fore
SplineSet
500 900 m 1
 500 1400 l 1
 750 1400 l 1
 750 900 l 1
 500 900 l 1
 500 650 l 1
 750 650 l 1
 750 400 l 1
 500 400 l 1
 500 -100 l 1
 250 -100 l 1
 250 400 l 1
 0 400 l 1
 0 650 l 1
 250 650 l 1
 250 900 l 1
 500 900 l 1
500 400 m 1
 500 650 l 1
 250 650 l 1
 250 400 l 1
 500 400 l 1
EndSplineSet
EndChar

StartChar: uniE16C
Encoding: 57708 57708 129
Width: 1000
Flags: W
LayerCount: 2
Fore
SplineSet
250 650 m 1
 250 900 l 1
 500 900 l 1
 500 650 l 1
 750 650 l 1
 750 400 l 1
 500 400 l 1
 500 -100 l 1
 250 -100 l 1
 250 -350 l 1
 0 -350 l 1
 0 150 l 1
 250 150 l 1
 250 400 l 1
 0 400 l 1
 0 650 l 1
 250 650 l 1
500 400 m 1
 500 650 l 1
 250 650 l 1
 250 400 l 1
 500 400 l 1
EndSplineSet
EndChar

StartChar: uniE16D
Encoding: 57709 57709 130
Width: 1000
Flags: W
LayerCount: 2
Fore
SplineSet
250 650 m 1
 250 900 l 1
 500 900 l 1
 500 650 l 1
 750 650 l 1
 750 400 l 1
 500 400 l 1
 500 -350 l 1
 250 -350 l 1
 250 400 l 1
 0 400 l 1
 0 650 l 1
 250 650 l 1
500 400 m 1
 500 650 l 1
 250 650 l 1
 250 400 l 1
 500 400 l 1
EndSplineSet
EndChar

StartChar: uniE16E
Encoding: 57710 57710 131
Width: 1000
Flags: W
LayerCount: 2
Fore
SplineSet
250 650 m 1
 250 900 l 1
 500 900 l 1
 500 650 l 1
 750 650 l 1
 750 400 l 1
 500 400 l 1
 500 150 l 1
 750 150 l 1
 750 -350 l 1
 500 -350 l 1
 500 -100 l 1
 250 -100 l 1
 250 400 l 1
 0 400 l 1
 0 650 l 1
 250 650 l 1
500 400 m 1
 500 650 l 1
 250 650 l 1
 250 400 l 1
 500 400 l 1
EndSplineSet
EndChar

StartChar: uniE171
Encoding: 57713 57713 132
Width: 1000
Flags: W
LayerCount: 2
Fore
SplineSet
0 900 m 1
 0 1400 l 1
 250 1400 l 1
 250 900 l 1
 500 900 l 1
 500 650 l 1
 750 650 l 1
 750 400 l 1
 500 400 l 1
 500 150 l 1
 750 150 l 1
 750 -100 l 1
 500 -100 l 1
 500 150 l 1
 250 150 l 1
 250 400 l 1
 0 400 l 1
 0 650 l 1
 250 650 l 1
 250 900 l 1
 0 900 l 1
500 400 m 1
 500 650 l 1
 250 650 l 1
 250 400 l 1
 500 400 l 1
EndSplineSet
EndChar

StartChar: uniE172
Encoding: 57714 57714 133
Width: 1000
Flags: W
LayerCount: 2
Fore
SplineSet
250 650 m 1
 250 1400 l 1
 500 1400 l 1
 500 650 l 1
 750 650 l 1
 750 400 l 1
 500 400 l 1
 500 150 l 1
 750 150 l 1
 750 -100 l 1
 500 -100 l 1
 500 150 l 1
 250 150 l 1
 250 400 l 1
 0 400 l 1
 0 650 l 1
 250 650 l 1
500 400 m 1
 500 650 l 1
 250 650 l 1
 250 400 l 1
 500 400 l 1
EndSplineSet
EndChar

StartChar: uniE173
Encoding: 57715 57715 134
Width: 1000
Flags: W
LayerCount: 2
Fore
SplineSet
500 900 m 1
 500 1400 l 1
 750 1400 l 1
 750 900 l 1
 500 900 l 1
 500 650 l 1
 750 650 l 1
 750 400 l 1
 500 400 l 1
 500 150 l 1
 750 150 l 1
 750 -100 l 1
 500 -100 l 1
 500 150 l 1
 250 150 l 1
 250 400 l 1
 0 400 l 1
 0 650 l 1
 250 650 l 1
 250 900 l 1
 500 900 l 1
500 400 m 1
 500 650 l 1
 250 650 l 1
 250 400 l 1
 500 400 l 1
EndSplineSet
EndChar

StartChar: uniE174
Encoding: 57716 57716 135
Width: 1000
Flags: W
LayerCount: 2
Fore
SplineSet
250 650 m 1
 250 900 l 1
 500 900 l 1
 500 650 l 1
 750 650 l 1
 750 400 l 1
 500 400 l 1
 500 150 l 1
 750 150 l 1
 750 -100 l 1
 500 -100 l 1
 500 150 l 1
 250 150 l 1
 250 -350 l 1
 0 -350 l 1
 0 150 l 1
 250 150 l 1
 250 400 l 1
 0 400 l 1
 0 650 l 1
 250 650 l 1
500 400 m 1
 500 650 l 1
 250 650 l 1
 250 400 l 1
 500 400 l 1
EndSplineSet
EndChar

StartChar: uniE175
Encoding: 57717 57717 136
Width: 1000
Flags: W
LayerCount: 2
Fore
SplineSet
250 650 m 1
 250 900 l 1
 500 900 l 1
 500 650 l 1
 750 650 l 1
 750 400 l 1
 500 400 l 1
 500 150 l 1
 750 150 l 1
 750 -100 l 1
 500 -100 l 1
 500 -350 l 1
 250 -350 l 1
 250 400 l 1
 0 400 l 1
 0 650 l 1
 250 650 l 1
500 400 m 1
 500 650 l 1
 250 650 l 1
 250 400 l 1
 500 400 l 1
EndSplineSet
EndChar

StartChar: uniE176
Encoding: 57718 57718 137
Width: 1000
Flags: W
LayerCount: 2
Fore
SplineSet
250 650 m 1
 250 900 l 1
 500 900 l 1
 500 650 l 1
 750 650 l 1
 750 400 l 1
 500 400 l 1
 500 150 l 1
 750 150 l 1
 750 -350 l 1
 500 -350 l 1
 500 150 l 1
 250 150 l 1
 250 400 l 1
 0 400 l 1
 0 650 l 1
 250 650 l 1
500 400 m 1
 500 650 l 1
 250 650 l 1
 250 400 l 1
 500 400 l 1
EndSplineSet
EndChar

StartChar: uniE180
Encoding: 57728 57728 138
Width: 1000
Flags: W
LayerCount: 2
Fore
SplineSet
0 150 m 1
 0 900 l 1
 750 900 l 1
 750 150 l 1
 0 150 l 1
EndSplineSet
EndChar

StartChar: uniE181
Encoding: 57729 57729 139
Width: 1000
Flags: W
LayerCount: 2
Fore
SplineSet
0 150 m 1
 0 1150 l 1
 250 1150 l 1
 250 900 l 1
 750 900 l 1
 750 150 l 1
 0 150 l 1
EndSplineSet
EndChar

StartChar: uniE182
Encoding: 57730 57730 140
Width: 1000
Flags: W
LayerCount: 2
Fore
SplineSet
250 900 m 1
 250 1150 l 1
 500 1150 l 1
 500 900 l 1
 750 900 l 1
 750 150 l 1
 0 150 l 1
 0 900 l 1
 250 900 l 1
EndSplineSet
EndChar

StartChar: uniE183
Encoding: 57731 57731 141
Width: 1000
Flags: W
LayerCount: 2
Fore
SplineSet
500 900 m 1
 500 1150 l 1
 750 1150 l 1
 750 150 l 1
 0 150 l 1
 0 900 l 1
 500 900 l 1
EndSplineSet
EndChar

StartChar: uniE184
Encoding: 57732 57732 142
Width: 1000
Flags: W
LayerCount: 2
Fore
SplineSet
0 -100 m 1
 0 900 l 1
 750 900 l 1
 750 150 l 1
 250 150 l 1
 250 -100 l 1
 0 -100 l 1
EndSplineSet
EndChar

StartChar: uniE185
Encoding: 57733 57733 143
Width: 1000
Flags: W
LayerCount: 2
Fore
SplineSet
0 150 m 1
 0 900 l 1
 750 900 l 1
 750 150 l 1
 500 150 l 1
 500 -100 l 1
 250 -100 l 1
 250 150 l 1
 0 150 l 1
EndSplineSet
EndChar

StartChar: uniE186
Encoding: 57734 57734 144
Width: 1000
Flags: W
LayerCount: 2
Fore
SplineSet
0 150 m 1
 0 900 l 1
 750 900 l 1
 750 -100 l 1
 500 -100 l 1
 500 150 l 1
 0 150 l 1
EndSplineSet
EndChar

StartChar: uniE189
Encoding: 57737 57737 145
Width: 1000
Flags: W
LayerCount: 2
Fore
SplineSet
0 150 m 1
 0 1400 l 1
 250 1400 l 1
 250 900 l 1
 750 900 l 1
 750 150 l 1
 0 150 l 1
EndSplineSet
EndChar

StartChar: uniE18A
Encoding: 57738 57738 146
Width: 1000
Flags: W
LayerCount: 2
Fore
SplineSet
250 1150 m 1
 250 1400 l 1
 500 1400 l 1
 500 900 l 1
 750 900 l 1
 750 150 l 1
 0 150 l 1
 0 1150 l 1
 250 1150 l 1
EndSplineSet
EndChar

StartChar: uniE18B
Encoding: 57739 57739 147
Width: 1000
Flags: W
LayerCount: 2
Fore
SplineSet
500 900 m 1
 500 1400 l 1
 750 1400 l 1
 750 150 l 1
 0 150 l 1
 0 1150 l 1
 250 1150 l 1
 250 900 l 1
 500 900 l 1
EndSplineSet
EndChar

StartChar: uniE18C
Encoding: 57740 57740 148
Width: 1000
Flags: W
LayerCount: 2
Fore
SplineSet
0 -350 m 1
 0 1150 l 1
 250 1150 l 1
 250 900 l 1
 750 900 l 1
 750 150 l 1
 250 150 l 1
 250 -350 l 1
 0 -350 l 1
EndSplineSet
EndChar

StartChar: uniE18D
Encoding: 57741 57741 149
Width: 1000
Flags: W
LayerCount: 2
Fore
SplineSet
0 150 m 1
 0 1150 l 1
 250 1150 l 1
 250 900 l 1
 750 900 l 1
 750 150 l 1
 500 150 l 1
 500 -350 l 1
 250 -350 l 1
 250 150 l 1
 0 150 l 1
EndSplineSet
EndChar

StartChar: uniE18E
Encoding: 57742 57742 150
Width: 1000
Flags: W
LayerCount: 2
Fore
SplineSet
0 150 m 1
 0 1150 l 1
 250 1150 l 1
 250 900 l 1
 750 900 l 1
 750 -350 l 1
 500 -350 l 1
 500 150 l 1
 0 150 l 1
EndSplineSet
EndChar

StartChar: uniE191
Encoding: 57745 57745 151
Width: 1000
Flags: W
LayerCount: 2
Fore
SplineSet
0 150 m 1
 0 1400 l 1
 250 1400 l 1
 250 1150 l 1
 500 1150 l 1
 500 900 l 1
 750 900 l 1
 750 150 l 1
 0 150 l 1
EndSplineSet
EndChar

StartChar: uniE192
Encoding: 57746 57746 152
Width: 1000
Flags: W
LayerCount: 2
Fore
SplineSet
250 900 m 1
 250 1400 l 1
 500 1400 l 1
 500 900 l 1
 750 900 l 1
 750 150 l 1
 0 150 l 1
 0 900 l 1
 250 900 l 1
EndSplineSet
EndChar

StartChar: uniE193
Encoding: 57747 57747 153
Width: 1000
Flags: W
LayerCount: 2
Fore
SplineSet
500 1150 m 1
 500 1400 l 1
 750 1400 l 1
 750 150 l 1
 0 150 l 1
 0 900 l 1
 250 900 l 1
 250 1150 l 1
 500 1150 l 1
EndSplineSet
EndChar

StartChar: uniE194
Encoding: 57748 57748 154
Width: 1000
Flags: W
LayerCount: 2
Fore
SplineSet
250 900 m 1
 250 1150 l 1
 500 1150 l 1
 500 900 l 1
 750 900 l 1
 750 150 l 1
 250 150 l 1
 250 -350 l 1
 0 -350 l 1
 0 900 l 1
 250 900 l 1
EndSplineSet
EndChar

StartChar: uniE195
Encoding: 57749 57749 155
Width: 1000
Flags: W
LayerCount: 2
Fore
SplineSet
250 900 m 1
 250 1150 l 1
 500 1150 l 1
 500 900 l 1
 750 900 l 1
 750 150 l 1
 500 150 l 1
 500 -350 l 1
 250 -350 l 1
 250 150 l 1
 0 150 l 1
 0 900 l 1
 250 900 l 1
EndSplineSet
EndChar

StartChar: uniE196
Encoding: 57750 57750 156
Width: 1000
Flags: W
LayerCount: 2
Fore
SplineSet
250 900 m 1
 250 1150 l 1
 500 1150 l 1
 500 900 l 1
 750 900 l 1
 750 -350 l 1
 500 -350 l 1
 500 150 l 1
 0 150 l 1
 0 900 l 1
 250 900 l 1
EndSplineSet
EndChar

StartChar: uniE199
Encoding: 57753 57753 157
Width: 1000
Flags: W
LayerCount: 2
Fore
SplineSet
0 150 m 1
 0 1400 l 1
 250 1400 l 1
 250 900 l 1
 500 900 l 1
 500 1150 l 1
 750 1150 l 1
 750 150 l 1
 0 150 l 1
EndSplineSet
EndChar

StartChar: uniE19A
Encoding: 57754 57754 158
Width: 1000
Flags: W
LayerCount: 2
Fore
SplineSet
250 900 m 1
 250 1400 l 1
 500 1400 l 1
 500 1150 l 1
 750 1150 l 1
 750 150 l 1
 0 150 l 1
 0 900 l 1
 250 900 l 1
EndSplineSet
EndChar

StartChar: uniE19B
Encoding: 57755 57755 159
Width: 1000
Flags: W
LayerCount: 2
Fore
SplineSet
500 900 m 1
 500 1400 l 1
 750 1400 l 1
 750 150 l 1
 0 150 l 1
 0 900 l 1
 500 900 l 1
EndSplineSet
EndChar

StartChar: uniE19C
Encoding: 57756 57756 160
Width: 1000
Flags: W
LayerCount: 2
Fore
SplineSet
500 900 m 1
 500 1150 l 1
 750 1150 l 1
 750 150 l 1
 250 150 l 1
 250 -350 l 1
 0 -350 l 1
 0 900 l 1
 500 900 l 1
EndSplineSet
EndChar

StartChar: uniE19D
Encoding: 57757 57757 161
Width: 1000
Flags: W
LayerCount: 2
Fore
SplineSet
500 900 m 1
 500 1150 l 1
 750 1150 l 1
 750 150 l 1
 500 150 l 1
 500 -350 l 1
 250 -350 l 1
 250 150 l 1
 0 150 l 1
 0 900 l 1
 500 900 l 1
EndSplineSet
EndChar

StartChar: uniE19E
Encoding: 57758 57758 162
Width: 1000
Flags: W
LayerCount: 2
Fore
SplineSet
500 900 m 1
 500 1150 l 1
 750 1150 l 1
 750 -350 l 1
 500 -350 l 1
 500 150 l 1
 0 150 l 1
 0 900 l 1
 500 900 l 1
EndSplineSet
EndChar

StartChar: uniE1A1
Encoding: 57761 57761 163
Width: 1000
Flags: W
LayerCount: 2
Fore
SplineSet
0 -100 m 1
 0 1400 l 1
 250 1400 l 1
 250 900 l 1
 750 900 l 1
 750 150 l 1
 250 150 l 1
 250 -100 l 1
 0 -100 l 1
EndSplineSet
EndChar

StartChar: uniE1A2
Encoding: 57762 57762 164
Width: 1000
Flags: W
LayerCount: 2
Fore
SplineSet
250 900 m 1
 250 1400 l 1
 500 1400 l 1
 500 900 l 1
 750 900 l 1
 750 150 l 1
 250 150 l 1
 250 -100 l 1
 0 -100 l 1
 0 900 l 1
 250 900 l 1
EndSplineSet
EndChar

StartChar: uniE1A3
Encoding: 57763 57763 165
Width: 1000
Flags: W
LayerCount: 2
Fore
SplineSet
500 900 m 1
 500 1400 l 1
 750 1400 l 1
 750 150 l 1
 250 150 l 1
 250 -100 l 1
 0 -100 l 1
 0 900 l 1
 500 900 l 1
EndSplineSet
EndChar

StartChar: uniE1A4
Encoding: 57764 57764 166
Width: 1000
Flags: W
LayerCount: 2
Fore
SplineSet
0 -350 m 1
 0 900 l 1
 750 900 l 1
 750 150 l 1
 250 150 l 1
 250 -350 l 1
 0 -350 l 1
EndSplineSet
EndChar

StartChar: uniE1A5
Encoding: 57765 57765 167
Width: 1000
Flags: W
LayerCount: 2
Fore
SplineSet
0 -100 m 1
 0 900 l 1
 750 900 l 1
 750 150 l 1
 500 150 l 1
 500 -350 l 1
 250 -350 l 1
 250 -100 l 1
 0 -100 l 1
EndSplineSet
EndChar

StartChar: uniE1A6
Encoding: 57766 57766 168
Width: 1000
Flags: W
LayerCount: 2
Fore
SplineSet
0 -100 m 1
 0 900 l 1
 750 900 l 1
 750 -350 l 1
 500 -350 l 1
 500 150 l 1
 250 150 l 1
 250 -100 l 1
 0 -100 l 1
EndSplineSet
EndChar

StartChar: uniE1A9
Encoding: 57769 57769 169
Width: 1000
Flags: W
LayerCount: 2
Fore
SplineSet
0 150 m 1
 0 1400 l 1
 250 1400 l 1
 250 900 l 1
 750 900 l 1
 750 150 l 1
 500 150 l 1
 500 -100 l 1
 250 -100 l 1
 250 150 l 1
 0 150 l 1
EndSplineSet
EndChar

StartChar: uniE1AA
Encoding: 57770 57770 170
Width: 1000
Flags: W
LayerCount: 2
Fore
SplineSet
250 900 m 1
 250 1400 l 1
 500 1400 l 1
 500 900 l 1
 750 900 l 1
 750 150 l 1
 500 150 l 1
 500 -100 l 1
 250 -100 l 1
 250 150 l 1
 0 150 l 1
 0 900 l 1
 250 900 l 1
EndSplineSet
EndChar

StartChar: uniE1AB
Encoding: 57771 57771 171
Width: 1000
Flags: W
LayerCount: 2
Fore
SplineSet
500 900 m 1
 500 1400 l 1
 750 1400 l 1
 750 150 l 1
 500 150 l 1
 500 -100 l 1
 250 -100 l 1
 250 150 l 1
 0 150 l 1
 0 900 l 1
 500 900 l 1
EndSplineSet
EndChar

StartChar: uniE1AC
Encoding: 57772 57772 172
Width: 1000
Flags: W
LayerCount: 2
Fore
SplineSet
0 -350 m 1
 0 900 l 1
 750 900 l 1
 750 150 l 1
 500 150 l 1
 500 -100 l 1
 250 -100 l 1
 250 -350 l 1
 0 -350 l 1
EndSplineSet
EndChar

StartChar: uniE1AD
Encoding: 57773 57773 173
Width: 1000
Flags: W
LayerCount: 2
Fore
SplineSet
0 150 m 1
 0 900 l 1
 750 900 l 1
 750 150 l 1
 500 150 l 1
 500 -350 l 1
 250 -350 l 1
 250 150 l 1
 0 150 l 1
EndSplineSet
EndChar

StartChar: uniE1AE
Encoding: 57774 57774 174
Width: 1000
Flags: W
LayerCount: 2
Fore
SplineSet
0 150 m 1
 0 900 l 1
 750 900 l 1
 750 -350 l 1
 500 -350 l 1
 500 -100 l 1
 250 -100 l 1
 250 150 l 1
 0 150 l 1
EndSplineSet
EndChar

StartChar: uniE1B1
Encoding: 57777 57777 175
Width: 1000
Flags: W
LayerCount: 2
Fore
SplineSet
0 150 m 1
 0 1400 l 1
 250 1400 l 1
 250 900 l 1
 750 900 l 1
 750 -100 l 1
 500 -100 l 1
 500 150 l 1
 0 150 l 1
EndSplineSet
EndChar

StartChar: uniE1B2
Encoding: 57778 57778 176
Width: 1000
Flags: W
LayerCount: 2
Fore
SplineSet
250 900 m 1
 250 1400 l 1
 500 1400 l 1
 500 900 l 1
 750 900 l 1
 750 -100 l 1
 500 -100 l 1
 500 150 l 1
 0 150 l 1
 0 900 l 1
 250 900 l 1
EndSplineSet
EndChar

StartChar: uniE1B3
Encoding: 57779 57779 177
Width: 1000
Flags: W
LayerCount: 2
Fore
SplineSet
500 900 m 1
 500 1400 l 1
 750 1400 l 1
 750 -100 l 1
 500 -100 l 1
 500 150 l 1
 0 150 l 1
 0 900 l 1
 500 900 l 1
EndSplineSet
EndChar

StartChar: uniE1B4
Encoding: 57780 57780 178
Width: 1000
Flags: W
LayerCount: 2
Fore
SplineSet
0 -350 m 1
 0 900 l 1
 750 900 l 1
 750 -100 l 1
 500 -100 l 1
 500 150 l 1
 250 150 l 1
 250 -350 l 1
 0 -350 l 1
EndSplineSet
EndChar

StartChar: uniE1B5
Encoding: 57781 57781 179
Width: 1000
Flags: W
LayerCount: 2
Fore
SplineSet
0 150 m 1
 0 900 l 1
 750 900 l 1
 750 -100 l 1
 500 -100 l 1
 500 -350 l 1
 250 -350 l 1
 250 150 l 1
 0 150 l 1
EndSplineSet
EndChar

StartChar: uniE1B6
Encoding: 57782 57782 180
Width: 1000
Flags: W
LayerCount: 2
Fore
SplineSet
0 150 m 1
 0 900 l 1
 750 900 l 1
 750 -350 l 1
 500 -350 l 1
 500 150 l 1
 0 150 l 1
EndSplineSet
EndChar

StartChar: uniE1C0
Encoding: 57792 57792 181
Width: 1000
Flags: W
LayerCount: 2
Fore
SplineSet
250 650 m 1
 250 900 l 1
 500 900 l 1
 500 650 l 1
 750 650 l 1
 750 400 l 1
 500 400 l 1
 500 150 l 1
 250 150 l 1
 250 400 l 1
 0 400 l 1
 0 650 l 1
 250 650 l 1
EndSplineSet
EndChar

StartChar: uniE1C1
Encoding: 57793 57793 182
Width: 1000
Flags: W
LayerCount: 2
Fore
SplineSet
0 900 m 1
 0 1150 l 1
 250 1150 l 1
 250 900 l 1
 500 900 l 1
 500 650 l 1
 750 650 l 1
 750 400 l 1
 500 400 l 1
 500 150 l 1
 250 150 l 1
 250 400 l 1
 0 400 l 1
 0 650 l 1
 250 650 l 1
 250 900 l 1
 0 900 l 1
EndSplineSet
EndChar

StartChar: uniE1C2
Encoding: 57794 57794 183
Width: 1000
Flags: W
LayerCount: 2
Fore
SplineSet
250 650 m 1
 250 1150 l 1
 500 1150 l 1
 500 650 l 1
 750 650 l 1
 750 400 l 1
 500 400 l 1
 500 150 l 1
 250 150 l 1
 250 400 l 1
 0 400 l 1
 0 650 l 1
 250 650 l 1
EndSplineSet
EndChar

StartChar: uniE1C3
Encoding: 57795 57795 184
Width: 1000
Flags: W
LayerCount: 2
Fore
SplineSet
500 900 m 1
 500 1150 l 1
 750 1150 l 1
 750 900 l 1
 500 900 l 1
 500 650 l 1
 750 650 l 1
 750 400 l 1
 500 400 l 1
 500 150 l 1
 250 150 l 1
 250 400 l 1
 0 400 l 1
 0 650 l 1
 250 650 l 1
 250 900 l 1
 500 900 l 1
EndSplineSet
EndChar

StartChar: uniE1C4
Encoding: 57796 57796 185
Width: 1000
Flags: W
LayerCount: 2
Fore
SplineSet
250 650 m 1
 250 900 l 1
 500 900 l 1
 500 650 l 1
 750 650 l 1
 750 400 l 1
 500 400 l 1
 500 150 l 1
 250 150 l 1
 250 -100 l 1
 0 -100 l 1
 0 150 l 1
 250 150 l 1
 250 400 l 1
 0 400 l 1
 0 650 l 1
 250 650 l 1
EndSplineSet
EndChar

StartChar: uniE1C5
Encoding: 57797 57797 186
Width: 1000
Flags: W
LayerCount: 2
Fore
SplineSet
250 650 m 1
 250 900 l 1
 500 900 l 1
 500 650 l 1
 750 650 l 1
 750 400 l 1
 500 400 l 1
 500 -100 l 1
 250 -100 l 1
 250 400 l 1
 0 400 l 1
 0 650 l 1
 250 650 l 1
EndSplineSet
EndChar

StartChar: uniE1C6
Encoding: 57798 57798 187
Width: 1000
Flags: W
LayerCount: 2
Fore
SplineSet
250 650 m 1
 250 900 l 1
 500 900 l 1
 500 650 l 1
 750 650 l 1
 750 400 l 1
 500 400 l 1
 500 150 l 1
 750 150 l 1
 750 -100 l 1
 500 -100 l 1
 500 150 l 1
 250 150 l 1
 250 400 l 1
 0 400 l 1
 0 650 l 1
 250 650 l 1
EndSplineSet
EndChar

StartChar: uniE1C9
Encoding: 57801 57801 188
Width: 1000
Flags: W
LayerCount: 2
Fore
SplineSet
0 900 m 1
 0 1400 l 1
 250 1400 l 1
 250 900 l 1
 500 900 l 1
 500 650 l 1
 750 650 l 1
 750 400 l 1
 500 400 l 1
 500 150 l 1
 250 150 l 1
 250 400 l 1
 0 400 l 1
 0 650 l 1
 250 650 l 1
 250 900 l 1
 0 900 l 1
EndSplineSet
EndChar

StartChar: uniE1CA
Encoding: 57802 57802 189
Width: 1000
Flags: W
LayerCount: 2
Fore
SplineSet
250 1150 m 1
 250 1400 l 1
 500 1400 l 1
 500 650 l 1
 750 650 l 1
 750 400 l 1
 500 400 l 1
 500 150 l 1
 250 150 l 1
 250 400 l 1
 0 400 l 1
 0 650 l 1
 250 650 l 1
 250 900 l 1
 0 900 l 1
 0 1150 l 1
 250 1150 l 1
EndSplineSet
EndChar

StartChar: uniE1CB
Encoding: 57803 57803 190
Width: 1000
Flags: W
LayerCount: 2
Fore
SplineSet
500 900 m 1
 500 1400 l 1
 750 1400 l 1
 750 900 l 1
 500 900 l 1
 500 650 l 1
 750 650 l 1
 750 400 l 1
 500 400 l 1
 500 150 l 1
 250 150 l 1
 250 400 l 1
 0 400 l 1
 0 650 l 1
 250 650 l 1
 250 900 l 1
 0 900 l 1
 0 1150 l 1
 250 1150 l 1
 250 900 l 1
 500 900 l 1
EndSplineSet
EndChar

StartChar: uniE1CC
Encoding: 57804 57804 191
Width: 1000
Flags: W
LayerCount: 2
Fore
SplineSet
0 900 m 1
 0 1150 l 1
 250 1150 l 1
 250 900 l 1
 500 900 l 1
 500 650 l 1
 750 650 l 1
 750 400 l 1
 500 400 l 1
 500 150 l 1
 250 150 l 1
 250 -350 l 1
 0 -350 l 1
 0 150 l 1
 250 150 l 1
 250 400 l 1
 0 400 l 1
 0 650 l 1
 250 650 l 1
 250 900 l 1
 0 900 l 1
EndSplineSet
EndChar

StartChar: uniE1CD
Encoding: 57805 57805 192
Width: 1000
Flags: W
LayerCount: 2
Fore
SplineSet
0 900 m 1
 0 1150 l 1
 250 1150 l 1
 250 900 l 1
 500 900 l 1
 500 650 l 1
 750 650 l 1
 750 400 l 1
 500 400 l 1
 500 -350 l 1
 250 -350 l 1
 250 400 l 1
 0 400 l 1
 0 650 l 1
 250 650 l 1
 250 900 l 1
 0 900 l 1
EndSplineSet
EndChar

StartChar: uniE1CE
Encoding: 57806 57806 193
Width: 1000
Flags: W
LayerCount: 2
Fore
SplineSet
0 900 m 1
 0 1150 l 1
 250 1150 l 1
 250 900 l 1
 500 900 l 1
 500 650 l 1
 750 650 l 1
 750 400 l 1
 500 400 l 1
 500 150 l 1
 750 150 l 1
 750 -350 l 1
 500 -350 l 1
 500 150 l 1
 250 150 l 1
 250 400 l 1
 0 400 l 1
 0 650 l 1
 250 650 l 1
 250 900 l 1
 0 900 l 1
EndSplineSet
EndChar

StartChar: uniE1D1
Encoding: 57809 57809 194
Width: 1000
Flags: W
LayerCount: 2
Fore
SplineSet
0 900 m 1
 0 1400 l 1
 250 1400 l 1
 250 1150 l 1
 500 1150 l 1
 500 650 l 1
 750 650 l 1
 750 400 l 1
 500 400 l 1
 500 150 l 1
 250 150 l 1
 250 400 l 1
 0 400 l 1
 0 650 l 1
 250 650 l 1
 250 900 l 1
 0 900 l 1
EndSplineSet
EndChar

StartChar: uniE1D2
Encoding: 57810 57810 195
Width: 1000
Flags: W
LayerCount: 2
Fore
SplineSet
250 650 m 1
 250 1400 l 1
 500 1400 l 1
 500 650 l 1
 750 650 l 1
 750 400 l 1
 500 400 l 1
 500 150 l 1
 250 150 l 1
 250 400 l 1
 0 400 l 1
 0 650 l 1
 250 650 l 1
EndSplineSet
EndChar

StartChar: uniE1D3
Encoding: 57811 57811 196
Width: 1000
Flags: W
LayerCount: 2
Fore
SplineSet
500 1150 m 1
 500 1400 l 1
 750 1400 l 1
 750 900 l 1
 500 900 l 1
 500 650 l 1
 750 650 l 1
 750 400 l 1
 500 400 l 1
 500 150 l 1
 250 150 l 1
 250 400 l 1
 0 400 l 1
 0 650 l 1
 250 650 l 1
 250 1150 l 1
 500 1150 l 1
EndSplineSet
EndChar

StartChar: uniE1D4
Encoding: 57812 57812 197
Width: 1000
Flags: W
LayerCount: 2
Fore
SplineSet
250 650 m 1
 250 1150 l 1
 500 1150 l 1
 500 650 l 1
 750 650 l 1
 750 400 l 1
 500 400 l 1
 500 150 l 1
 250 150 l 1
 250 -350 l 1
 0 -350 l 1
 0 150 l 1
 250 150 l 1
 250 400 l 1
 0 400 l 1
 0 650 l 1
 250 650 l 1
EndSplineSet
EndChar

StartChar: uniE1D5
Encoding: 57813 57813 198
Width: 1000
Flags: W
LayerCount: 2
Fore
SplineSet
250 650 m 1
 250 1150 l 1
 500 1150 l 1
 500 650 l 1
 750 650 l 1
 750 400 l 1
 500 400 l 1
 500 -350 l 1
 250 -350 l 1
 250 400 l 1
 0 400 l 1
 0 650 l 1
 250 650 l 1
EndSplineSet
EndChar

StartChar: uniE1D6
Encoding: 57814 57814 199
Width: 1000
Flags: W
LayerCount: 2
Fore
SplineSet
250 650 m 1
 250 1150 l 1
 500 1150 l 1
 500 650 l 1
 750 650 l 1
 750 400 l 1
 500 400 l 1
 500 150 l 1
 750 150 l 1
 750 -350 l 1
 500 -350 l 1
 500 150 l 1
 250 150 l 1
 250 400 l 1
 0 400 l 1
 0 650 l 1
 250 650 l 1
EndSplineSet
EndChar

StartChar: uniE1D9
Encoding: 57817 57817 200
Width: 1000
Flags: W
LayerCount: 2
Fore
SplineSet
0 900 m 1
 0 1400 l 1
 250 1400 l 1
 250 900 l 1
 500 900 l 1
 500 1150 l 1
 750 1150 l 1
 750 900 l 1
 500 900 l 1
 500 650 l 1
 750 650 l 1
 750 400 l 1
 500 400 l 1
 500 150 l 1
 250 150 l 1
 250 400 l 1
 0 400 l 1
 0 650 l 1
 250 650 l 1
 250 900 l 1
 0 900 l 1
EndSplineSet
EndChar

StartChar: uniE1DA
Encoding: 57818 57818 201
Width: 1000
Flags: W
LayerCount: 2
Fore
SplineSet
250 650 m 1
 250 1400 l 1
 500 1400 l 1
 500 1150 l 1
 750 1150 l 1
 750 900 l 1
 500 900 l 1
 500 650 l 1
 750 650 l 1
 750 400 l 1
 500 400 l 1
 500 150 l 1
 250 150 l 1
 250 400 l 1
 0 400 l 1
 0 650 l 1
 250 650 l 1
EndSplineSet
EndChar

StartChar: uniE1DB
Encoding: 57819 57819 202
Width: 1000
Flags: W
LayerCount: 2
Fore
SplineSet
500 900 m 1
 500 1400 l 1
 750 1400 l 1
 750 900 l 1
 500 900 l 1
 500 650 l 1
 750 650 l 1
 750 400 l 1
 500 400 l 1
 500 150 l 1
 250 150 l 1
 250 400 l 1
 0 400 l 1
 0 650 l 1
 250 650 l 1
 250 900 l 1
 500 900 l 1
EndSplineSet
EndChar

StartChar: uniE1DC
Encoding: 57820 57820 203
Width: 1000
Flags: W
LayerCount: 2
Fore
SplineSet
500 900 m 1
 500 1150 l 1
 750 1150 l 1
 750 900 l 1
 500 900 l 1
 500 650 l 1
 750 650 l 1
 750 400 l 1
 500 400 l 1
 500 150 l 1
 250 150 l 1
 250 -350 l 1
 0 -350 l 1
 0 150 l 1
 250 150 l 1
 250 400 l 1
 0 400 l 1
 0 650 l 1
 250 650 l 1
 250 900 l 1
 500 900 l 1
EndSplineSet
EndChar

StartChar: uniE1DD
Encoding: 57821 57821 204
Width: 1000
Flags: W
LayerCount: 2
Fore
SplineSet
500 900 m 1
 500 1150 l 1
 750 1150 l 1
 750 900 l 1
 500 900 l 1
 500 650 l 1
 750 650 l 1
 750 400 l 1
 500 400 l 1
 500 -350 l 1
 250 -350 l 1
 250 400 l 1
 0 400 l 1
 0 650 l 1
 250 650 l 1
 250 900 l 1
 500 900 l 1
EndSplineSet
EndChar

StartChar: uniE1DE
Encoding: 57822 57822 205
Width: 1000
Flags: W
LayerCount: 2
Fore
SplineSet
500 900 m 1
 500 1150 l 1
 750 1150 l 1
 750 900 l 1
 500 900 l 1
 500 650 l 1
 750 650 l 1
 750 400 l 1
 500 400 l 1
 500 150 l 1
 750 150 l 1
 750 -350 l 1
 500 -350 l 1
 500 150 l 1
 250 150 l 1
 250 400 l 1
 0 400 l 1
 0 650 l 1
 250 650 l 1
 250 900 l 1
 500 900 l 1
EndSplineSet
EndChar

StartChar: uniE1E1
Encoding: 57825 57825 206
Width: 1000
Flags: W
LayerCount: 2
Fore
SplineSet
0 900 m 1
 0 1400 l 1
 250 1400 l 1
 250 900 l 1
 500 900 l 1
 500 650 l 1
 750 650 l 1
 750 400 l 1
 500 400 l 1
 500 150 l 1
 250 150 l 1
 250 -100 l 1
 0 -100 l 1
 0 150 l 1
 250 150 l 1
 250 400 l 1
 0 400 l 1
 0 650 l 1
 250 650 l 1
 250 900 l 1
 0 900 l 1
EndSplineSet
EndChar

StartChar: uniE1E2
Encoding: 57826 57826 207
Width: 1000
Flags: W
LayerCount: 2
Fore
SplineSet
250 650 m 1
 250 1400 l 1
 500 1400 l 1
 500 650 l 1
 750 650 l 1
 750 400 l 1
 500 400 l 1
 500 150 l 1
 250 150 l 1
 250 -100 l 1
 0 -100 l 1
 0 150 l 1
 250 150 l 1
 250 400 l 1
 0 400 l 1
 0 650 l 1
 250 650 l 1
EndSplineSet
EndChar

StartChar: uniE1E3
Encoding: 57827 57827 208
Width: 1000
Flags: W
LayerCount: 2
Fore
SplineSet
500 900 m 1
 500 1400 l 1
 750 1400 l 1
 750 900 l 1
 500 900 l 1
 500 650 l 1
 750 650 l 1
 750 400 l 1
 500 400 l 1
 500 150 l 1
 250 150 l 1
 250 -100 l 1
 0 -100 l 1
 0 150 l 1
 250 150 l 1
 250 400 l 1
 0 400 l 1
 0 650 l 1
 250 650 l 1
 250 900 l 1
 500 900 l 1
EndSplineSet
EndChar

StartChar: uniE1E4
Encoding: 57828 57828 209
Width: 1000
Flags: W
LayerCount: 2
Fore
SplineSet
250 650 m 1
 250 900 l 1
 500 900 l 1
 500 650 l 1
 750 650 l 1
 750 400 l 1
 500 400 l 1
 500 150 l 1
 250 150 l 1
 250 -350 l 1
 0 -350 l 1
 0 150 l 1
 250 150 l 1
 250 400 l 1
 0 400 l 1
 0 650 l 1
 250 650 l 1
EndSplineSet
EndChar

StartChar: uniE1E5
Encoding: 57829 57829 210
Width: 1000
Flags: W
LayerCount: 2
Fore
SplineSet
250 650 m 1
 250 900 l 1
 500 900 l 1
 500 650 l 1
 750 650 l 1
 750 400 l 1
 500 400 l 1
 500 -350 l 1
 250 -350 l 1
 250 -100 l 1
 0 -100 l 1
 0 150 l 1
 250 150 l 1
 250 400 l 1
 0 400 l 1
 0 650 l 1
 250 650 l 1
EndSplineSet
EndChar

StartChar: uniE1E6
Encoding: 57830 57830 211
Width: 1000
Flags: W
LayerCount: 2
Fore
SplineSet
250 650 m 1
 250 900 l 1
 500 900 l 1
 500 650 l 1
 750 650 l 1
 750 400 l 1
 500 400 l 1
 500 150 l 1
 750 150 l 1
 750 -350 l 1
 500 -350 l 1
 500 150 l 1
 250 150 l 1
 250 -100 l 1
 0 -100 l 1
 0 150 l 1
 250 150 l 1
 250 400 l 1
 0 400 l 1
 0 650 l 1
 250 650 l 1
EndSplineSet
EndChar

StartChar: uniE1E9
Encoding: 57833 57833 212
Width: 1000
Flags: W
LayerCount: 2
Fore
SplineSet
0 900 m 1
 0 1400 l 1
 250 1400 l 1
 250 900 l 1
 500 900 l 1
 500 650 l 1
 750 650 l 1
 750 400 l 1
 500 400 l 1
 500 -100 l 1
 250 -100 l 1
 250 400 l 1
 0 400 l 1
 0 650 l 1
 250 650 l 1
 250 900 l 1
 0 900 l 1
EndSplineSet
EndChar

StartChar: uniE1EA
Encoding: 57834 57834 213
Width: 1000
Flags: W
LayerCount: 2
Fore
SplineSet
250 650 m 1
 250 1400 l 1
 500 1400 l 1
 500 650 l 1
 750 650 l 1
 750 400 l 1
 500 400 l 1
 500 -100 l 1
 250 -100 l 1
 250 400 l 1
 0 400 l 1
 0 650 l 1
 250 650 l 1
EndSplineSet
EndChar

StartChar: uniE1EB
Encoding: 57835 57835 214
Width: 1000
Flags: W
LayerCount: 2
Fore
SplineSet
500 900 m 1
 500 1400 l 1
 750 1400 l 1
 750 900 l 1
 500 900 l 1
 500 650 l 1
 750 650 l 1
 750 400 l 1
 500 400 l 1
 500 -100 l 1
 250 -100 l 1
 250 400 l 1
 0 400 l 1
 0 650 l 1
 250 650 l 1
 250 900 l 1
 500 900 l 1
EndSplineSet
EndChar

StartChar: uniE1EC
Encoding: 57836 57836 215
Width: 1000
Flags: W
LayerCount: 2
Fore
SplineSet
250 650 m 1
 250 900 l 1
 500 900 l 1
 500 650 l 1
 750 650 l 1
 750 400 l 1
 500 400 l 1
 500 -100 l 1
 250 -100 l 1
 250 -350 l 1
 0 -350 l 1
 0 150 l 1
 250 150 l 1
 250 400 l 1
 0 400 l 1
 0 650 l 1
 250 650 l 1
EndSplineSet
EndChar

StartChar: uniE1ED
Encoding: 57837 57837 216
Width: 1000
Flags: W
LayerCount: 2
Fore
SplineSet
250 650 m 1
 250 900 l 1
 500 900 l 1
 500 650 l 1
 750 650 l 1
 750 400 l 1
 500 400 l 1
 500 -350 l 1
 250 -350 l 1
 250 400 l 1
 0 400 l 1
 0 650 l 1
 250 650 l 1
EndSplineSet
EndChar

StartChar: uniE1EE
Encoding: 57838 57838 217
Width: 1000
Flags: W
LayerCount: 2
Fore
SplineSet
250 650 m 1
 250 900 l 1
 500 900 l 1
 500 650 l 1
 750 650 l 1
 750 400 l 1
 500 400 l 1
 500 150 l 1
 750 150 l 1
 750 -350 l 1
 500 -350 l 1
 500 -100 l 1
 250 -100 l 1
 250 400 l 1
 0 400 l 1
 0 650 l 1
 250 650 l 1
EndSplineSet
EndChar

StartChar: uniE1F1
Encoding: 57841 57841 218
Width: 1000
Flags: W
LayerCount: 2
Fore
SplineSet
0 900 m 1
 0 1400 l 1
 250 1400 l 1
 250 900 l 1
 500 900 l 1
 500 650 l 1
 750 650 l 1
 750 400 l 1
 500 400 l 1
 500 150 l 1
 750 150 l 1
 750 -100 l 1
 500 -100 l 1
 500 150 l 1
 250 150 l 1
 250 400 l 1
 0 400 l 1
 0 650 l 1
 250 650 l 1
 250 900 l 1
 0 900 l 1
EndSplineSet
EndChar

StartChar: uniE1F2
Encoding: 57842 57842 219
Width: 1000
Flags: W
LayerCount: 2
Fore
SplineSet
250 650 m 1
 250 1400 l 1
 500 1400 l 1
 500 650 l 1
 750 650 l 1
 750 400 l 1
 500 400 l 1
 500 150 l 1
 750 150 l 1
 750 -100 l 1
 500 -100 l 1
 500 150 l 1
 250 150 l 1
 250 400 l 1
 0 400 l 1
 0 650 l 1
 250 650 l 1
EndSplineSet
EndChar

StartChar: uniE1F3
Encoding: 57843 57843 220
Width: 1000
Flags: W
LayerCount: 2
Fore
SplineSet
500 900 m 1
 500 1400 l 1
 750 1400 l 1
 750 900 l 1
 500 900 l 1
 500 650 l 1
 750 650 l 1
 750 400 l 1
 500 400 l 1
 500 150 l 1
 750 150 l 1
 750 -100 l 1
 500 -100 l 1
 500 150 l 1
 250 150 l 1
 250 400 l 1
 0 400 l 1
 0 650 l 1
 250 650 l 1
 250 900 l 1
 500 900 l 1
EndSplineSet
EndChar

StartChar: uniE1F4
Encoding: 57844 57844 221
Width: 1000
Flags: W
LayerCount: 2
Fore
SplineSet
250 650 m 1
 250 900 l 1
 500 900 l 1
 500 650 l 1
 750 650 l 1
 750 400 l 1
 500 400 l 1
 500 150 l 1
 750 150 l 1
 750 -100 l 1
 500 -100 l 1
 500 150 l 1
 250 150 l 1
 250 -350 l 1
 0 -350 l 1
 0 150 l 1
 250 150 l 1
 250 400 l 1
 0 400 l 1
 0 650 l 1
 250 650 l 1
EndSplineSet
EndChar

StartChar: uniE1F5
Encoding: 57845 57845 222
Width: 1000
Flags: W
LayerCount: 2
Fore
SplineSet
250 650 m 1
 250 900 l 1
 500 900 l 1
 500 650 l 1
 750 650 l 1
 750 400 l 1
 500 400 l 1
 500 150 l 1
 750 150 l 1
 750 -100 l 1
 500 -100 l 1
 500 -350 l 1
 250 -350 l 1
 250 400 l 1
 0 400 l 1
 0 650 l 1
 250 650 l 1
EndSplineSet
EndChar

StartChar: uniE1F6
Encoding: 57846 57846 223
Width: 1000
Flags: W
LayerCount: 2
Fore
SplineSet
250 650 m 1
 250 900 l 1
 500 900 l 1
 500 650 l 1
 750 650 l 1
 750 400 l 1
 500 400 l 1
 500 150 l 1
 750 150 l 1
 750 -350 l 1
 500 -350 l 1
 500 150 l 1
 250 150 l 1
 250 400 l 1
 0 400 l 1
 0 650 l 1
 250 650 l 1
EndSplineSet
EndChar

StartChar: uniE200
Encoding: 57856 57856 224
Width: 1000
Flags: W
LayerCount: 2
Fore
SplineSet
0 150 m 1
 0 900 l 1
 250 900 l 1
 250 400 l 1
 500 400 l 1
 500 900 l 1
 750 900 l 1
 750 150 l 1
 0 150 l 1
EndSplineSet
EndChar

StartChar: uniE201
Encoding: 57857 57857 225
Width: 1000
Flags: W
LayerCount: 2
Fore
SplineSet
0 150 m 1
 0 1150 l 1
 250 1150 l 1
 250 400 l 1
 500 400 l 1
 500 900 l 1
 750 900 l 1
 750 150 l 1
 0 150 l 1
EndSplineSet
EndChar

StartChar: uniE202
Encoding: 57858 57858 226
Width: 1000
Flags: W
LayerCount: 2
Fore
SplineSet
250 900 m 1
 250 1150 l 1
 500 1150 l 1
 500 900 l 1
 750 900 l 1
 750 150 l 1
 0 150 l 1
 0 900 l 1
 250 900 l 1
500 400 m 1
 500 900 l 1
 250 900 l 1
 250 400 l 1
 500 400 l 1
EndSplineSet
EndChar

StartChar: uniE203
Encoding: 57859 57859 227
Width: 1000
Flags: W
LayerCount: 2
Fore
SplineSet
500 400 m 1
 500 1150 l 1
 750 1150 l 1
 750 150 l 1
 0 150 l 1
 0 900 l 1
 250 900 l 1
 250 400 l 1
 500 400 l 1
EndSplineSet
EndChar

StartChar: uniE204
Encoding: 57860 57860 228
Width: 1000
Flags: W
LayerCount: 2
Fore
SplineSet
0 -100 m 1
 0 900 l 1
 250 900 l 1
 250 400 l 1
 500 400 l 1
 500 900 l 1
 750 900 l 1
 750 150 l 1
 250 150 l 1
 250 -100 l 1
 0 -100 l 1
EndSplineSet
EndChar

StartChar: uniE205
Encoding: 57861 57861 229
Width: 1000
Flags: W
LayerCount: 2
Fore
SplineSet
0 150 m 1
 0 900 l 1
 250 900 l 1
 250 400 l 1
 500 400 l 1
 500 900 l 1
 750 900 l 1
 750 150 l 1
 500 150 l 1
 500 -100 l 1
 250 -100 l 1
 250 150 l 1
 0 150 l 1
EndSplineSet
EndChar

StartChar: uniE206
Encoding: 57862 57862 230
Width: 1000
Flags: W
LayerCount: 2
Fore
SplineSet
0 150 m 1
 0 900 l 1
 250 900 l 1
 250 400 l 1
 500 400 l 1
 500 900 l 1
 750 900 l 1
 750 -100 l 1
 500 -100 l 1
 500 150 l 1
 0 150 l 1
EndSplineSet
EndChar

StartChar: uniE209
Encoding: 57865 57865 231
Width: 1000
Flags: W
LayerCount: 2
Fore
SplineSet
0 150 m 1
 0 1400 l 1
 250 1400 l 1
 250 400 l 1
 500 400 l 1
 500 900 l 1
 750 900 l 1
 750 150 l 1
 0 150 l 1
EndSplineSet
EndChar

StartChar: uniE20A
Encoding: 57866 57866 232
Width: 1000
Flags: W
LayerCount: 2
Fore
SplineSet
250 1150 m 1
 250 1400 l 1
 500 1400 l 1
 500 900 l 1
 750 900 l 1
 750 150 l 1
 0 150 l 1
 0 1150 l 1
 250 1150 l 1
500 400 m 1
 500 900 l 1
 250 900 l 1
 250 400 l 1
 500 400 l 1
EndSplineSet
EndChar

StartChar: uniE20B
Encoding: 57867 57867 233
Width: 1000
Flags: W
LayerCount: 2
Fore
SplineSet
500 400 m 1
 500 1400 l 1
 750 1400 l 1
 750 150 l 1
 0 150 l 1
 0 1150 l 1
 250 1150 l 1
 250 400 l 1
 500 400 l 1
EndSplineSet
EndChar

StartChar: uniE20C
Encoding: 57868 57868 234
Width: 1000
Flags: W
LayerCount: 2
Fore
SplineSet
0 -350 m 1
 0 1150 l 1
 250 1150 l 1
 250 400 l 1
 500 400 l 1
 500 900 l 1
 750 900 l 1
 750 150 l 1
 250 150 l 1
 250 -350 l 1
 0 -350 l 1
EndSplineSet
EndChar

StartChar: uniE20D
Encoding: 57869 57869 235
Width: 1000
Flags: W
LayerCount: 2
Fore
SplineSet
0 150 m 1
 0 1150 l 1
 250 1150 l 1
 250 400 l 1
 500 400 l 1
 500 900 l 1
 750 900 l 1
 750 150 l 1
 500 150 l 1
 500 -350 l 1
 250 -350 l 1
 250 150 l 1
 0 150 l 1
EndSplineSet
EndChar

StartChar: uniE20E
Encoding: 57870 57870 236
Width: 1000
Flags: W
LayerCount: 2
Fore
SplineSet
0 150 m 1
 0 1150 l 1
 250 1150 l 1
 250 400 l 1
 500 400 l 1
 500 900 l 1
 750 900 l 1
 750 -350 l 1
 500 -350 l 1
 500 150 l 1
 0 150 l 1
EndSplineSet
EndChar

StartChar: uniE211
Encoding: 57873 57873 237
Width: 1000
Flags: W
LayerCount: 2
Fore
SplineSet
0 150 m 1
 0 1400 l 1
 250 1400 l 1
 250 1150 l 1
 500 1150 l 1
 500 900 l 1
 750 900 l 1
 750 150 l 1
 0 150 l 1
500 400 m 1
 500 900 l 1
 250 900 l 1
 250 400 l 1
 500 400 l 1
EndSplineSet
EndChar

StartChar: uniE212
Encoding: 57874 57874 238
Width: 1000
Flags: W
LayerCount: 2
Fore
SplineSet
250 900 m 1
 250 1400 l 1
 500 1400 l 1
 500 900 l 1
 750 900 l 1
 750 150 l 1
 0 150 l 1
 0 900 l 1
 250 900 l 1
500 400 m 1
 500 900 l 1
 250 900 l 1
 250 400 l 1
 500 400 l 1
EndSplineSet
EndChar

StartChar: uniE213
Encoding: 57875 57875 239
Width: 1000
Flags: W
LayerCount: 2
Fore
SplineSet
500 1150 m 1
 500 1400 l 1
 750 1400 l 1
 750 150 l 1
 0 150 l 1
 0 900 l 1
 250 900 l 1
 250 1150 l 1
 500 1150 l 1
500 400 m 1
 500 900 l 1
 250 900 l 1
 250 400 l 1
 500 400 l 1
EndSplineSet
EndChar

StartChar: uniE214
Encoding: 57876 57876 240
Width: 1000
Flags: W
LayerCount: 2
Fore
SplineSet
250 900 m 1
 250 1150 l 1
 500 1150 l 1
 500 900 l 1
 750 900 l 1
 750 150 l 1
 250 150 l 1
 250 -350 l 1
 0 -350 l 1
 0 900 l 1
 250 900 l 1
500 400 m 1
 500 900 l 1
 250 900 l 1
 250 400 l 1
 500 400 l 1
EndSplineSet
EndChar

StartChar: uniE215
Encoding: 57877 57877 241
Width: 1000
Flags: W
LayerCount: 2
Fore
SplineSet
250 900 m 1
 250 1150 l 1
 500 1150 l 1
 500 900 l 1
 750 900 l 1
 750 150 l 1
 500 150 l 1
 500 -350 l 1
 250 -350 l 1
 250 150 l 1
 0 150 l 1
 0 900 l 1
 250 900 l 1
500 400 m 1
 500 900 l 1
 250 900 l 1
 250 400 l 1
 500 400 l 1
EndSplineSet
EndChar

StartChar: uniE216
Encoding: 57878 57878 242
Width: 1000
Flags: W
LayerCount: 2
Fore
SplineSet
250 900 m 1
 250 1150 l 1
 500 1150 l 1
 500 900 l 1
 750 900 l 1
 750 -350 l 1
 500 -350 l 1
 500 150 l 1
 0 150 l 1
 0 900 l 1
 250 900 l 1
500 400 m 1
 500 900 l 1
 250 900 l 1
 250 400 l 1
 500 400 l 1
EndSplineSet
EndChar

StartChar: uniE219
Encoding: 57881 57881 243
Width: 1000
Flags: W
LayerCount: 2
Fore
SplineSet
0 150 m 1
 0 1400 l 1
 250 1400 l 1
 250 400 l 1
 500 400 l 1
 500 1150 l 1
 750 1150 l 1
 750 150 l 1
 0 150 l 1
EndSplineSet
EndChar

StartChar: uniE21A
Encoding: 57882 57882 244
Width: 1000
Flags: W
LayerCount: 2
Fore
SplineSet
250 900 m 1
 250 1400 l 1
 500 1400 l 1
 500 1150 l 1
 750 1150 l 1
 750 150 l 1
 0 150 l 1
 0 900 l 1
 250 900 l 1
500 400 m 1
 500 900 l 1
 250 900 l 1
 250 400 l 1
 500 400 l 1
EndSplineSet
EndChar

StartChar: uniE21B
Encoding: 57883 57883 245
Width: 1000
Flags: W
LayerCount: 2
Fore
SplineSet
500 400 m 1
 500 1400 l 1
 750 1400 l 1
 750 150 l 1
 0 150 l 1
 0 900 l 1
 250 900 l 1
 250 400 l 1
 500 400 l 1
EndSplineSet
EndChar

StartChar: uniE21C
Encoding: 57884 57884 246
Width: 1000
Flags: W
LayerCount: 2
Fore
SplineSet
500 400 m 1
 500 1150 l 1
 750 1150 l 1
 750 150 l 1
 250 150 l 1
 250 -350 l 1
 0 -350 l 1
 0 900 l 1
 250 900 l 1
 250 400 l 1
 500 400 l 1
EndSplineSet
EndChar

StartChar: uniE21D
Encoding: 57885 57885 247
Width: 1000
Flags: W
LayerCount: 2
Fore
SplineSet
500 400 m 1
 500 1150 l 1
 750 1150 l 1
 750 150 l 1
 500 150 l 1
 500 -350 l 1
 250 -350 l 1
 250 150 l 1
 0 150 l 1
 0 900 l 1
 250 900 l 1
 250 400 l 1
 500 400 l 1
EndSplineSet
EndChar

StartChar: uniE21E
Encoding: 57886 57886 248
Width: 1000
Flags: W
LayerCount: 2
Fore
SplineSet
500 400 m 1
 500 1150 l 1
 750 1150 l 1
 750 -350 l 1
 500 -350 l 1
 500 150 l 1
 0 150 l 1
 0 900 l 1
 250 900 l 1
 250 400 l 1
 500 400 l 1
EndSplineSet
EndChar

StartChar: uniE221
Encoding: 57889 57889 249
Width: 1000
Flags: W
LayerCount: 2
Fore
SplineSet
0 -100 m 1
 0 1400 l 1
 250 1400 l 1
 250 400 l 1
 500 400 l 1
 500 900 l 1
 750 900 l 1
 750 150 l 1
 250 150 l 1
 250 -100 l 1
 0 -100 l 1
EndSplineSet
EndChar

StartChar: uniE222
Encoding: 57890 57890 250
Width: 1000
Flags: W
LayerCount: 2
Fore
SplineSet
250 900 m 1
 250 1400 l 1
 500 1400 l 1
 500 900 l 1
 750 900 l 1
 750 150 l 1
 250 150 l 1
 250 -100 l 1
 0 -100 l 1
 0 900 l 1
 250 900 l 1
500 400 m 1
 500 900 l 1
 250 900 l 1
 250 400 l 1
 500 400 l 1
EndSplineSet
EndChar

StartChar: uniE223
Encoding: 57891 57891 251
Width: 1000
Flags: W
LayerCount: 2
Fore
SplineSet
500 400 m 1
 500 1400 l 1
 750 1400 l 1
 750 150 l 1
 250 150 l 1
 250 -100 l 1
 0 -100 l 1
 0 900 l 1
 250 900 l 1
 250 400 l 1
 500 400 l 1
EndSplineSet
EndChar

StartChar: uniE224
Encoding: 57892 57892 252
Width: 1000
Flags: W
LayerCount: 2
Fore
SplineSet
0 -350 m 1
 0 900 l 1
 250 900 l 1
 250 400 l 1
 500 400 l 1
 500 900 l 1
 750 900 l 1
 750 150 l 1
 250 150 l 1
 250 -350 l 1
 0 -350 l 1
EndSplineSet
EndChar

StartChar: uniE225
Encoding: 57893 57893 253
Width: 1000
Flags: W
LayerCount: 2
Fore
SplineSet
0 -100 m 1
 0 900 l 1
 250 900 l 1
 250 400 l 1
 500 400 l 1
 500 900 l 1
 750 900 l 1
 750 150 l 1
 500 150 l 1
 500 -350 l 1
 250 -350 l 1
 250 -100 l 1
 0 -100 l 1
EndSplineSet
EndChar

StartChar: uniE226
Encoding: 57894 57894 254
Width: 1000
Flags: W
LayerCount: 2
Fore
SplineSet
0 -100 m 1
 0 900 l 1
 250 900 l 1
 250 400 l 1
 500 400 l 1
 500 900 l 1
 750 900 l 1
 750 -350 l 1
 500 -350 l 1
 500 150 l 1
 250 150 l 1
 250 -100 l 1
 0 -100 l 1
EndSplineSet
EndChar

StartChar: uniE229
Encoding: 57897 57897 255
Width: 1000
Flags: W
LayerCount: 2
Fore
SplineSet
0 150 m 1
 0 1400 l 1
 250 1400 l 1
 250 400 l 1
 500 400 l 1
 500 900 l 1
 750 900 l 1
 750 150 l 1
 500 150 l 1
 500 -100 l 1
 250 -100 l 1
 250 150 l 1
 0 150 l 1
EndSplineSet
EndChar

StartChar: uniE22A
Encoding: 57898 57898 256
Width: 1000
Flags: W
LayerCount: 2
Fore
SplineSet
250 900 m 1
 250 1400 l 1
 500 1400 l 1
 500 900 l 1
 750 900 l 1
 750 150 l 1
 500 150 l 1
 500 -100 l 1
 250 -100 l 1
 250 150 l 1
 0 150 l 1
 0 900 l 1
 250 900 l 1
500 400 m 1
 500 900 l 1
 250 900 l 1
 250 400 l 1
 500 400 l 1
EndSplineSet
EndChar

StartChar: uniE22B
Encoding: 57899 57899 257
Width: 1000
Flags: W
LayerCount: 2
Fore
SplineSet
500 400 m 1
 500 1400 l 1
 750 1400 l 1
 750 150 l 1
 500 150 l 1
 500 -100 l 1
 250 -100 l 1
 250 150 l 1
 0 150 l 1
 0 900 l 1
 250 900 l 1
 250 400 l 1
 500 400 l 1
EndSplineSet
EndChar

StartChar: uniE22C
Encoding: 57900 57900 258
Width: 1000
Flags: W
LayerCount: 2
Fore
SplineSet
0 -350 m 1
 0 900 l 1
 250 900 l 1
 250 400 l 1
 500 400 l 1
 500 900 l 1
 750 900 l 1
 750 150 l 1
 500 150 l 1
 500 -100 l 1
 250 -100 l 1
 250 -350 l 1
 0 -350 l 1
EndSplineSet
EndChar

StartChar: uniE22D
Encoding: 57901 57901 259
Width: 1000
Flags: W
LayerCount: 2
Fore
SplineSet
0 150 m 1
 0 900 l 1
 250 900 l 1
 250 400 l 1
 500 400 l 1
 500 900 l 1
 750 900 l 1
 750 150 l 1
 500 150 l 1
 500 -350 l 1
 250 -350 l 1
 250 150 l 1
 0 150 l 1
EndSplineSet
EndChar

StartChar: uniE22E
Encoding: 57902 57902 260
Width: 1000
Flags: W
LayerCount: 2
Fore
SplineSet
0 150 m 1
 0 900 l 1
 250 900 l 1
 250 400 l 1
 500 400 l 1
 500 900 l 1
 750 900 l 1
 750 -350 l 1
 500 -350 l 1
 500 -100 l 1
 250 -100 l 1
 250 150 l 1
 0 150 l 1
EndSplineSet
EndChar

StartChar: uniE231
Encoding: 57905 57905 261
Width: 1000
Flags: W
LayerCount: 2
Fore
SplineSet
0 150 m 1
 0 1400 l 1
 250 1400 l 1
 250 400 l 1
 500 400 l 1
 500 900 l 1
 750 900 l 1
 750 -100 l 1
 500 -100 l 1
 500 150 l 1
 0 150 l 1
EndSplineSet
EndChar

StartChar: uniE232
Encoding: 57906 57906 262
Width: 1000
Flags: W
LayerCount: 2
Fore
SplineSet
250 900 m 1
 250 1400 l 1
 500 1400 l 1
 500 900 l 1
 750 900 l 1
 750 -100 l 1
 500 -100 l 1
 500 150 l 1
 0 150 l 1
 0 900 l 1
 250 900 l 1
500 400 m 1
 500 900 l 1
 250 900 l 1
 250 400 l 1
 500 400 l 1
EndSplineSet
EndChar

StartChar: uniE233
Encoding: 57907 57907 263
Width: 1000
Flags: W
LayerCount: 2
Fore
SplineSet
500 400 m 1
 500 1400 l 1
 750 1400 l 1
 750 -100 l 1
 500 -100 l 1
 500 150 l 1
 0 150 l 1
 0 900 l 1
 250 900 l 1
 250 400 l 1
 500 400 l 1
EndSplineSet
EndChar

StartChar: uniE234
Encoding: 57908 57908 264
Width: 1000
Flags: W
LayerCount: 2
Fore
SplineSet
0 -350 m 1
 0 900 l 1
 250 900 l 1
 250 400 l 1
 500 400 l 1
 500 900 l 1
 750 900 l 1
 750 -100 l 1
 500 -100 l 1
 500 150 l 1
 250 150 l 1
 250 -350 l 1
 0 -350 l 1
EndSplineSet
EndChar

StartChar: uniE235
Encoding: 57909 57909 265
Width: 1000
Flags: W
LayerCount: 2
Fore
SplineSet
0 150 m 1
 0 900 l 1
 250 900 l 1
 250 400 l 1
 500 400 l 1
 500 900 l 1
 750 900 l 1
 750 -100 l 1
 500 -100 l 1
 500 -350 l 1
 250 -350 l 1
 250 150 l 1
 0 150 l 1
EndSplineSet
EndChar

StartChar: uniE236
Encoding: 57910 57910 266
Width: 1000
Flags: W
LayerCount: 2
Fore
SplineSet
0 150 m 1
 0 900 l 1
 250 900 l 1
 250 400 l 1
 500 400 l 1
 500 900 l 1
 750 900 l 1
 750 -350 l 1
 500 -350 l 1
 500 150 l 1
 0 150 l 1
EndSplineSet
EndChar

StartChar: uniE240
Encoding: 57920 57920 267
Width: 1000
Flags: W
LayerCount: 2
Fore
SplineSet
0 400 m 1
 0 900 l 1
 250 900 l 1
 250 400 l 1
 500 400 l 1
 500 900 l 1
 750 900 l 1
 750 400 l 1
 500 400 l 1
 500 150 l 1
 250 150 l 1
 250 400 l 1
 0 400 l 1
EndSplineSet
EndChar

StartChar: uniE241
Encoding: 57921 57921 268
Width: 1000
Flags: W
LayerCount: 2
Fore
SplineSet
0 400 m 1
 0 1150 l 1
 250 1150 l 1
 250 400 l 1
 500 400 l 1
 500 900 l 1
 750 900 l 1
 750 400 l 1
 500 400 l 1
 500 150 l 1
 250 150 l 1
 250 400 l 1
 0 400 l 1
EndSplineSet
EndChar

StartChar: uniE242
Encoding: 57922 57922 269
Width: 1000
Flags: W
LayerCount: 2
Fore
SplineSet
250 900 m 1
 250 1150 l 1
 500 1150 l 1
 500 900 l 1
 750 900 l 1
 750 400 l 1
 500 400 l 1
 500 150 l 1
 250 150 l 1
 250 400 l 1
 0 400 l 1
 0 900 l 1
 250 900 l 1
500 400 m 1
 500 900 l 1
 250 900 l 1
 250 400 l 1
 500 400 l 1
EndSplineSet
EndChar

StartChar: uniE243
Encoding: 57923 57923 270
Width: 1000
Flags: W
LayerCount: 2
Fore
SplineSet
500 400 m 1
 500 1150 l 1
 750 1150 l 1
 750 400 l 1
 500 400 l 1
 500 150 l 1
 250 150 l 1
 250 400 l 1
 0 400 l 1
 0 900 l 1
 250 900 l 1
 250 400 l 1
 500 400 l 1
EndSplineSet
EndChar

StartChar: uniE244
Encoding: 57924 57924 271
Width: 1000
Flags: W
LayerCount: 2
Fore
SplineSet
0 400 m 1
 0 900 l 1
 250 900 l 1
 250 400 l 1
 500 400 l 1
 500 900 l 1
 750 900 l 1
 750 400 l 1
 500 400 l 1
 500 150 l 1
 250 150 l 1
 250 -100 l 1
 0 -100 l 1
 0 150 l 1
 250 150 l 1
 250 400 l 1
 0 400 l 1
EndSplineSet
EndChar

StartChar: uniE245
Encoding: 57925 57925 272
Width: 1000
Flags: W
LayerCount: 2
Fore
SplineSet
0 400 m 1
 0 900 l 1
 250 900 l 1
 250 400 l 1
 500 400 l 1
 500 900 l 1
 750 900 l 1
 750 400 l 1
 500 400 l 1
 500 -100 l 1
 250 -100 l 1
 250 400 l 1
 0 400 l 1
EndSplineSet
EndChar

StartChar: uniE246
Encoding: 57926 57926 273
Width: 1000
Flags: W
LayerCount: 2
Fore
SplineSet
0 400 m 1
 0 900 l 1
 250 900 l 1
 250 400 l 1
 500 400 l 1
 500 900 l 1
 750 900 l 1
 750 400 l 1
 500 400 l 1
 500 150 l 1
 750 150 l 1
 750 -100 l 1
 500 -100 l 1
 500 150 l 1
 250 150 l 1
 250 400 l 1
 0 400 l 1
EndSplineSet
EndChar

StartChar: uniE249
Encoding: 57929 57929 274
Width: 1000
Flags: W
LayerCount: 2
Fore
SplineSet
0 400 m 1
 0 1400 l 1
 250 1400 l 1
 250 400 l 1
 500 400 l 1
 500 900 l 1
 750 900 l 1
 750 400 l 1
 500 400 l 1
 500 150 l 1
 250 150 l 1
 250 400 l 1
 0 400 l 1
EndSplineSet
EndChar

StartChar: uniE24A
Encoding: 57930 57930 275
Width: 1000
Flags: W
LayerCount: 2
Fore
SplineSet
250 1150 m 1
 250 1400 l 1
 500 1400 l 1
 500 900 l 1
 750 900 l 1
 750 400 l 1
 500 400 l 1
 500 150 l 1
 250 150 l 1
 250 400 l 1
 0 400 l 1
 0 1150 l 1
 250 1150 l 1
500 400 m 1
 500 900 l 1
 250 900 l 1
 250 400 l 1
 500 400 l 1
EndSplineSet
EndChar

StartChar: uniE24B
Encoding: 57931 57931 276
Width: 1000
Flags: W
LayerCount: 2
Fore
SplineSet
500 400 m 1
 500 1400 l 1
 750 1400 l 1
 750 400 l 1
 500 400 l 1
 500 150 l 1
 250 150 l 1
 250 400 l 1
 0 400 l 1
 0 1150 l 1
 250 1150 l 1
 250 400 l 1
 500 400 l 1
EndSplineSet
EndChar

StartChar: uniE24C
Encoding: 57932 57932 277
Width: 1000
Flags: W
LayerCount: 2
Fore
SplineSet
0 400 m 1
 0 1150 l 1
 250 1150 l 1
 250 400 l 1
 500 400 l 1
 500 900 l 1
 750 900 l 1
 750 400 l 1
 500 400 l 1
 500 150 l 1
 250 150 l 1
 250 -350 l 1
 0 -350 l 1
 0 150 l 1
 250 150 l 1
 250 400 l 1
 0 400 l 1
EndSplineSet
EndChar

StartChar: uniE24D
Encoding: 57933 57933 278
Width: 1000
Flags: W
LayerCount: 2
Fore
SplineSet
0 400 m 1
 0 1150 l 1
 250 1150 l 1
 250 400 l 1
 500 400 l 1
 500 900 l 1
 750 900 l 1
 750 400 l 1
 500 400 l 1
 500 -350 l 1
 250 -350 l 1
 250 400 l 1
 0 400 l 1
EndSplineSet
EndChar

StartChar: uniE24E
Encoding: 57934 57934 279
Width: 1000
Flags: W
LayerCount: 2
Fore
SplineSet
0 400 m 1
 0 1150 l 1
 250 1150 l 1
 250 400 l 1
 500 400 l 1
 500 900 l 1
 750 900 l 1
 750 400 l 1
 500 400 l 1
 500 150 l 1
 750 150 l 1
 750 -350 l 1
 500 -350 l 1
 500 150 l 1
 250 150 l 1
 250 400 l 1
 0 400 l 1
EndSplineSet
EndChar

StartChar: uniE251
Encoding: 57937 57937 280
Width: 1000
Flags: W
LayerCount: 2
Fore
SplineSet
0 400 m 1
 0 1400 l 1
 250 1400 l 1
 250 1150 l 1
 500 1150 l 1
 500 900 l 1
 750 900 l 1
 750 400 l 1
 500 400 l 1
 500 150 l 1
 250 150 l 1
 250 400 l 1
 0 400 l 1
500 400 m 1
 500 900 l 1
 250 900 l 1
 250 400 l 1
 500 400 l 1
EndSplineSet
EndChar

StartChar: uniE252
Encoding: 57938 57938 281
Width: 1000
Flags: W
LayerCount: 2
Fore
SplineSet
250 900 m 1
 250 1400 l 1
 500 1400 l 1
 500 900 l 1
 750 900 l 1
 750 400 l 1
 500 400 l 1
 500 150 l 1
 250 150 l 1
 250 400 l 1
 0 400 l 1
 0 900 l 1
 250 900 l 1
500 400 m 1
 500 900 l 1
 250 900 l 1
 250 400 l 1
 500 400 l 1
EndSplineSet
EndChar

StartChar: uniE253
Encoding: 57939 57939 282
Width: 1000
Flags: W
LayerCount: 2
Fore
SplineSet
500 1150 m 1
 500 1400 l 1
 750 1400 l 1
 750 400 l 1
 500 400 l 1
 500 150 l 1
 250 150 l 1
 250 400 l 1
 0 400 l 1
 0 900 l 1
 250 900 l 1
 250 1150 l 1
 500 1150 l 1
500 400 m 1
 500 900 l 1
 250 900 l 1
 250 400 l 1
 500 400 l 1
EndSplineSet
EndChar

StartChar: uniE254
Encoding: 57940 57940 283
Width: 1000
Flags: W
LayerCount: 2
Fore
SplineSet
250 900 m 1
 250 1150 l 1
 500 1150 l 1
 500 900 l 1
 750 900 l 1
 750 400 l 1
 500 400 l 1
 500 150 l 1
 250 150 l 1
 250 -350 l 1
 0 -350 l 1
 0 150 l 1
 250 150 l 1
 250 400 l 1
 0 400 l 1
 0 900 l 1
 250 900 l 1
500 400 m 1
 500 900 l 1
 250 900 l 1
 250 400 l 1
 500 400 l 1
EndSplineSet
EndChar

StartChar: uniE255
Encoding: 57941 57941 284
Width: 1000
Flags: W
LayerCount: 2
Fore
SplineSet
250 900 m 1
 250 1150 l 1
 500 1150 l 1
 500 900 l 1
 750 900 l 1
 750 400 l 1
 500 400 l 1
 500 -350 l 1
 250 -350 l 1
 250 400 l 1
 0 400 l 1
 0 900 l 1
 250 900 l 1
500 400 m 1
 500 900 l 1
 250 900 l 1
 250 400 l 1
 500 400 l 1
EndSplineSet
EndChar

StartChar: uniE256
Encoding: 57942 57942 285
Width: 1000
Flags: W
LayerCount: 2
Fore
SplineSet
250 900 m 1
 250 1150 l 1
 500 1150 l 1
 500 900 l 1
 750 900 l 1
 750 400 l 1
 500 400 l 1
 500 150 l 1
 750 150 l 1
 750 -350 l 1
 500 -350 l 1
 500 150 l 1
 250 150 l 1
 250 400 l 1
 0 400 l 1
 0 900 l 1
 250 900 l 1
500 400 m 1
 500 900 l 1
 250 900 l 1
 250 400 l 1
 500 400 l 1
EndSplineSet
EndChar

StartChar: uniE259
Encoding: 57945 57945 286
Width: 1000
Flags: W
LayerCount: 2
Fore
SplineSet
0 400 m 1
 0 1400 l 1
 250 1400 l 1
 250 400 l 1
 500 400 l 1
 500 1150 l 1
 750 1150 l 1
 750 400 l 1
 500 400 l 1
 500 150 l 1
 250 150 l 1
 250 400 l 1
 0 400 l 1
EndSplineSet
EndChar

StartChar: uniE25A
Encoding: 57946 57946 287
Width: 1000
Flags: W
LayerCount: 2
Fore
SplineSet
250 900 m 1
 250 1400 l 1
 500 1400 l 1
 500 1150 l 1
 750 1150 l 1
 750 400 l 1
 500 400 l 1
 500 150 l 1
 250 150 l 1
 250 400 l 1
 0 400 l 1
 0 900 l 1
 250 900 l 1
500 400 m 1
 500 900 l 1
 250 900 l 1
 250 400 l 1
 500 400 l 1
EndSplineSet
EndChar

StartChar: uniE25B
Encoding: 57947 57947 288
Width: 1000
Flags: W
LayerCount: 2
Fore
SplineSet
500 400 m 1
 500 1400 l 1
 750 1400 l 1
 750 400 l 1
 500 400 l 1
 500 150 l 1
 250 150 l 1
 250 400 l 1
 0 400 l 1
 0 900 l 1
 250 900 l 1
 250 400 l 1
 500 400 l 1
EndSplineSet
EndChar

StartChar: uniE25C
Encoding: 57948 57948 289
Width: 1000
Flags: W
LayerCount: 2
Fore
SplineSet
500 400 m 1
 500 1150 l 1
 750 1150 l 1
 750 400 l 1
 500 400 l 1
 500 150 l 1
 250 150 l 1
 250 -350 l 1
 0 -350 l 1
 0 150 l 1
 250 150 l 1
 250 400 l 1
 0 400 l 1
 0 900 l 1
 250 900 l 1
 250 400 l 1
 500 400 l 1
EndSplineSet
EndChar

StartChar: uniE25D
Encoding: 57949 57949 290
Width: 1000
Flags: W
LayerCount: 2
Fore
SplineSet
500 400 m 1
 500 1150 l 1
 750 1150 l 1
 750 400 l 1
 500 400 l 1
 500 -350 l 1
 250 -350 l 1
 250 400 l 1
 0 400 l 1
 0 900 l 1
 250 900 l 1
 250 400 l 1
 500 400 l 1
EndSplineSet
EndChar

StartChar: uniE25E
Encoding: 57950 57950 291
Width: 1000
Flags: W
LayerCount: 2
Fore
SplineSet
500 400 m 1
 500 1150 l 1
 750 1150 l 1
 750 400 l 1
 500 400 l 1
 500 150 l 1
 750 150 l 1
 750 -350 l 1
 500 -350 l 1
 500 150 l 1
 250 150 l 1
 250 400 l 1
 0 400 l 1
 0 900 l 1
 250 900 l 1
 250 400 l 1
 500 400 l 1
EndSplineSet
EndChar

StartChar: uniE261
Encoding: 57953 57953 292
Width: 1000
Flags: W
LayerCount: 2
Fore
SplineSet
0 400 m 1
 0 1400 l 1
 250 1400 l 1
 250 400 l 1
 500 400 l 1
 500 900 l 1
 750 900 l 1
 750 400 l 1
 500 400 l 1
 500 150 l 1
 250 150 l 1
 250 -100 l 1
 0 -100 l 1
 0 150 l 1
 250 150 l 1
 250 400 l 1
 0 400 l 1
EndSplineSet
EndChar

StartChar: uniE262
Encoding: 57954 57954 293
Width: 1000
Flags: W
LayerCount: 2
Fore
SplineSet
250 900 m 1
 250 1400 l 1
 500 1400 l 1
 500 900 l 1
 750 900 l 1
 750 400 l 1
 500 400 l 1
 500 150 l 1
 250 150 l 1
 250 -100 l 1
 0 -100 l 1
 0 150 l 1
 250 150 l 1
 250 400 l 1
 0 400 l 1
 0 900 l 1
 250 900 l 1
500 400 m 1
 500 900 l 1
 250 900 l 1
 250 400 l 1
 500 400 l 1
EndSplineSet
EndChar

StartChar: uniE263
Encoding: 57955 57955 294
Width: 1000
Flags: W
LayerCount: 2
Fore
SplineSet
500 400 m 1
 500 1400 l 1
 750 1400 l 1
 750 400 l 1
 500 400 l 1
 500 150 l 1
 250 150 l 1
 250 -100 l 1
 0 -100 l 1
 0 150 l 1
 250 150 l 1
 250 400 l 1
 0 400 l 1
 0 900 l 1
 250 900 l 1
 250 400 l 1
 500 400 l 1
EndSplineSet
EndChar

StartChar: uniE264
Encoding: 57956 57956 295
Width: 1000
Flags: W
LayerCount: 2
Fore
SplineSet
0 400 m 1
 0 900 l 1
 250 900 l 1
 250 400 l 1
 500 400 l 1
 500 900 l 1
 750 900 l 1
 750 400 l 1
 500 400 l 1
 500 150 l 1
 250 150 l 1
 250 -350 l 1
 0 -350 l 1
 0 150 l 1
 250 150 l 1
 250 400 l 1
 0 400 l 1
EndSplineSet
EndChar

StartChar: uniE265
Encoding: 57957 57957 296
Width: 1000
Flags: W
LayerCount: 2
Fore
SplineSet
0 400 m 1
 0 900 l 1
 250 900 l 1
 250 400 l 1
 500 400 l 1
 500 900 l 1
 750 900 l 1
 750 400 l 1
 500 400 l 1
 500 -350 l 1
 250 -350 l 1
 250 -100 l 1
 0 -100 l 1
 0 150 l 1
 250 150 l 1
 250 400 l 1
 0 400 l 1
EndSplineSet
EndChar

StartChar: uniE266
Encoding: 57958 57958 297
Width: 1000
Flags: W
LayerCount: 2
Fore
SplineSet
0 400 m 1
 0 900 l 1
 250 900 l 1
 250 400 l 1
 500 400 l 1
 500 900 l 1
 750 900 l 1
 750 400 l 1
 500 400 l 1
 500 150 l 1
 750 150 l 1
 750 -350 l 1
 500 -350 l 1
 500 150 l 1
 250 150 l 1
 250 -100 l 1
 0 -100 l 1
 0 150 l 1
 250 150 l 1
 250 400 l 1
 0 400 l 1
EndSplineSet
EndChar

StartChar: uniE269
Encoding: 57961 57961 298
Width: 1000
Flags: W
LayerCount: 2
Fore
SplineSet
0 400 m 1
 0 1400 l 1
 250 1400 l 1
 250 400 l 1
 500 400 l 1
 500 900 l 1
 750 900 l 1
 750 400 l 1
 500 400 l 1
 500 -100 l 1
 250 -100 l 1
 250 400 l 1
 0 400 l 1
EndSplineSet
EndChar

StartChar: uniE26A
Encoding: 57962 57962 299
Width: 1000
Flags: W
LayerCount: 2
Fore
SplineSet
250 900 m 1
 250 1400 l 1
 500 1400 l 1
 500 900 l 1
 750 900 l 1
 750 400 l 1
 500 400 l 1
 500 -100 l 1
 250 -100 l 1
 250 400 l 1
 0 400 l 1
 0 900 l 1
 250 900 l 1
500 400 m 1
 500 900 l 1
 250 900 l 1
 250 400 l 1
 500 400 l 1
EndSplineSet
EndChar

StartChar: uniE26B
Encoding: 57963 57963 300
Width: 1000
Flags: W
LayerCount: 2
Fore
SplineSet
500 400 m 1
 500 1400 l 1
 750 1400 l 1
 750 400 l 1
 500 400 l 1
 500 -100 l 1
 250 -100 l 1
 250 400 l 1
 0 400 l 1
 0 900 l 1
 250 900 l 1
 250 400 l 1
 500 400 l 1
EndSplineSet
EndChar

StartChar: uniE26C
Encoding: 57964 57964 301
Width: 1000
Flags: W
LayerCount: 2
Fore
SplineSet
0 400 m 1
 0 900 l 1
 250 900 l 1
 250 400 l 1
 500 400 l 1
 500 900 l 1
 750 900 l 1
 750 400 l 1
 500 400 l 1
 500 -100 l 1
 250 -100 l 1
 250 -350 l 1
 0 -350 l 1
 0 150 l 1
 250 150 l 1
 250 400 l 1
 0 400 l 1
EndSplineSet
EndChar

StartChar: uniE26D
Encoding: 57965 57965 302
Width: 1000
Flags: W
LayerCount: 2
Fore
SplineSet
0 400 m 1
 0 900 l 1
 250 900 l 1
 250 400 l 1
 500 400 l 1
 500 900 l 1
 750 900 l 1
 750 400 l 1
 500 400 l 1
 500 -350 l 1
 250 -350 l 1
 250 400 l 1
 0 400 l 1
EndSplineSet
EndChar

StartChar: uniE26E
Encoding: 57966 57966 303
Width: 1000
Flags: W
LayerCount: 2
Fore
SplineSet
0 400 m 1
 0 900 l 1
 250 900 l 1
 250 400 l 1
 500 400 l 1
 500 900 l 1
 750 900 l 1
 750 400 l 1
 500 400 l 1
 500 150 l 1
 750 150 l 1
 750 -350 l 1
 500 -350 l 1
 500 -100 l 1
 250 -100 l 1
 250 400 l 1
 0 400 l 1
EndSplineSet
EndChar

StartChar: uniE271
Encoding: 57969 57969 304
Width: 1000
Flags: W
LayerCount: 2
Fore
SplineSet
0 400 m 1
 0 1400 l 1
 250 1400 l 1
 250 400 l 1
 500 400 l 1
 500 900 l 1
 750 900 l 1
 750 400 l 1
 500 400 l 1
 500 150 l 1
 750 150 l 1
 750 -100 l 1
 500 -100 l 1
 500 150 l 1
 250 150 l 1
 250 400 l 1
 0 400 l 1
EndSplineSet
EndChar

StartChar: uniE272
Encoding: 57970 57970 305
Width: 1000
Flags: W
LayerCount: 2
Fore
SplineSet
250 900 m 1
 250 1400 l 1
 500 1400 l 1
 500 900 l 1
 750 900 l 1
 750 400 l 1
 500 400 l 1
 500 150 l 1
 750 150 l 1
 750 -100 l 1
 500 -100 l 1
 500 150 l 1
 250 150 l 1
 250 400 l 1
 0 400 l 1
 0 900 l 1
 250 900 l 1
500 400 m 1
 500 900 l 1
 250 900 l 1
 250 400 l 1
 500 400 l 1
EndSplineSet
EndChar

StartChar: uniE273
Encoding: 57971 57971 306
Width: 1000
Flags: W
LayerCount: 2
Fore
SplineSet
500 400 m 1
 500 1400 l 1
 750 1400 l 1
 750 400 l 1
 500 400 l 1
 500 150 l 1
 750 150 l 1
 750 -100 l 1
 500 -100 l 1
 500 150 l 1
 250 150 l 1
 250 400 l 1
 0 400 l 1
 0 900 l 1
 250 900 l 1
 250 400 l 1
 500 400 l 1
EndSplineSet
EndChar

StartChar: uniE274
Encoding: 57972 57972 307
Width: 1000
Flags: W
LayerCount: 2
Fore
SplineSet
0 400 m 1
 0 900 l 1
 250 900 l 1
 250 400 l 1
 500 400 l 1
 500 900 l 1
 750 900 l 1
 750 400 l 1
 500 400 l 1
 500 150 l 1
 750 150 l 1
 750 -100 l 1
 500 -100 l 1
 500 150 l 1
 250 150 l 1
 250 -350 l 1
 0 -350 l 1
 0 150 l 1
 250 150 l 1
 250 400 l 1
 0 400 l 1
EndSplineSet
EndChar

StartChar: uniE275
Encoding: 57973 57973 308
Width: 1000
Flags: W
LayerCount: 2
Fore
SplineSet
0 400 m 1
 0 900 l 1
 250 900 l 1
 250 400 l 1
 500 400 l 1
 500 900 l 1
 750 900 l 1
 750 400 l 1
 500 400 l 1
 500 150 l 1
 750 150 l 1
 750 -100 l 1
 500 -100 l 1
 500 -350 l 1
 250 -350 l 1
 250 400 l 1
 0 400 l 1
EndSplineSet
EndChar

StartChar: uniE276
Encoding: 57974 57974 309
Width: 1000
Flags: W
LayerCount: 2
Fore
SplineSet
0 400 m 1
 0 900 l 1
 250 900 l 1
 250 400 l 1
 500 400 l 1
 500 900 l 1
 750 900 l 1
 750 400 l 1
 500 400 l 1
 500 150 l 1
 750 150 l 1
 750 -350 l 1
 500 -350 l 1
 500 150 l 1
 250 150 l 1
 250 400 l 1
 0 400 l 1
EndSplineSet
EndChar

StartChar: uniE280
Encoding: 57984 57984 310
Width: 1000
Flags: W
LayerCount: 2
Fore
SplineSet
0 150 m 1
 0 900 l 1
 250 900 l 1
 250 650 l 1
 500 650 l 1
 500 900 l 1
 750 900 l 1
 750 150 l 1
 0 150 l 1
EndSplineSet
EndChar

StartChar: uniE281
Encoding: 57985 57985 311
Width: 1000
Flags: W
LayerCount: 2
Fore
SplineSet
0 150 m 1
 0 1150 l 1
 250 1150 l 1
 250 650 l 1
 500 650 l 1
 500 900 l 1
 750 900 l 1
 750 150 l 1
 0 150 l 1
EndSplineSet
EndChar

StartChar: uniE282
Encoding: 57986 57986 312
Width: 1000
Flags: W
LayerCount: 2
Fore
SplineSet
250 900 m 1
 250 1150 l 1
 500 1150 l 1
 500 900 l 1
 750 900 l 1
 750 150 l 1
 0 150 l 1
 0 900 l 1
 250 900 l 1
500 650 m 1
 500 900 l 1
 250 900 l 1
 250 650 l 1
 500 650 l 1
EndSplineSet
EndChar

StartChar: uniE283
Encoding: 57987 57987 313
Width: 1000
Flags: W
LayerCount: 2
Fore
SplineSet
500 650 m 1
 500 1150 l 1
 750 1150 l 1
 750 150 l 1
 0 150 l 1
 0 900 l 1
 250 900 l 1
 250 650 l 1
 500 650 l 1
EndSplineSet
EndChar

StartChar: uniE284
Encoding: 57988 57988 314
Width: 1000
Flags: W
LayerCount: 2
Fore
SplineSet
0 -100 m 1
 0 900 l 1
 250 900 l 1
 250 650 l 1
 500 650 l 1
 500 900 l 1
 750 900 l 1
 750 150 l 1
 250 150 l 1
 250 -100 l 1
 0 -100 l 1
EndSplineSet
EndChar

StartChar: uniE285
Encoding: 57989 57989 315
Width: 1000
Flags: W
LayerCount: 2
Fore
SplineSet
0 150 m 1
 0 900 l 1
 250 900 l 1
 250 650 l 1
 500 650 l 1
 500 900 l 1
 750 900 l 1
 750 150 l 1
 500 150 l 1
 500 -100 l 1
 250 -100 l 1
 250 150 l 1
 0 150 l 1
EndSplineSet
EndChar

StartChar: uniE286
Encoding: 57990 57990 316
Width: 1000
Flags: W
LayerCount: 2
Fore
SplineSet
0 150 m 1
 0 900 l 1
 250 900 l 1
 250 650 l 1
 500 650 l 1
 500 900 l 1
 750 900 l 1
 750 -100 l 1
 500 -100 l 1
 500 150 l 1
 0 150 l 1
EndSplineSet
EndChar

StartChar: uniE289
Encoding: 57993 57993 317
Width: 1000
Flags: W
LayerCount: 2
Fore
SplineSet
0 150 m 1
 0 1400 l 1
 250 1400 l 1
 250 650 l 1
 500 650 l 1
 500 900 l 1
 750 900 l 1
 750 150 l 1
 0 150 l 1
EndSplineSet
EndChar

StartChar: uniE28A
Encoding: 57994 57994 318
Width: 1000
Flags: W
LayerCount: 2
Fore
SplineSet
250 1150 m 1
 250 1400 l 1
 500 1400 l 1
 500 900 l 1
 750 900 l 1
 750 150 l 1
 0 150 l 1
 0 1150 l 1
 250 1150 l 1
500 650 m 1
 500 900 l 1
 250 900 l 1
 250 650 l 1
 500 650 l 1
EndSplineSet
EndChar

StartChar: uniE28B
Encoding: 57995 57995 319
Width: 1000
Flags: W
LayerCount: 2
Fore
SplineSet
500 650 m 1
 500 1400 l 1
 750 1400 l 1
 750 150 l 1
 0 150 l 1
 0 1150 l 1
 250 1150 l 1
 250 650 l 1
 500 650 l 1
EndSplineSet
EndChar

StartChar: uniE28C
Encoding: 57996 57996 320
Width: 1000
Flags: W
LayerCount: 2
Fore
SplineSet
0 -350 m 1
 0 1150 l 1
 250 1150 l 1
 250 650 l 1
 500 650 l 1
 500 900 l 1
 750 900 l 1
 750 150 l 1
 250 150 l 1
 250 -350 l 1
 0 -350 l 1
EndSplineSet
EndChar

StartChar: uniE28D
Encoding: 57997 57997 321
Width: 1000
Flags: W
LayerCount: 2
Fore
SplineSet
0 150 m 1
 0 1150 l 1
 250 1150 l 1
 250 650 l 1
 500 650 l 1
 500 900 l 1
 750 900 l 1
 750 150 l 1
 500 150 l 1
 500 -350 l 1
 250 -350 l 1
 250 150 l 1
 0 150 l 1
EndSplineSet
EndChar

StartChar: uniE28E
Encoding: 57998 57998 322
Width: 1000
Flags: W
LayerCount: 2
Fore
SplineSet
0 150 m 1
 0 1150 l 1
 250 1150 l 1
 250 650 l 1
 500 650 l 1
 500 900 l 1
 750 900 l 1
 750 -350 l 1
 500 -350 l 1
 500 150 l 1
 0 150 l 1
EndSplineSet
EndChar

StartChar: uniE291
Encoding: 58001 58001 323
Width: 1000
Flags: W
LayerCount: 2
Fore
SplineSet
0 150 m 1
 0 1400 l 1
 250 1400 l 1
 250 1150 l 1
 500 1150 l 1
 500 900 l 1
 750 900 l 1
 750 150 l 1
 0 150 l 1
500 650 m 1
 500 900 l 1
 250 900 l 1
 250 650 l 1
 500 650 l 1
EndSplineSet
EndChar

StartChar: uniE292
Encoding: 58002 58002 324
Width: 1000
Flags: W
LayerCount: 2
Fore
SplineSet
250 900 m 1
 250 1400 l 1
 500 1400 l 1
 500 900 l 1
 750 900 l 1
 750 150 l 1
 0 150 l 1
 0 900 l 1
 250 900 l 1
500 650 m 1
 500 900 l 1
 250 900 l 1
 250 650 l 1
 500 650 l 1
EndSplineSet
EndChar

StartChar: uniE293
Encoding: 58003 58003 325
Width: 1000
Flags: W
LayerCount: 2
Fore
SplineSet
500 1150 m 1
 500 1400 l 1
 750 1400 l 1
 750 150 l 1
 0 150 l 1
 0 900 l 1
 250 900 l 1
 250 1150 l 1
 500 1150 l 1
500 650 m 1
 500 900 l 1
 250 900 l 1
 250 650 l 1
 500 650 l 1
EndSplineSet
EndChar

StartChar: uniE294
Encoding: 58004 58004 326
Width: 1000
Flags: W
LayerCount: 2
Fore
SplineSet
250 900 m 1
 250 1150 l 1
 500 1150 l 1
 500 900 l 1
 750 900 l 1
 750 150 l 1
 250 150 l 1
 250 -350 l 1
 0 -350 l 1
 0 900 l 1
 250 900 l 1
500 650 m 1
 500 900 l 1
 250 900 l 1
 250 650 l 1
 500 650 l 1
EndSplineSet
EndChar

StartChar: uniE295
Encoding: 58005 58005 327
Width: 1000
Flags: W
LayerCount: 2
Fore
SplineSet
250 900 m 1
 250 1150 l 1
 500 1150 l 1
 500 900 l 1
 750 900 l 1
 750 150 l 1
 500 150 l 1
 500 -350 l 1
 250 -350 l 1
 250 150 l 1
 0 150 l 1
 0 900 l 1
 250 900 l 1
500 650 m 1
 500 900 l 1
 250 900 l 1
 250 650 l 1
 500 650 l 1
EndSplineSet
EndChar

StartChar: uniE296
Encoding: 58006 58006 328
Width: 1000
Flags: W
LayerCount: 2
Fore
SplineSet
250 900 m 1
 250 1150 l 1
 500 1150 l 1
 500 900 l 1
 750 900 l 1
 750 -350 l 1
 500 -350 l 1
 500 150 l 1
 0 150 l 1
 0 900 l 1
 250 900 l 1
500 650 m 1
 500 900 l 1
 250 900 l 1
 250 650 l 1
 500 650 l 1
EndSplineSet
EndChar

StartChar: uniE299
Encoding: 58009 58009 329
Width: 1000
Flags: W
LayerCount: 2
Fore
SplineSet
0 150 m 1
 0 1400 l 1
 250 1400 l 1
 250 650 l 1
 500 650 l 1
 500 1150 l 1
 750 1150 l 1
 750 150 l 1
 0 150 l 1
EndSplineSet
EndChar

StartChar: uniE29A
Encoding: 58010 58010 330
Width: 1000
Flags: W
LayerCount: 2
Fore
SplineSet
250 900 m 1
 250 1400 l 1
 500 1400 l 1
 500 1150 l 1
 750 1150 l 1
 750 150 l 1
 0 150 l 1
 0 900 l 1
 250 900 l 1
500 650 m 1
 500 900 l 1
 250 900 l 1
 250 650 l 1
 500 650 l 1
EndSplineSet
EndChar

StartChar: uniE29B
Encoding: 58011 58011 331
Width: 1000
Flags: W
LayerCount: 2
Fore
SplineSet
500 650 m 1
 500 1400 l 1
 750 1400 l 1
 750 150 l 1
 0 150 l 1
 0 900 l 1
 250 900 l 1
 250 650 l 1
 500 650 l 1
EndSplineSet
EndChar

StartChar: uniE29C
Encoding: 58012 58012 332
Width: 1000
Flags: W
LayerCount: 2
Fore
SplineSet
500 650 m 1
 500 1150 l 1
 750 1150 l 1
 750 150 l 1
 250 150 l 1
 250 -350 l 1
 0 -350 l 1
 0 900 l 1
 250 900 l 1
 250 650 l 1
 500 650 l 1
EndSplineSet
EndChar

StartChar: uniE29D
Encoding: 58013 58013 333
Width: 1000
Flags: W
LayerCount: 2
Fore
SplineSet
500 650 m 1
 500 1150 l 1
 750 1150 l 1
 750 150 l 1
 500 150 l 1
 500 -350 l 1
 250 -350 l 1
 250 150 l 1
 0 150 l 1
 0 900 l 1
 250 900 l 1
 250 650 l 1
 500 650 l 1
EndSplineSet
EndChar

StartChar: uniE29E
Encoding: 58014 58014 334
Width: 1000
Flags: W
LayerCount: 2
Fore
SplineSet
500 650 m 1
 500 1150 l 1
 750 1150 l 1
 750 -350 l 1
 500 -350 l 1
 500 150 l 1
 0 150 l 1
 0 900 l 1
 250 900 l 1
 250 650 l 1
 500 650 l 1
EndSplineSet
EndChar

StartChar: uniE2A1
Encoding: 58017 58017 335
Width: 1000
Flags: W
LayerCount: 2
Fore
SplineSet
0 -100 m 1
 0 1400 l 1
 250 1400 l 1
 250 650 l 1
 500 650 l 1
 500 900 l 1
 750 900 l 1
 750 150 l 1
 250 150 l 1
 250 -100 l 1
 0 -100 l 1
EndSplineSet
EndChar

StartChar: uniE2A2
Encoding: 58018 58018 336
Width: 1000
Flags: W
LayerCount: 2
Fore
SplineSet
250 900 m 1
 250 1400 l 1
 500 1400 l 1
 500 900 l 1
 750 900 l 1
 750 150 l 1
 250 150 l 1
 250 -100 l 1
 0 -100 l 1
 0 900 l 1
 250 900 l 1
500 650 m 1
 500 900 l 1
 250 900 l 1
 250 650 l 1
 500 650 l 1
EndSplineSet
EndChar

StartChar: uniE2A3
Encoding: 58019 58019 337
Width: 1000
Flags: W
LayerCount: 2
Fore
SplineSet
500 650 m 1
 500 1400 l 1
 750 1400 l 1
 750 150 l 1
 250 150 l 1
 250 -100 l 1
 0 -100 l 1
 0 900 l 1
 250 900 l 1
 250 650 l 1
 500 650 l 1
EndSplineSet
EndChar

StartChar: uniE2A4
Encoding: 58020 58020 338
Width: 1000
Flags: W
LayerCount: 2
Fore
SplineSet
0 -350 m 1
 0 900 l 1
 250 900 l 1
 250 650 l 1
 500 650 l 1
 500 900 l 1
 750 900 l 1
 750 150 l 1
 250 150 l 1
 250 -350 l 1
 0 -350 l 1
EndSplineSet
EndChar

StartChar: uniE2A5
Encoding: 58021 58021 339
Width: 1000
Flags: W
LayerCount: 2
Fore
SplineSet
0 -100 m 1
 0 900 l 1
 250 900 l 1
 250 650 l 1
 500 650 l 1
 500 900 l 1
 750 900 l 1
 750 150 l 1
 500 150 l 1
 500 -350 l 1
 250 -350 l 1
 250 -100 l 1
 0 -100 l 1
EndSplineSet
EndChar

StartChar: uniE2A6
Encoding: 58022 58022 340
Width: 1000
Flags: W
LayerCount: 2
Fore
SplineSet
0 -100 m 1
 0 900 l 1
 250 900 l 1
 250 650 l 1
 500 650 l 1
 500 900 l 1
 750 900 l 1
 750 -350 l 1
 500 -350 l 1
 500 150 l 1
 250 150 l 1
 250 -100 l 1
 0 -100 l 1
EndSplineSet
EndChar

StartChar: uniE2A9
Encoding: 58025 58025 341
Width: 1000
Flags: W
LayerCount: 2
Fore
SplineSet
0 150 m 1
 0 1400 l 1
 250 1400 l 1
 250 650 l 1
 500 650 l 1
 500 900 l 1
 750 900 l 1
 750 150 l 1
 500 150 l 1
 500 -100 l 1
 250 -100 l 1
 250 150 l 1
 0 150 l 1
EndSplineSet
EndChar

StartChar: uniE2AA
Encoding: 58026 58026 342
Width: 1000
Flags: W
LayerCount: 2
Fore
SplineSet
250 900 m 1
 250 1400 l 1
 500 1400 l 1
 500 900 l 1
 750 900 l 1
 750 150 l 1
 500 150 l 1
 500 -100 l 1
 250 -100 l 1
 250 150 l 1
 0 150 l 1
 0 900 l 1
 250 900 l 1
500 650 m 1
 500 900 l 1
 250 900 l 1
 250 650 l 1
 500 650 l 1
EndSplineSet
EndChar

StartChar: uniE2AB
Encoding: 58027 58027 343
Width: 1000
Flags: W
LayerCount: 2
Fore
SplineSet
500 650 m 1
 500 1400 l 1
 750 1400 l 1
 750 150 l 1
 500 150 l 1
 500 -100 l 1
 250 -100 l 1
 250 150 l 1
 0 150 l 1
 0 900 l 1
 250 900 l 1
 250 650 l 1
 500 650 l 1
EndSplineSet
EndChar

StartChar: uniE2AC
Encoding: 58028 58028 344
Width: 1000
Flags: W
LayerCount: 2
Fore
SplineSet
0 -350 m 1
 0 900 l 1
 250 900 l 1
 250 650 l 1
 500 650 l 1
 500 900 l 1
 750 900 l 1
 750 150 l 1
 500 150 l 1
 500 -100 l 1
 250 -100 l 1
 250 -350 l 1
 0 -350 l 1
EndSplineSet
EndChar

StartChar: uniE2AD
Encoding: 58029 58029 345
Width: 1000
Flags: W
LayerCount: 2
Fore
SplineSet
0 150 m 1
 0 900 l 1
 250 900 l 1
 250 650 l 1
 500 650 l 1
 500 900 l 1
 750 900 l 1
 750 150 l 1
 500 150 l 1
 500 -350 l 1
 250 -350 l 1
 250 150 l 1
 0 150 l 1
EndSplineSet
EndChar

StartChar: uniE2AE
Encoding: 58030 58030 346
Width: 1000
Flags: W
LayerCount: 2
Fore
SplineSet
0 150 m 1
 0 900 l 1
 250 900 l 1
 250 650 l 1
 500 650 l 1
 500 900 l 1
 750 900 l 1
 750 -350 l 1
 500 -350 l 1
 500 -100 l 1
 250 -100 l 1
 250 150 l 1
 0 150 l 1
EndSplineSet
EndChar

StartChar: uniE2B1
Encoding: 58033 58033 347
Width: 1000
Flags: W
LayerCount: 2
Fore
SplineSet
0 150 m 1
 0 1400 l 1
 250 1400 l 1
 250 650 l 1
 500 650 l 1
 500 900 l 1
 750 900 l 1
 750 -100 l 1
 500 -100 l 1
 500 150 l 1
 0 150 l 1
EndSplineSet
EndChar

StartChar: uniE2B2
Encoding: 58034 58034 348
Width: 1000
Flags: W
LayerCount: 2
Fore
SplineSet
250 900 m 1
 250 1400 l 1
 500 1400 l 1
 500 900 l 1
 750 900 l 1
 750 -100 l 1
 500 -100 l 1
 500 150 l 1
 0 150 l 1
 0 900 l 1
 250 900 l 1
500 650 m 1
 500 900 l 1
 250 900 l 1
 250 650 l 1
 500 650 l 1
EndSplineSet
EndChar

StartChar: uniE2B3
Encoding: 58035 58035 349
Width: 1000
Flags: W
LayerCount: 2
Fore
SplineSet
500 650 m 1
 500 1400 l 1
 750 1400 l 1
 750 -100 l 1
 500 -100 l 1
 500 150 l 1
 0 150 l 1
 0 900 l 1
 250 900 l 1
 250 650 l 1
 500 650 l 1
EndSplineSet
EndChar

StartChar: uniE2B4
Encoding: 58036 58036 350
Width: 1000
Flags: W
LayerCount: 2
Fore
SplineSet
0 -350 m 1
 0 900 l 1
 250 900 l 1
 250 650 l 1
 500 650 l 1
 500 900 l 1
 750 900 l 1
 750 -100 l 1
 500 -100 l 1
 500 150 l 1
 250 150 l 1
 250 -350 l 1
 0 -350 l 1
EndSplineSet
EndChar

StartChar: uniE2B5
Encoding: 58037 58037 351
Width: 1000
Flags: W
LayerCount: 2
Fore
SplineSet
0 150 m 1
 0 900 l 1
 250 900 l 1
 250 650 l 1
 500 650 l 1
 500 900 l 1
 750 900 l 1
 750 -100 l 1
 500 -100 l 1
 500 -350 l 1
 250 -350 l 1
 250 150 l 1
 0 150 l 1
EndSplineSet
EndChar

StartChar: uniE2B6
Encoding: 58038 58038 352
Width: 1000
Flags: W
LayerCount: 2
Fore
SplineSet
0 150 m 1
 0 900 l 1
 250 900 l 1
 250 650 l 1
 500 650 l 1
 500 900 l 1
 750 900 l 1
 750 -350 l 1
 500 -350 l 1
 500 150 l 1
 0 150 l 1
EndSplineSet
EndChar

StartChar: uniE2C0
Encoding: 58048 58048 353
Width: 1000
Flags: W
LayerCount: 2
Fore
SplineSet
0 400 m 1
 0 900 l 1
 250 900 l 1
 250 650 l 1
 500 650 l 1
 500 900 l 1
 750 900 l 1
 750 400 l 1
 500 400 l 1
 500 150 l 1
 250 150 l 1
 250 400 l 1
 0 400 l 1
EndSplineSet
EndChar

StartChar: uniE2C1
Encoding: 58049 58049 354
Width: 1000
Flags: W
LayerCount: 2
Fore
SplineSet
0 400 m 1
 0 1150 l 1
 250 1150 l 1
 250 650 l 1
 500 650 l 1
 500 900 l 1
 750 900 l 1
 750 400 l 1
 500 400 l 1
 500 150 l 1
 250 150 l 1
 250 400 l 1
 0 400 l 1
EndSplineSet
EndChar

StartChar: uniE2C2
Encoding: 58050 58050 355
Width: 1000
Flags: W
LayerCount: 2
Fore
SplineSet
250 900 m 1
 250 1150 l 1
 500 1150 l 1
 500 900 l 1
 750 900 l 1
 750 400 l 1
 500 400 l 1
 500 150 l 1
 250 150 l 1
 250 400 l 1
 0 400 l 1
 0 900 l 1
 250 900 l 1
500 650 m 1
 500 900 l 1
 250 900 l 1
 250 650 l 1
 500 650 l 1
EndSplineSet
EndChar

StartChar: uniE2C3
Encoding: 58051 58051 356
Width: 1000
Flags: W
LayerCount: 2
Fore
SplineSet
500 650 m 1
 500 1150 l 1
 750 1150 l 1
 750 400 l 1
 500 400 l 1
 500 150 l 1
 250 150 l 1
 250 400 l 1
 0 400 l 1
 0 900 l 1
 250 900 l 1
 250 650 l 1
 500 650 l 1
EndSplineSet
EndChar

StartChar: uniE2C4
Encoding: 58052 58052 357
Width: 1000
Flags: W
LayerCount: 2
Fore
SplineSet
0 400 m 1
 0 900 l 1
 250 900 l 1
 250 650 l 1
 500 650 l 1
 500 900 l 1
 750 900 l 1
 750 400 l 1
 500 400 l 1
 500 150 l 1
 250 150 l 1
 250 -100 l 1
 0 -100 l 1
 0 150 l 1
 250 150 l 1
 250 400 l 1
 0 400 l 1
EndSplineSet
EndChar

StartChar: uniE2C5
Encoding: 58053 58053 358
Width: 1000
Flags: W
LayerCount: 2
Fore
SplineSet
0 400 m 1
 0 900 l 1
 250 900 l 1
 250 650 l 1
 500 650 l 1
 500 900 l 1
 750 900 l 1
 750 400 l 1
 500 400 l 1
 500 -100 l 1
 250 -100 l 1
 250 400 l 1
 0 400 l 1
EndSplineSet
EndChar

StartChar: uniE2C6
Encoding: 58054 58054 359
Width: 1000
Flags: W
LayerCount: 2
Fore
SplineSet
0 400 m 1
 0 900 l 1
 250 900 l 1
 250 650 l 1
 500 650 l 1
 500 900 l 1
 750 900 l 1
 750 400 l 1
 500 400 l 1
 500 150 l 1
 750 150 l 1
 750 -100 l 1
 500 -100 l 1
 500 150 l 1
 250 150 l 1
 250 400 l 1
 0 400 l 1
EndSplineSet
EndChar

StartChar: uniE2C9
Encoding: 58057 58057 360
Width: 1000
Flags: W
LayerCount: 2
Fore
SplineSet
0 400 m 1
 0 1400 l 1
 250 1400 l 1
 250 650 l 1
 500 650 l 1
 500 900 l 1
 750 900 l 1
 750 400 l 1
 500 400 l 1
 500 150 l 1
 250 150 l 1
 250 400 l 1
 0 400 l 1
EndSplineSet
EndChar

StartChar: uniE2CA
Encoding: 58058 58058 361
Width: 1000
Flags: W
LayerCount: 2
Fore
SplineSet
250 1150 m 1
 250 1400 l 1
 500 1400 l 1
 500 900 l 1
 750 900 l 1
 750 400 l 1
 500 400 l 1
 500 150 l 1
 250 150 l 1
 250 400 l 1
 0 400 l 1
 0 1150 l 1
 250 1150 l 1
500 650 m 1
 500 900 l 1
 250 900 l 1
 250 650 l 1
 500 650 l 1
EndSplineSet
EndChar

StartChar: uniE2CB
Encoding: 58059 58059 362
Width: 1000
Flags: W
LayerCount: 2
Fore
SplineSet
500 650 m 1
 500 1400 l 1
 750 1400 l 1
 750 400 l 1
 500 400 l 1
 500 150 l 1
 250 150 l 1
 250 400 l 1
 0 400 l 1
 0 1150 l 1
 250 1150 l 1
 250 650 l 1
 500 650 l 1
EndSplineSet
EndChar

StartChar: uniE2CC
Encoding: 58060 58060 363
Width: 1000
Flags: W
LayerCount: 2
Fore
SplineSet
0 400 m 1
 0 1150 l 1
 250 1150 l 1
 250 650 l 1
 500 650 l 1
 500 900 l 1
 750 900 l 1
 750 400 l 1
 500 400 l 1
 500 150 l 1
 250 150 l 1
 250 -350 l 1
 0 -350 l 1
 0 150 l 1
 250 150 l 1
 250 400 l 1
 0 400 l 1
EndSplineSet
EndChar

StartChar: uniE2CD
Encoding: 58061 58061 364
Width: 1000
Flags: W
LayerCount: 2
Fore
SplineSet
0 400 m 1
 0 1150 l 1
 250 1150 l 1
 250 650 l 1
 500 650 l 1
 500 900 l 1
 750 900 l 1
 750 400 l 1
 500 400 l 1
 500 -350 l 1
 250 -350 l 1
 250 400 l 1
 0 400 l 1
EndSplineSet
EndChar

StartChar: uniE2CE
Encoding: 58062 58062 365
Width: 1000
Flags: W
LayerCount: 2
Fore
SplineSet
0 400 m 1
 0 1150 l 1
 250 1150 l 1
 250 650 l 1
 500 650 l 1
 500 900 l 1
 750 900 l 1
 750 400 l 1
 500 400 l 1
 500 150 l 1
 750 150 l 1
 750 -350 l 1
 500 -350 l 1
 500 150 l 1
 250 150 l 1
 250 400 l 1
 0 400 l 1
EndSplineSet
EndChar

StartChar: uniE2D1
Encoding: 58065 58065 366
Width: 1000
Flags: W
LayerCount: 2
Fore
SplineSet
0 400 m 1
 0 1400 l 1
 250 1400 l 1
 250 1150 l 1
 500 1150 l 1
 500 900 l 1
 750 900 l 1
 750 400 l 1
 500 400 l 1
 500 150 l 1
 250 150 l 1
 250 400 l 1
 0 400 l 1
500 650 m 1
 500 900 l 1
 250 900 l 1
 250 650 l 1
 500 650 l 1
EndSplineSet
EndChar

StartChar: uniE2D2
Encoding: 58066 58066 367
Width: 1000
Flags: W
LayerCount: 2
Fore
SplineSet
250 900 m 1
 250 1400 l 1
 500 1400 l 1
 500 900 l 1
 750 900 l 1
 750 400 l 1
 500 400 l 1
 500 150 l 1
 250 150 l 1
 250 400 l 1
 0 400 l 1
 0 900 l 1
 250 900 l 1
500 650 m 1
 500 900 l 1
 250 900 l 1
 250 650 l 1
 500 650 l 1
EndSplineSet
EndChar

StartChar: uniE2D3
Encoding: 58067 58067 368
Width: 1000
Flags: W
LayerCount: 2
Fore
SplineSet
500 1150 m 1
 500 1400 l 1
 750 1400 l 1
 750 400 l 1
 500 400 l 1
 500 150 l 1
 250 150 l 1
 250 400 l 1
 0 400 l 1
 0 900 l 1
 250 900 l 1
 250 1150 l 1
 500 1150 l 1
500 650 m 1
 500 900 l 1
 250 900 l 1
 250 650 l 1
 500 650 l 1
EndSplineSet
EndChar

StartChar: uniE2D4
Encoding: 58068 58068 369
Width: 1000
Flags: W
LayerCount: 2
Fore
SplineSet
250 900 m 1
 250 1150 l 1
 500 1150 l 1
 500 900 l 1
 750 900 l 1
 750 400 l 1
 500 400 l 1
 500 150 l 1
 250 150 l 1
 250 -350 l 1
 0 -350 l 1
 0 150 l 1
 250 150 l 1
 250 400 l 1
 0 400 l 1
 0 900 l 1
 250 900 l 1
500 650 m 1
 500 900 l 1
 250 900 l 1
 250 650 l 1
 500 650 l 1
EndSplineSet
EndChar

StartChar: uniE2D5
Encoding: 58069 58069 370
Width: 1000
Flags: W
LayerCount: 2
Fore
SplineSet
250 900 m 1
 250 1150 l 1
 500 1150 l 1
 500 900 l 1
 750 900 l 1
 750 400 l 1
 500 400 l 1
 500 -350 l 1
 250 -350 l 1
 250 400 l 1
 0 400 l 1
 0 900 l 1
 250 900 l 1
500 650 m 1
 500 900 l 1
 250 900 l 1
 250 650 l 1
 500 650 l 1
EndSplineSet
EndChar

StartChar: uniE2D6
Encoding: 58070 58070 371
Width: 1000
Flags: W
LayerCount: 2
Fore
SplineSet
250 900 m 1
 250 1150 l 1
 500 1150 l 1
 500 900 l 1
 750 900 l 1
 750 400 l 1
 500 400 l 1
 500 150 l 1
 750 150 l 1
 750 -350 l 1
 500 -350 l 1
 500 150 l 1
 250 150 l 1
 250 400 l 1
 0 400 l 1
 0 900 l 1
 250 900 l 1
500 650 m 1
 500 900 l 1
 250 900 l 1
 250 650 l 1
 500 650 l 1
EndSplineSet
EndChar

StartChar: uniE2D9
Encoding: 58073 58073 372
Width: 1000
Flags: W
LayerCount: 2
Fore
SplineSet
0 400 m 1
 0 1400 l 1
 250 1400 l 1
 250 650 l 1
 500 650 l 1
 500 1150 l 1
 750 1150 l 1
 750 400 l 1
 500 400 l 1
 500 150 l 1
 250 150 l 1
 250 400 l 1
 0 400 l 1
EndSplineSet
EndChar

StartChar: uniE2DA
Encoding: 58074 58074 373
Width: 1000
Flags: W
LayerCount: 2
Fore
SplineSet
250 900 m 1
 250 1400 l 1
 500 1400 l 1
 500 1150 l 1
 750 1150 l 1
 750 400 l 1
 500 400 l 1
 500 150 l 1
 250 150 l 1
 250 400 l 1
 0 400 l 1
 0 900 l 1
 250 900 l 1
500 650 m 1
 500 900 l 1
 250 900 l 1
 250 650 l 1
 500 650 l 1
EndSplineSet
EndChar

StartChar: uniE2DB
Encoding: 58075 58075 374
Width: 1000
Flags: W
LayerCount: 2
Fore
SplineSet
500 650 m 1
 500 1400 l 1
 750 1400 l 1
 750 400 l 1
 500 400 l 1
 500 150 l 1
 250 150 l 1
 250 400 l 1
 0 400 l 1
 0 900 l 1
 250 900 l 1
 250 650 l 1
 500 650 l 1
EndSplineSet
EndChar

StartChar: uniE2DC
Encoding: 58076 58076 375
Width: 1000
Flags: W
LayerCount: 2
Fore
SplineSet
500 650 m 1
 500 1150 l 1
 750 1150 l 1
 750 400 l 1
 500 400 l 1
 500 150 l 1
 250 150 l 1
 250 -350 l 1
 0 -350 l 1
 0 150 l 1
 250 150 l 1
 250 400 l 1
 0 400 l 1
 0 900 l 1
 250 900 l 1
 250 650 l 1
 500 650 l 1
EndSplineSet
EndChar

StartChar: uniE2DD
Encoding: 58077 58077 376
Width: 1000
Flags: W
LayerCount: 2
Fore
SplineSet
500 650 m 1
 500 1150 l 1
 750 1150 l 1
 750 400 l 1
 500 400 l 1
 500 -350 l 1
 250 -350 l 1
 250 400 l 1
 0 400 l 1
 0 900 l 1
 250 900 l 1
 250 650 l 1
 500 650 l 1
EndSplineSet
EndChar

StartChar: uniE2DE
Encoding: 58078 58078 377
Width: 1000
Flags: W
LayerCount: 2
Fore
SplineSet
500 650 m 1
 500 1150 l 1
 750 1150 l 1
 750 400 l 1
 500 400 l 1
 500 150 l 1
 750 150 l 1
 750 -350 l 1
 500 -350 l 1
 500 150 l 1
 250 150 l 1
 250 400 l 1
 0 400 l 1
 0 900 l 1
 250 900 l 1
 250 650 l 1
 500 650 l 1
EndSplineSet
EndChar

StartChar: uniE2E1
Encoding: 58081 58081 378
Width: 1000
Flags: W
LayerCount: 2
Fore
SplineSet
0 400 m 1
 0 1400 l 1
 250 1400 l 1
 250 650 l 1
 500 650 l 1
 500 900 l 1
 750 900 l 1
 750 400 l 1
 500 400 l 1
 500 150 l 1
 250 150 l 1
 250 -100 l 1
 0 -100 l 1
 0 150 l 1
 250 150 l 1
 250 400 l 1
 0 400 l 1
EndSplineSet
EndChar

StartChar: uniE2E2
Encoding: 58082 58082 379
Width: 1000
Flags: W
LayerCount: 2
Fore
SplineSet
250 900 m 1
 250 1400 l 1
 500 1400 l 1
 500 900 l 1
 750 900 l 1
 750 400 l 1
 500 400 l 1
 500 150 l 1
 250 150 l 1
 250 -100 l 1
 0 -100 l 1
 0 150 l 1
 250 150 l 1
 250 400 l 1
 0 400 l 1
 0 900 l 1
 250 900 l 1
500 650 m 1
 500 900 l 1
 250 900 l 1
 250 650 l 1
 500 650 l 1
EndSplineSet
EndChar

StartChar: uniE2E3
Encoding: 58083 58083 380
Width: 1000
Flags: W
LayerCount: 2
Fore
SplineSet
500 650 m 1
 500 1400 l 1
 750 1400 l 1
 750 400 l 1
 500 400 l 1
 500 150 l 1
 250 150 l 1
 250 -100 l 1
 0 -100 l 1
 0 150 l 1
 250 150 l 1
 250 400 l 1
 0 400 l 1
 0 900 l 1
 250 900 l 1
 250 650 l 1
 500 650 l 1
EndSplineSet
EndChar

StartChar: uniE2E4
Encoding: 58084 58084 381
Width: 1000
Flags: W
LayerCount: 2
Fore
SplineSet
0 400 m 1
 0 900 l 1
 250 900 l 1
 250 650 l 1
 500 650 l 1
 500 900 l 1
 750 900 l 1
 750 400 l 1
 500 400 l 1
 500 150 l 1
 250 150 l 1
 250 -350 l 1
 0 -350 l 1
 0 150 l 1
 250 150 l 1
 250 400 l 1
 0 400 l 1
EndSplineSet
EndChar

StartChar: uniE2E5
Encoding: 58085 58085 382
Width: 1000
Flags: W
LayerCount: 2
Fore
SplineSet
0 400 m 1
 0 900 l 1
 250 900 l 1
 250 650 l 1
 500 650 l 1
 500 900 l 1
 750 900 l 1
 750 400 l 1
 500 400 l 1
 500 -350 l 1
 250 -350 l 1
 250 -100 l 1
 0 -100 l 1
 0 150 l 1
 250 150 l 1
 250 400 l 1
 0 400 l 1
EndSplineSet
EndChar

StartChar: uniE2E6
Encoding: 58086 58086 383
Width: 1000
Flags: W
LayerCount: 2
Fore
SplineSet
0 400 m 1
 0 900 l 1
 250 900 l 1
 250 650 l 1
 500 650 l 1
 500 900 l 1
 750 900 l 1
 750 400 l 1
 500 400 l 1
 500 150 l 1
 750 150 l 1
 750 -350 l 1
 500 -350 l 1
 500 150 l 1
 250 150 l 1
 250 -100 l 1
 0 -100 l 1
 0 150 l 1
 250 150 l 1
 250 400 l 1
 0 400 l 1
EndSplineSet
EndChar

StartChar: uniE2E9
Encoding: 58089 58089 384
Width: 1000
Flags: W
LayerCount: 2
Fore
SplineSet
0 400 m 1
 0 1400 l 1
 250 1400 l 1
 250 650 l 1
 500 650 l 1
 500 900 l 1
 750 900 l 1
 750 400 l 1
 500 400 l 1
 500 -100 l 1
 250 -100 l 1
 250 400 l 1
 0 400 l 1
EndSplineSet
EndChar

StartChar: uniE2EA
Encoding: 58090 58090 385
Width: 1000
Flags: W
LayerCount: 2
Fore
SplineSet
250 900 m 1
 250 1400 l 1
 500 1400 l 1
 500 900 l 1
 750 900 l 1
 750 400 l 1
 500 400 l 1
 500 -100 l 1
 250 -100 l 1
 250 400 l 1
 0 400 l 1
 0 900 l 1
 250 900 l 1
500 650 m 1
 500 900 l 1
 250 900 l 1
 250 650 l 1
 500 650 l 1
EndSplineSet
EndChar

StartChar: uniE2EB
Encoding: 58091 58091 386
Width: 1000
Flags: W
LayerCount: 2
Fore
SplineSet
500 650 m 1
 500 1400 l 1
 750 1400 l 1
 750 400 l 1
 500 400 l 1
 500 -100 l 1
 250 -100 l 1
 250 400 l 1
 0 400 l 1
 0 900 l 1
 250 900 l 1
 250 650 l 1
 500 650 l 1
EndSplineSet
EndChar

StartChar: uniE2EC
Encoding: 58092 58092 387
Width: 1000
Flags: W
LayerCount: 2
Fore
SplineSet
0 400 m 1
 0 900 l 1
 250 900 l 1
 250 650 l 1
 500 650 l 1
 500 900 l 1
 750 900 l 1
 750 400 l 1
 500 400 l 1
 500 -100 l 1
 250 -100 l 1
 250 -350 l 1
 0 -350 l 1
 0 150 l 1
 250 150 l 1
 250 400 l 1
 0 400 l 1
EndSplineSet
EndChar

StartChar: uniE2ED
Encoding: 58093 58093 388
Width: 1000
Flags: W
LayerCount: 2
Fore
SplineSet
0 400 m 1
 0 900 l 1
 250 900 l 1
 250 650 l 1
 500 650 l 1
 500 900 l 1
 750 900 l 1
 750 400 l 1
 500 400 l 1
 500 -350 l 1
 250 -350 l 1
 250 400 l 1
 0 400 l 1
EndSplineSet
EndChar

StartChar: uniE2EE
Encoding: 58094 58094 389
Width: 1000
Flags: W
LayerCount: 2
Fore
SplineSet
0 400 m 1
 0 900 l 1
 250 900 l 1
 250 650 l 1
 500 650 l 1
 500 900 l 1
 750 900 l 1
 750 400 l 1
 500 400 l 1
 500 150 l 1
 750 150 l 1
 750 -350 l 1
 500 -350 l 1
 500 -100 l 1
 250 -100 l 1
 250 400 l 1
 0 400 l 1
EndSplineSet
EndChar

StartChar: uniE2F1
Encoding: 58097 58097 390
Width: 1000
Flags: W
LayerCount: 2
Fore
SplineSet
0 400 m 1
 0 1400 l 1
 250 1400 l 1
 250 650 l 1
 500 650 l 1
 500 900 l 1
 750 900 l 1
 750 400 l 1
 500 400 l 1
 500 150 l 1
 750 150 l 1
 750 -100 l 1
 500 -100 l 1
 500 150 l 1
 250 150 l 1
 250 400 l 1
 0 400 l 1
EndSplineSet
EndChar

StartChar: uniE2F2
Encoding: 58098 58098 391
Width: 1000
Flags: W
LayerCount: 2
Fore
SplineSet
250 900 m 1
 250 1400 l 1
 500 1400 l 1
 500 900 l 1
 750 900 l 1
 750 400 l 1
 500 400 l 1
 500 150 l 1
 750 150 l 1
 750 -100 l 1
 500 -100 l 1
 500 150 l 1
 250 150 l 1
 250 400 l 1
 0 400 l 1
 0 900 l 1
 250 900 l 1
500 650 m 1
 500 900 l 1
 250 900 l 1
 250 650 l 1
 500 650 l 1
EndSplineSet
EndChar

StartChar: uniE2F3
Encoding: 58099 58099 392
Width: 1000
Flags: W
LayerCount: 2
Fore
SplineSet
500 650 m 1
 500 1400 l 1
 750 1400 l 1
 750 400 l 1
 500 400 l 1
 500 150 l 1
 750 150 l 1
 750 -100 l 1
 500 -100 l 1
 500 150 l 1
 250 150 l 1
 250 400 l 1
 0 400 l 1
 0 900 l 1
 250 900 l 1
 250 650 l 1
 500 650 l 1
EndSplineSet
EndChar

StartChar: uniE2F4
Encoding: 58100 58100 393
Width: 1000
Flags: W
LayerCount: 2
Fore
SplineSet
0 400 m 1
 0 900 l 1
 250 900 l 1
 250 650 l 1
 500 650 l 1
 500 900 l 1
 750 900 l 1
 750 400 l 1
 500 400 l 1
 500 150 l 1
 750 150 l 1
 750 -100 l 1
 500 -100 l 1
 500 150 l 1
 250 150 l 1
 250 -350 l 1
 0 -350 l 1
 0 150 l 1
 250 150 l 1
 250 400 l 1
 0 400 l 1
EndSplineSet
EndChar

StartChar: uniE2F5
Encoding: 58101 58101 394
Width: 1000
Flags: W
LayerCount: 2
Fore
SplineSet
0 400 m 1
 0 900 l 1
 250 900 l 1
 250 650 l 1
 500 650 l 1
 500 900 l 1
 750 900 l 1
 750 400 l 1
 500 400 l 1
 500 150 l 1
 750 150 l 1
 750 -100 l 1
 500 -100 l 1
 500 -350 l 1
 250 -350 l 1
 250 400 l 1
 0 400 l 1
EndSplineSet
EndChar

StartChar: uniE2F6
Encoding: 58102 58102 395
Width: 1000
Flags: W
LayerCount: 2
Fore
SplineSet
0 400 m 1
 0 900 l 1
 250 900 l 1
 250 650 l 1
 500 650 l 1
 500 900 l 1
 750 900 l 1
 750 400 l 1
 500 400 l 1
 500 150 l 1
 750 150 l 1
 750 -350 l 1
 500 -350 l 1
 500 150 l 1
 250 150 l 1
 250 400 l 1
 0 400 l 1
EndSplineSet
EndChar

StartChar: uniE300
Encoding: 58112 58112 396
Width: 1000
Flags: W
LayerCount: 2
Fore
SplineSet
0 150 m 1
 0 900 l 1
 750 900 l 1
 750 650 l 1
 250 650 l 1
 250 400 l 1
 750 400 l 1
 750 150 l 1
 0 150 l 1
EndSplineSet
EndChar

StartChar: uniE301
Encoding: 58113 58113 397
Width: 1000
Flags: W
LayerCount: 2
Fore
SplineSet
0 150 m 1
 0 1150 l 1
 250 1150 l 1
 250 900 l 1
 750 900 l 1
 750 650 l 1
 250 650 l 1
 250 400 l 1
 750 400 l 1
 750 150 l 1
 0 150 l 1
EndSplineSet
EndChar

StartChar: uniE302
Encoding: 58114 58114 398
Width: 1000
Flags: W
LayerCount: 2
Fore
SplineSet
250 900 m 1
 250 1150 l 1
 500 1150 l 1
 500 900 l 1
 750 900 l 1
 750 650 l 1
 250 650 l 1
 250 400 l 1
 750 400 l 1
 750 150 l 1
 0 150 l 1
 0 900 l 1
 250 900 l 1
EndSplineSet
EndChar

StartChar: uniE303
Encoding: 58115 58115 399
Width: 1000
Flags: W
LayerCount: 2
Fore
SplineSet
500 900 m 1
 500 1150 l 1
 750 1150 l 1
 750 650 l 1
 250 650 l 1
 250 400 l 1
 750 400 l 1
 750 150 l 1
 0 150 l 1
 0 900 l 1
 500 900 l 1
EndSplineSet
EndChar

StartChar: uniE304
Encoding: 58116 58116 400
Width: 1000
Flags: W
LayerCount: 2
Fore
SplineSet
0 -100 m 1
 0 900 l 1
 750 900 l 1
 750 650 l 1
 250 650 l 1
 250 400 l 1
 750 400 l 1
 750 150 l 1
 250 150 l 1
 250 -100 l 1
 0 -100 l 1
EndSplineSet
EndChar

StartChar: uniE305
Encoding: 58117 58117 401
Width: 1000
Flags: W
LayerCount: 2
Fore
SplineSet
0 150 m 1
 0 900 l 1
 750 900 l 1
 750 650 l 1
 250 650 l 1
 250 400 l 1
 750 400 l 1
 750 150 l 1
 500 150 l 1
 500 -100 l 1
 250 -100 l 1
 250 150 l 1
 0 150 l 1
EndSplineSet
EndChar

StartChar: uniE306
Encoding: 58118 58118 402
Width: 1000
Flags: W
LayerCount: 2
Fore
SplineSet
0 150 m 1
 0 900 l 1
 750 900 l 1
 750 650 l 1
 250 650 l 1
 250 400 l 1
 750 400 l 1
 750 -100 l 1
 500 -100 l 1
 500 150 l 1
 0 150 l 1
EndSplineSet
EndChar

StartChar: uniE309
Encoding: 58121 58121 403
Width: 1000
Flags: W
LayerCount: 2
Fore
SplineSet
0 150 m 1
 0 1400 l 1
 250 1400 l 1
 250 900 l 1
 750 900 l 1
 750 650 l 1
 250 650 l 1
 250 400 l 1
 750 400 l 1
 750 150 l 1
 0 150 l 1
EndSplineSet
EndChar

StartChar: uniE30A
Encoding: 58122 58122 404
Width: 1000
Flags: W
LayerCount: 2
Fore
SplineSet
250 1150 m 1
 250 1400 l 1
 500 1400 l 1
 500 900 l 1
 750 900 l 1
 750 650 l 1
 250 650 l 1
 250 400 l 1
 750 400 l 1
 750 150 l 1
 0 150 l 1
 0 1150 l 1
 250 1150 l 1
EndSplineSet
EndChar

StartChar: uniE30B
Encoding: 58123 58123 405
Width: 1000
Flags: W
LayerCount: 2
Fore
SplineSet
500 900 m 1
 500 1400 l 1
 750 1400 l 1
 750 650 l 1
 250 650 l 1
 250 400 l 1
 750 400 l 1
 750 150 l 1
 0 150 l 1
 0 1150 l 1
 250 1150 l 1
 250 900 l 1
 500 900 l 1
EndSplineSet
EndChar

StartChar: uniE30C
Encoding: 58124 58124 406
Width: 1000
Flags: W
LayerCount: 2
Fore
SplineSet
0 -350 m 1
 0 1150 l 1
 250 1150 l 1
 250 900 l 1
 750 900 l 1
 750 650 l 1
 250 650 l 1
 250 400 l 1
 750 400 l 1
 750 150 l 1
 250 150 l 1
 250 -350 l 1
 0 -350 l 1
EndSplineSet
EndChar

StartChar: uniE30D
Encoding: 58125 58125 407
Width: 1000
Flags: W
LayerCount: 2
Fore
SplineSet
0 150 m 1
 0 1150 l 1
 250 1150 l 1
 250 900 l 1
 750 900 l 1
 750 650 l 1
 250 650 l 1
 250 400 l 1
 750 400 l 1
 750 150 l 1
 500 150 l 1
 500 -350 l 1
 250 -350 l 1
 250 150 l 1
 0 150 l 1
EndSplineSet
EndChar

StartChar: uniE30E
Encoding: 58126 58126 408
Width: 1000
Flags: W
LayerCount: 2
Fore
SplineSet
0 150 m 1
 0 1150 l 1
 250 1150 l 1
 250 900 l 1
 750 900 l 1
 750 650 l 1
 250 650 l 1
 250 400 l 1
 750 400 l 1
 750 -350 l 1
 500 -350 l 1
 500 150 l 1
 0 150 l 1
EndSplineSet
EndChar

StartChar: uniE311
Encoding: 58129 58129 409
Width: 1000
Flags: W
LayerCount: 2
Fore
SplineSet
0 150 m 1
 0 1400 l 1
 250 1400 l 1
 250 1150 l 1
 500 1150 l 1
 500 900 l 1
 750 900 l 1
 750 650 l 1
 250 650 l 1
 250 400 l 1
 750 400 l 1
 750 150 l 1
 0 150 l 1
EndSplineSet
EndChar

StartChar: uniE312
Encoding: 58130 58130 410
Width: 1000
Flags: W
LayerCount: 2
Fore
SplineSet
250 900 m 1
 250 1400 l 1
 500 1400 l 1
 500 900 l 1
 750 900 l 1
 750 650 l 1
 250 650 l 1
 250 400 l 1
 750 400 l 1
 750 150 l 1
 0 150 l 1
 0 900 l 1
 250 900 l 1
EndSplineSet
EndChar

StartChar: uniE313
Encoding: 58131 58131 411
Width: 1000
Flags: W
LayerCount: 2
Fore
SplineSet
500 1150 m 1
 500 1400 l 1
 750 1400 l 1
 750 650 l 1
 250 650 l 1
 250 400 l 1
 750 400 l 1
 750 150 l 1
 0 150 l 1
 0 900 l 1
 250 900 l 1
 250 1150 l 1
 500 1150 l 1
EndSplineSet
EndChar

StartChar: uniE314
Encoding: 58132 58132 412
Width: 1000
Flags: W
LayerCount: 2
Fore
SplineSet
250 900 m 1
 250 1150 l 1
 500 1150 l 1
 500 900 l 1
 750 900 l 1
 750 650 l 1
 250 650 l 1
 250 400 l 1
 750 400 l 1
 750 150 l 1
 250 150 l 1
 250 -350 l 1
 0 -350 l 1
 0 900 l 1
 250 900 l 1
EndSplineSet
EndChar

StartChar: uniE315
Encoding: 58133 58133 413
Width: 1000
Flags: W
LayerCount: 2
Fore
SplineSet
250 900 m 1
 250 1150 l 1
 500 1150 l 1
 500 900 l 1
 750 900 l 1
 750 650 l 1
 250 650 l 1
 250 400 l 1
 750 400 l 1
 750 150 l 1
 500 150 l 1
 500 -350 l 1
 250 -350 l 1
 250 150 l 1
 0 150 l 1
 0 900 l 1
 250 900 l 1
EndSplineSet
EndChar

StartChar: uniE316
Encoding: 58134 58134 414
Width: 1000
Flags: W
LayerCount: 2
Fore
SplineSet
250 900 m 1
 250 1150 l 1
 500 1150 l 1
 500 900 l 1
 750 900 l 1
 750 650 l 1
 250 650 l 1
 250 400 l 1
 750 400 l 1
 750 -350 l 1
 500 -350 l 1
 500 150 l 1
 0 150 l 1
 0 900 l 1
 250 900 l 1
EndSplineSet
EndChar

StartChar: uniE319
Encoding: 58137 58137 415
Width: 1000
Flags: W
LayerCount: 2
Fore
SplineSet
0 150 m 1
 0 1400 l 1
 250 1400 l 1
 250 900 l 1
 500 900 l 1
 500 1150 l 1
 750 1150 l 1
 750 650 l 1
 250 650 l 1
 250 400 l 1
 750 400 l 1
 750 150 l 1
 0 150 l 1
EndSplineSet
EndChar

StartChar: uniE31A
Encoding: 58138 58138 416
Width: 1000
Flags: W
LayerCount: 2
Fore
SplineSet
250 900 m 1
 250 1400 l 1
 500 1400 l 1
 500 1150 l 1
 750 1150 l 1
 750 650 l 1
 250 650 l 1
 250 400 l 1
 750 400 l 1
 750 150 l 1
 0 150 l 1
 0 900 l 1
 250 900 l 1
EndSplineSet
EndChar

StartChar: uniE31B
Encoding: 58139 58139 417
Width: 1000
Flags: W
LayerCount: 2
Fore
SplineSet
500 900 m 1
 500 1400 l 1
 750 1400 l 1
 750 650 l 1
 250 650 l 1
 250 400 l 1
 750 400 l 1
 750 150 l 1
 0 150 l 1
 0 900 l 1
 500 900 l 1
EndSplineSet
EndChar

StartChar: uniE31C
Encoding: 58140 58140 418
Width: 1000
Flags: W
LayerCount: 2
Fore
SplineSet
500 900 m 1
 500 1150 l 1
 750 1150 l 1
 750 650 l 1
 250 650 l 1
 250 400 l 1
 750 400 l 1
 750 150 l 1
 250 150 l 1
 250 -350 l 1
 0 -350 l 1
 0 900 l 1
 500 900 l 1
EndSplineSet
EndChar

StartChar: uniE31D
Encoding: 58141 58141 419
Width: 1000
Flags: W
LayerCount: 2
Fore
SplineSet
500 900 m 1
 500 1150 l 1
 750 1150 l 1
 750 650 l 1
 250 650 l 1
 250 400 l 1
 750 400 l 1
 750 150 l 1
 500 150 l 1
 500 -350 l 1
 250 -350 l 1
 250 150 l 1
 0 150 l 1
 0 900 l 1
 500 900 l 1
EndSplineSet
EndChar

StartChar: uniE31E
Encoding: 58142 58142 420
Width: 1000
Flags: W
LayerCount: 2
Fore
SplineSet
500 900 m 1
 500 1150 l 1
 750 1150 l 1
 750 650 l 1
 250 650 l 1
 250 400 l 1
 750 400 l 1
 750 -350 l 1
 500 -350 l 1
 500 150 l 1
 0 150 l 1
 0 900 l 1
 500 900 l 1
EndSplineSet
EndChar

StartChar: uniE321
Encoding: 58145 58145 421
Width: 1000
Flags: W
LayerCount: 2
Fore
SplineSet
0 -100 m 1
 0 1400 l 1
 250 1400 l 1
 250 900 l 1
 750 900 l 1
 750 650 l 1
 250 650 l 1
 250 400 l 1
 750 400 l 1
 750 150 l 1
 250 150 l 1
 250 -100 l 1
 0 -100 l 1
EndSplineSet
EndChar

StartChar: uniE322
Encoding: 58146 58146 422
Width: 1000
Flags: W
LayerCount: 2
Fore
SplineSet
250 900 m 1
 250 1400 l 1
 500 1400 l 1
 500 900 l 1
 750 900 l 1
 750 650 l 1
 250 650 l 1
 250 400 l 1
 750 400 l 1
 750 150 l 1
 250 150 l 1
 250 -100 l 1
 0 -100 l 1
 0 900 l 1
 250 900 l 1
EndSplineSet
EndChar

StartChar: uniE323
Encoding: 58147 58147 423
Width: 1000
Flags: W
LayerCount: 2
Fore
SplineSet
500 900 m 1
 500 1400 l 1
 750 1400 l 1
 750 650 l 1
 250 650 l 1
 250 400 l 1
 750 400 l 1
 750 150 l 1
 250 150 l 1
 250 -100 l 1
 0 -100 l 1
 0 900 l 1
 500 900 l 1
EndSplineSet
EndChar

StartChar: uniE324
Encoding: 58148 58148 424
Width: 1000
Flags: W
LayerCount: 2
Fore
SplineSet
0 -350 m 1
 0 900 l 1
 750 900 l 1
 750 650 l 1
 250 650 l 1
 250 400 l 1
 750 400 l 1
 750 150 l 1
 250 150 l 1
 250 -350 l 1
 0 -350 l 1
EndSplineSet
EndChar

StartChar: uniE325
Encoding: 58149 58149 425
Width: 1000
Flags: W
LayerCount: 2
Fore
SplineSet
0 -100 m 1
 0 900 l 1
 750 900 l 1
 750 650 l 1
 250 650 l 1
 250 400 l 1
 750 400 l 1
 750 150 l 1
 500 150 l 1
 500 -350 l 1
 250 -350 l 1
 250 -100 l 1
 0 -100 l 1
EndSplineSet
EndChar

StartChar: uniE326
Encoding: 58150 58150 426
Width: 1000
Flags: W
LayerCount: 2
Fore
SplineSet
0 -100 m 1
 0 900 l 1
 750 900 l 1
 750 650 l 1
 250 650 l 1
 250 400 l 1
 750 400 l 1
 750 -350 l 1
 500 -350 l 1
 500 150 l 1
 250 150 l 1
 250 -100 l 1
 0 -100 l 1
EndSplineSet
EndChar

StartChar: uniE329
Encoding: 58153 58153 427
Width: 1000
Flags: W
LayerCount: 2
Fore
SplineSet
0 150 m 1
 0 1400 l 1
 250 1400 l 1
 250 900 l 1
 750 900 l 1
 750 650 l 1
 250 650 l 1
 250 400 l 1
 750 400 l 1
 750 150 l 1
 500 150 l 1
 500 -100 l 1
 250 -100 l 1
 250 150 l 1
 0 150 l 1
EndSplineSet
EndChar

StartChar: uniE32A
Encoding: 58154 58154 428
Width: 1000
Flags: W
LayerCount: 2
Fore
SplineSet
250 900 m 1
 250 1400 l 1
 500 1400 l 1
 500 900 l 1
 750 900 l 1
 750 650 l 1
 250 650 l 1
 250 400 l 1
 750 400 l 1
 750 150 l 1
 500 150 l 1
 500 -100 l 1
 250 -100 l 1
 250 150 l 1
 0 150 l 1
 0 900 l 1
 250 900 l 1
EndSplineSet
EndChar

StartChar: uniE32B
Encoding: 58155 58155 429
Width: 1000
Flags: W
LayerCount: 2
Fore
SplineSet
500 900 m 1
 500 1400 l 1
 750 1400 l 1
 750 650 l 1
 250 650 l 1
 250 400 l 1
 750 400 l 1
 750 150 l 1
 500 150 l 1
 500 -100 l 1
 250 -100 l 1
 250 150 l 1
 0 150 l 1
 0 900 l 1
 500 900 l 1
EndSplineSet
EndChar

StartChar: uniE32C
Encoding: 58156 58156 430
Width: 1000
Flags: W
LayerCount: 2
Fore
SplineSet
0 -350 m 1
 0 900 l 1
 750 900 l 1
 750 650 l 1
 250 650 l 1
 250 400 l 1
 750 400 l 1
 750 150 l 1
 500 150 l 1
 500 -100 l 1
 250 -100 l 1
 250 -350 l 1
 0 -350 l 1
EndSplineSet
EndChar

StartChar: uniE32D
Encoding: 58157 58157 431
Width: 1000
Flags: W
LayerCount: 2
Fore
SplineSet
0 150 m 1
 0 900 l 1
 750 900 l 1
 750 650 l 1
 250 650 l 1
 250 400 l 1
 750 400 l 1
 750 150 l 1
 500 150 l 1
 500 -350 l 1
 250 -350 l 1
 250 150 l 1
 0 150 l 1
EndSplineSet
EndChar

StartChar: uniE32E
Encoding: 58158 58158 432
Width: 1000
Flags: W
LayerCount: 2
Fore
SplineSet
0 150 m 1
 0 900 l 1
 750 900 l 1
 750 650 l 1
 250 650 l 1
 250 400 l 1
 750 400 l 1
 750 -350 l 1
 500 -350 l 1
 500 -100 l 1
 250 -100 l 1
 250 150 l 1
 0 150 l 1
EndSplineSet
EndChar

StartChar: uniE331
Encoding: 58161 58161 433
Width: 1000
Flags: W
LayerCount: 2
Fore
SplineSet
0 150 m 1
 0 1400 l 1
 250 1400 l 1
 250 900 l 1
 750 900 l 1
 750 650 l 1
 250 650 l 1
 250 400 l 1
 750 400 l 1
 750 -100 l 1
 500 -100 l 1
 500 150 l 1
 0 150 l 1
EndSplineSet
EndChar

StartChar: uniE332
Encoding: 58162 58162 434
Width: 1000
Flags: W
LayerCount: 2
Fore
SplineSet
250 900 m 1
 250 1400 l 1
 500 1400 l 1
 500 900 l 1
 750 900 l 1
 750 650 l 1
 250 650 l 1
 250 400 l 1
 750 400 l 1
 750 -100 l 1
 500 -100 l 1
 500 150 l 1
 0 150 l 1
 0 900 l 1
 250 900 l 1
EndSplineSet
EndChar

StartChar: uniE333
Encoding: 58163 58163 435
Width: 1000
Flags: W
LayerCount: 2
Fore
SplineSet
500 900 m 1
 500 1400 l 1
 750 1400 l 1
 750 650 l 1
 250 650 l 1
 250 400 l 1
 750 400 l 1
 750 -100 l 1
 500 -100 l 1
 500 150 l 1
 0 150 l 1
 0 900 l 1
 500 900 l 1
EndSplineSet
EndChar

StartChar: uniE334
Encoding: 58164 58164 436
Width: 1000
Flags: W
LayerCount: 2
Fore
SplineSet
0 -350 m 1
 0 900 l 1
 750 900 l 1
 750 650 l 1
 250 650 l 1
 250 400 l 1
 750 400 l 1
 750 -100 l 1
 500 -100 l 1
 500 150 l 1
 250 150 l 1
 250 -350 l 1
 0 -350 l 1
EndSplineSet
EndChar

StartChar: uniE335
Encoding: 58165 58165 437
Width: 1000
Flags: W
LayerCount: 2
Fore
SplineSet
0 150 m 1
 0 900 l 1
 750 900 l 1
 750 650 l 1
 250 650 l 1
 250 400 l 1
 750 400 l 1
 750 -100 l 1
 500 -100 l 1
 500 -350 l 1
 250 -350 l 1
 250 150 l 1
 0 150 l 1
EndSplineSet
EndChar

StartChar: uniE336
Encoding: 58166 58166 438
Width: 1000
Flags: W
LayerCount: 2
Fore
SplineSet
0 150 m 1
 0 900 l 1
 750 900 l 1
 750 650 l 1
 250 650 l 1
 250 400 l 1
 750 400 l 1
 750 -350 l 1
 500 -350 l 1
 500 150 l 1
 0 150 l 1
EndSplineSet
EndChar

StartChar: uniE340
Encoding: 58176 58176 439
Width: 1000
Flags: W
LayerCount: 2
Fore
SplineSet
250 650 m 1
 250 900 l 1
 750 900 l 1
 750 650 l 1
 250 650 l 1
 250 400 l 1
 750 400 l 1
 750 150 l 1
 250 150 l 1
 250 400 l 1
 0 400 l 1
 0 650 l 1
 250 650 l 1
EndSplineSet
EndChar

StartChar: uniE341
Encoding: 58177 58177 440
Width: 1000
Flags: W
LayerCount: 2
Fore
SplineSet
0 900 m 1
 0 1150 l 1
 250 1150 l 1
 250 900 l 1
 750 900 l 1
 750 650 l 1
 250 650 l 1
 250 400 l 1
 750 400 l 1
 750 150 l 1
 250 150 l 1
 250 400 l 1
 0 400 l 1
 0 650 l 1
 250 650 l 1
 250 900 l 1
 0 900 l 1
EndSplineSet
EndChar

StartChar: uniE342
Encoding: 58178 58178 441
Width: 1000
Flags: W
LayerCount: 2
Fore
SplineSet
250 650 m 1
 250 1150 l 1
 500 1150 l 1
 500 900 l 1
 750 900 l 1
 750 650 l 1
 250 650 l 1
 250 400 l 1
 750 400 l 1
 750 150 l 1
 250 150 l 1
 250 400 l 1
 0 400 l 1
 0 650 l 1
 250 650 l 1
EndSplineSet
EndChar

StartChar: uniE343
Encoding: 58179 58179 442
Width: 1000
Flags: W
LayerCount: 2
Fore
SplineSet
500 900 m 1
 500 1150 l 1
 750 1150 l 1
 750 650 l 1
 250 650 l 1
 250 400 l 1
 750 400 l 1
 750 150 l 1
 250 150 l 1
 250 400 l 1
 0 400 l 1
 0 650 l 1
 250 650 l 1
 250 900 l 1
 500 900 l 1
EndSplineSet
EndChar

StartChar: uniE344
Encoding: 58180 58180 443
Width: 1000
Flags: W
LayerCount: 2
Fore
SplineSet
250 650 m 1
 250 900 l 1
 750 900 l 1
 750 650 l 1
 250 650 l 1
 250 400 l 1
 750 400 l 1
 750 150 l 1
 250 150 l 1
 250 -100 l 1
 0 -100 l 1
 0 150 l 1
 250 150 l 1
 250 400 l 1
 0 400 l 1
 0 650 l 1
 250 650 l 1
EndSplineSet
EndChar

StartChar: uniE345
Encoding: 58181 58181 444
Width: 1000
Flags: W
LayerCount: 2
Fore
SplineSet
250 650 m 1
 250 900 l 1
 750 900 l 1
 750 650 l 1
 250 650 l 1
 250 400 l 1
 750 400 l 1
 750 150 l 1
 500 150 l 1
 500 -100 l 1
 250 -100 l 1
 250 400 l 1
 0 400 l 1
 0 650 l 1
 250 650 l 1
EndSplineSet
EndChar

StartChar: uniE346
Encoding: 58182 58182 445
Width: 1000
Flags: W
LayerCount: 2
Fore
SplineSet
250 650 m 1
 250 900 l 1
 750 900 l 1
 750 650 l 1
 250 650 l 1
 250 400 l 1
 750 400 l 1
 750 -100 l 1
 500 -100 l 1
 500 150 l 1
 250 150 l 1
 250 400 l 1
 0 400 l 1
 0 650 l 1
 250 650 l 1
EndSplineSet
EndChar

StartChar: uniE349
Encoding: 58185 58185 446
Width: 1000
Flags: W
LayerCount: 2
Fore
SplineSet
0 900 m 1
 0 1400 l 1
 250 1400 l 1
 250 900 l 1
 750 900 l 1
 750 650 l 1
 250 650 l 1
 250 400 l 1
 750 400 l 1
 750 150 l 1
 250 150 l 1
 250 400 l 1
 0 400 l 1
 0 650 l 1
 250 650 l 1
 250 900 l 1
 0 900 l 1
EndSplineSet
EndChar

StartChar: uniE34A
Encoding: 58186 58186 447
Width: 1000
Flags: W
LayerCount: 2
Fore
SplineSet
250 1150 m 1
 250 1400 l 1
 500 1400 l 1
 500 900 l 1
 750 900 l 1
 750 650 l 1
 250 650 l 1
 250 400 l 1
 750 400 l 1
 750 150 l 1
 250 150 l 1
 250 400 l 1
 0 400 l 1
 0 650 l 1
 250 650 l 1
 250 900 l 1
 0 900 l 1
 0 1150 l 1
 250 1150 l 1
EndSplineSet
EndChar

StartChar: uniE34B
Encoding: 58187 58187 448
Width: 1000
Flags: W
LayerCount: 2
Fore
SplineSet
500 900 m 1
 500 1400 l 1
 750 1400 l 1
 750 650 l 1
 250 650 l 1
 250 400 l 1
 750 400 l 1
 750 150 l 1
 250 150 l 1
 250 400 l 1
 0 400 l 1
 0 650 l 1
 250 650 l 1
 250 900 l 1
 0 900 l 1
 0 1150 l 1
 250 1150 l 1
 250 900 l 1
 500 900 l 1
EndSplineSet
EndChar

StartChar: uniE34C
Encoding: 58188 58188 449
Width: 1000
Flags: W
LayerCount: 2
Fore
SplineSet
0 900 m 1
 0 1150 l 1
 250 1150 l 1
 250 900 l 1
 750 900 l 1
 750 650 l 1
 250 650 l 1
 250 400 l 1
 750 400 l 1
 750 150 l 1
 250 150 l 1
 250 -350 l 1
 0 -350 l 1
 0 150 l 1
 250 150 l 1
 250 400 l 1
 0 400 l 1
 0 650 l 1
 250 650 l 1
 250 900 l 1
 0 900 l 1
EndSplineSet
EndChar

StartChar: uniE34D
Encoding: 58189 58189 450
Width: 1000
Flags: W
LayerCount: 2
Fore
SplineSet
0 900 m 1
 0 1150 l 1
 250 1150 l 1
 250 900 l 1
 750 900 l 1
 750 650 l 1
 250 650 l 1
 250 400 l 1
 750 400 l 1
 750 150 l 1
 500 150 l 1
 500 -350 l 1
 250 -350 l 1
 250 400 l 1
 0 400 l 1
 0 650 l 1
 250 650 l 1
 250 900 l 1
 0 900 l 1
EndSplineSet
EndChar

StartChar: uniE34E
Encoding: 58190 58190 451
Width: 1000
Flags: W
LayerCount: 2
Fore
SplineSet
0 900 m 1
 0 1150 l 1
 250 1150 l 1
 250 900 l 1
 750 900 l 1
 750 650 l 1
 250 650 l 1
 250 400 l 1
 750 400 l 1
 750 -350 l 1
 500 -350 l 1
 500 150 l 1
 250 150 l 1
 250 400 l 1
 0 400 l 1
 0 650 l 1
 250 650 l 1
 250 900 l 1
 0 900 l 1
EndSplineSet
EndChar

StartChar: uniE351
Encoding: 58193 58193 452
Width: 1000
Flags: W
LayerCount: 2
Fore
SplineSet
0 900 m 1
 0 1400 l 1
 250 1400 l 1
 250 1150 l 1
 500 1150 l 1
 500 900 l 1
 750 900 l 1
 750 650 l 1
 250 650 l 1
 250 400 l 1
 750 400 l 1
 750 150 l 1
 250 150 l 1
 250 400 l 1
 0 400 l 1
 0 650 l 1
 250 650 l 1
 250 900 l 1
 0 900 l 1
EndSplineSet
EndChar

StartChar: uniE352
Encoding: 58194 58194 453
Width: 1000
Flags: W
LayerCount: 2
Fore
SplineSet
250 650 m 1
 250 1400 l 1
 500 1400 l 1
 500 900 l 1
 750 900 l 1
 750 650 l 1
 250 650 l 1
 250 400 l 1
 750 400 l 1
 750 150 l 1
 250 150 l 1
 250 400 l 1
 0 400 l 1
 0 650 l 1
 250 650 l 1
EndSplineSet
EndChar

StartChar: uniE353
Encoding: 58195 58195 454
Width: 1000
Flags: W
LayerCount: 2
Fore
SplineSet
500 1150 m 1
 500 1400 l 1
 750 1400 l 1
 750 650 l 1
 250 650 l 1
 250 400 l 1
 750 400 l 1
 750 150 l 1
 250 150 l 1
 250 400 l 1
 0 400 l 1
 0 650 l 1
 250 650 l 1
 250 1150 l 1
 500 1150 l 1
EndSplineSet
EndChar

StartChar: uniE354
Encoding: 58196 58196 455
Width: 1000
Flags: W
LayerCount: 2
Fore
SplineSet
250 650 m 1
 250 1150 l 1
 500 1150 l 1
 500 900 l 1
 750 900 l 1
 750 650 l 1
 250 650 l 1
 250 400 l 1
 750 400 l 1
 750 150 l 1
 250 150 l 1
 250 -350 l 1
 0 -350 l 1
 0 150 l 1
 250 150 l 1
 250 400 l 1
 0 400 l 1
 0 650 l 1
 250 650 l 1
EndSplineSet
EndChar

StartChar: uniE355
Encoding: 58197 58197 456
Width: 1000
Flags: W
LayerCount: 2
Fore
SplineSet
250 650 m 1
 250 1150 l 1
 500 1150 l 1
 500 900 l 1
 750 900 l 1
 750 650 l 1
 250 650 l 1
 250 400 l 1
 750 400 l 1
 750 150 l 1
 500 150 l 1
 500 -350 l 1
 250 -350 l 1
 250 400 l 1
 0 400 l 1
 0 650 l 1
 250 650 l 1
EndSplineSet
EndChar

StartChar: uniE356
Encoding: 58198 58198 457
Width: 1000
Flags: W
LayerCount: 2
Fore
SplineSet
250 650 m 1
 250 1150 l 1
 500 1150 l 1
 500 900 l 1
 750 900 l 1
 750 650 l 1
 250 650 l 1
 250 400 l 1
 750 400 l 1
 750 -350 l 1
 500 -350 l 1
 500 150 l 1
 250 150 l 1
 250 400 l 1
 0 400 l 1
 0 650 l 1
 250 650 l 1
EndSplineSet
EndChar

StartChar: uniE359
Encoding: 58201 58201 458
Width: 1000
Flags: W
LayerCount: 2
Fore
SplineSet
0 900 m 1
 0 1400 l 1
 250 1400 l 1
 250 900 l 1
 500 900 l 1
 500 1150 l 1
 750 1150 l 1
 750 650 l 1
 250 650 l 1
 250 400 l 1
 750 400 l 1
 750 150 l 1
 250 150 l 1
 250 400 l 1
 0 400 l 1
 0 650 l 1
 250 650 l 1
 250 900 l 1
 0 900 l 1
EndSplineSet
EndChar

StartChar: uniE35A
Encoding: 58202 58202 459
Width: 1000
Flags: W
LayerCount: 2
Fore
SplineSet
250 650 m 1
 250 1400 l 1
 500 1400 l 1
 500 1150 l 1
 750 1150 l 1
 750 650 l 1
 250 650 l 1
 250 400 l 1
 750 400 l 1
 750 150 l 1
 250 150 l 1
 250 400 l 1
 0 400 l 1
 0 650 l 1
 250 650 l 1
EndSplineSet
EndChar

StartChar: uniE35B
Encoding: 58203 58203 460
Width: 1000
Flags: W
LayerCount: 2
Fore
SplineSet
500 900 m 1
 500 1400 l 1
 750 1400 l 1
 750 650 l 1
 250 650 l 1
 250 400 l 1
 750 400 l 1
 750 150 l 1
 250 150 l 1
 250 400 l 1
 0 400 l 1
 0 650 l 1
 250 650 l 1
 250 900 l 1
 500 900 l 1
EndSplineSet
EndChar

StartChar: uniE35C
Encoding: 58204 58204 461
Width: 1000
Flags: W
LayerCount: 2
Fore
SplineSet
500 900 m 1
 500 1150 l 1
 750 1150 l 1
 750 650 l 1
 250 650 l 1
 250 400 l 1
 750 400 l 1
 750 150 l 1
 250 150 l 1
 250 -350 l 1
 0 -350 l 1
 0 150 l 1
 250 150 l 1
 250 400 l 1
 0 400 l 1
 0 650 l 1
 250 650 l 1
 250 900 l 1
 500 900 l 1
EndSplineSet
EndChar

StartChar: uniE35D
Encoding: 58205 58205 462
Width: 1000
Flags: W
LayerCount: 2
Fore
SplineSet
500 900 m 1
 500 1150 l 1
 750 1150 l 1
 750 650 l 1
 250 650 l 1
 250 400 l 1
 750 400 l 1
 750 150 l 1
 500 150 l 1
 500 -350 l 1
 250 -350 l 1
 250 400 l 1
 0 400 l 1
 0 650 l 1
 250 650 l 1
 250 900 l 1
 500 900 l 1
EndSplineSet
EndChar

StartChar: uniE35E
Encoding: 58206 58206 463
Width: 1000
Flags: W
LayerCount: 2
Fore
SplineSet
500 900 m 1
 500 1150 l 1
 750 1150 l 1
 750 650 l 1
 250 650 l 1
 250 400 l 1
 750 400 l 1
 750 -350 l 1
 500 -350 l 1
 500 150 l 1
 250 150 l 1
 250 400 l 1
 0 400 l 1
 0 650 l 1
 250 650 l 1
 250 900 l 1
 500 900 l 1
EndSplineSet
EndChar

StartChar: uniE361
Encoding: 58209 58209 464
Width: 1000
Flags: W
LayerCount: 2
Fore
SplineSet
0 900 m 1
 0 1400 l 1
 250 1400 l 1
 250 900 l 1
 750 900 l 1
 750 650 l 1
 250 650 l 1
 250 400 l 1
 750 400 l 1
 750 150 l 1
 250 150 l 1
 250 -100 l 1
 0 -100 l 1
 0 150 l 1
 250 150 l 1
 250 400 l 1
 0 400 l 1
 0 650 l 1
 250 650 l 1
 250 900 l 1
 0 900 l 1
EndSplineSet
EndChar

StartChar: uniE362
Encoding: 58210 58210 465
Width: 1000
Flags: W
LayerCount: 2
Fore
SplineSet
250 650 m 1
 250 1400 l 1
 500 1400 l 1
 500 900 l 1
 750 900 l 1
 750 650 l 1
 250 650 l 1
 250 400 l 1
 750 400 l 1
 750 150 l 1
 250 150 l 1
 250 -100 l 1
 0 -100 l 1
 0 150 l 1
 250 150 l 1
 250 400 l 1
 0 400 l 1
 0 650 l 1
 250 650 l 1
EndSplineSet
EndChar

StartChar: uniE363
Encoding: 58211 58211 466
Width: 1000
Flags: W
LayerCount: 2
Fore
SplineSet
500 900 m 1
 500 1400 l 1
 750 1400 l 1
 750 650 l 1
 250 650 l 1
 250 400 l 1
 750 400 l 1
 750 150 l 1
 250 150 l 1
 250 -100 l 1
 0 -100 l 1
 0 150 l 1
 250 150 l 1
 250 400 l 1
 0 400 l 1
 0 650 l 1
 250 650 l 1
 250 900 l 1
 500 900 l 1
EndSplineSet
EndChar

StartChar: uniE364
Encoding: 58212 58212 467
Width: 1000
Flags: W
LayerCount: 2
Fore
SplineSet
250 650 m 1
 250 900 l 1
 750 900 l 1
 750 650 l 1
 250 650 l 1
 250 400 l 1
 750 400 l 1
 750 150 l 1
 250 150 l 1
 250 -350 l 1
 0 -350 l 1
 0 150 l 1
 250 150 l 1
 250 400 l 1
 0 400 l 1
 0 650 l 1
 250 650 l 1
EndSplineSet
EndChar

StartChar: uniE365
Encoding: 58213 58213 468
Width: 1000
Flags: W
LayerCount: 2
Fore
SplineSet
250 650 m 1
 250 900 l 1
 750 900 l 1
 750 650 l 1
 250 650 l 1
 250 400 l 1
 750 400 l 1
 750 150 l 1
 500 150 l 1
 500 -350 l 1
 250 -350 l 1
 250 -100 l 1
 0 -100 l 1
 0 150 l 1
 250 150 l 1
 250 400 l 1
 0 400 l 1
 0 650 l 1
 250 650 l 1
EndSplineSet
EndChar

StartChar: uniE366
Encoding: 58214 58214 469
Width: 1000
Flags: W
LayerCount: 2
Fore
SplineSet
250 650 m 1
 250 900 l 1
 750 900 l 1
 750 650 l 1
 250 650 l 1
 250 400 l 1
 750 400 l 1
 750 -350 l 1
 500 -350 l 1
 500 150 l 1
 250 150 l 1
 250 -100 l 1
 0 -100 l 1
 0 150 l 1
 250 150 l 1
 250 400 l 1
 0 400 l 1
 0 650 l 1
 250 650 l 1
EndSplineSet
EndChar

StartChar: uniE369
Encoding: 58217 58217 470
Width: 1000
Flags: W
LayerCount: 2
Fore
SplineSet
0 900 m 1
 0 1400 l 1
 250 1400 l 1
 250 900 l 1
 750 900 l 1
 750 650 l 1
 250 650 l 1
 250 400 l 1
 750 400 l 1
 750 150 l 1
 500 150 l 1
 500 -100 l 1
 250 -100 l 1
 250 400 l 1
 0 400 l 1
 0 650 l 1
 250 650 l 1
 250 900 l 1
 0 900 l 1
EndSplineSet
EndChar

StartChar: uniE36A
Encoding: 58218 58218 471
Width: 1000
Flags: W
LayerCount: 2
Fore
SplineSet
250 650 m 1
 250 1400 l 1
 500 1400 l 1
 500 900 l 1
 750 900 l 1
 750 650 l 1
 250 650 l 1
 250 400 l 1
 750 400 l 1
 750 150 l 1
 500 150 l 1
 500 -100 l 1
 250 -100 l 1
 250 400 l 1
 0 400 l 1
 0 650 l 1
 250 650 l 1
EndSplineSet
EndChar

StartChar: uniE36B
Encoding: 58219 58219 472
Width: 1000
Flags: W
LayerCount: 2
Fore
SplineSet
500 900 m 1
 500 1400 l 1
 750 1400 l 1
 750 650 l 1
 250 650 l 1
 250 400 l 1
 750 400 l 1
 750 150 l 1
 500 150 l 1
 500 -100 l 1
 250 -100 l 1
 250 400 l 1
 0 400 l 1
 0 650 l 1
 250 650 l 1
 250 900 l 1
 500 900 l 1
EndSplineSet
EndChar

StartChar: uniE36C
Encoding: 58220 58220 473
Width: 1000
Flags: W
LayerCount: 2
Fore
SplineSet
250 650 m 1
 250 900 l 1
 750 900 l 1
 750 650 l 1
 250 650 l 1
 250 400 l 1
 750 400 l 1
 750 150 l 1
 500 150 l 1
 500 -100 l 1
 250 -100 l 1
 250 -350 l 1
 0 -350 l 1
 0 150 l 1
 250 150 l 1
 250 400 l 1
 0 400 l 1
 0 650 l 1
 250 650 l 1
EndSplineSet
EndChar

StartChar: uniE36D
Encoding: 58221 58221 474
Width: 1000
Flags: W
LayerCount: 2
Fore
SplineSet
250 650 m 1
 250 900 l 1
 750 900 l 1
 750 650 l 1
 250 650 l 1
 250 400 l 1
 750 400 l 1
 750 150 l 1
 500 150 l 1
 500 -350 l 1
 250 -350 l 1
 250 400 l 1
 0 400 l 1
 0 650 l 1
 250 650 l 1
EndSplineSet
EndChar

StartChar: uniE36E
Encoding: 58222 58222 475
Width: 1000
Flags: W
LayerCount: 2
Fore
SplineSet
250 650 m 1
 250 900 l 1
 750 900 l 1
 750 650 l 1
 250 650 l 1
 250 400 l 1
 750 400 l 1
 750 -350 l 1
 500 -350 l 1
 500 -100 l 1
 250 -100 l 1
 250 400 l 1
 0 400 l 1
 0 650 l 1
 250 650 l 1
EndSplineSet
EndChar

StartChar: uniE371
Encoding: 58225 58225 476
Width: 1000
Flags: W
LayerCount: 2
Fore
SplineSet
0 900 m 1
 0 1400 l 1
 250 1400 l 1
 250 900 l 1
 750 900 l 1
 750 650 l 1
 250 650 l 1
 250 400 l 1
 750 400 l 1
 750 -100 l 1
 500 -100 l 1
 500 150 l 1
 250 150 l 1
 250 400 l 1
 0 400 l 1
 0 650 l 1
 250 650 l 1
 250 900 l 1
 0 900 l 1
EndSplineSet
EndChar

StartChar: uniE372
Encoding: 58226 58226 477
Width: 1000
Flags: W
LayerCount: 2
Fore
SplineSet
250 650 m 1
 250 1400 l 1
 500 1400 l 1
 500 900 l 1
 750 900 l 1
 750 650 l 1
 250 650 l 1
 250 400 l 1
 750 400 l 1
 750 -100 l 1
 500 -100 l 1
 500 150 l 1
 250 150 l 1
 250 400 l 1
 0 400 l 1
 0 650 l 1
 250 650 l 1
EndSplineSet
EndChar

StartChar: uniE373
Encoding: 58227 58227 478
Width: 1000
Flags: W
LayerCount: 2
Fore
SplineSet
500 900 m 1
 500 1400 l 1
 750 1400 l 1
 750 650 l 1
 250 650 l 1
 250 400 l 1
 750 400 l 1
 750 -100 l 1
 500 -100 l 1
 500 150 l 1
 250 150 l 1
 250 400 l 1
 0 400 l 1
 0 650 l 1
 250 650 l 1
 250 900 l 1
 500 900 l 1
EndSplineSet
EndChar

StartChar: uniE374
Encoding: 58228 58228 479
Width: 1000
Flags: W
LayerCount: 2
Fore
SplineSet
250 650 m 1
 250 900 l 1
 750 900 l 1
 750 650 l 1
 250 650 l 1
 250 400 l 1
 750 400 l 1
 750 -100 l 1
 500 -100 l 1
 500 150 l 1
 250 150 l 1
 250 -350 l 1
 0 -350 l 1
 0 150 l 1
 250 150 l 1
 250 400 l 1
 0 400 l 1
 0 650 l 1
 250 650 l 1
EndSplineSet
EndChar

StartChar: uniE375
Encoding: 58229 58229 480
Width: 1000
Flags: W
LayerCount: 2
Fore
SplineSet
250 650 m 1
 250 900 l 1
 750 900 l 1
 750 650 l 1
 250 650 l 1
 250 400 l 1
 750 400 l 1
 750 -100 l 1
 500 -100 l 1
 500 -350 l 1
 250 -350 l 1
 250 400 l 1
 0 400 l 1
 0 650 l 1
 250 650 l 1
EndSplineSet
EndChar

StartChar: uniE376
Encoding: 58230 58230 481
Width: 1000
Flags: W
LayerCount: 2
Fore
SplineSet
250 650 m 1
 250 900 l 1
 750 900 l 1
 750 650 l 1
 250 650 l 1
 250 400 l 1
 750 400 l 1
 750 -350 l 1
 500 -350 l 1
 500 150 l 1
 250 150 l 1
 250 400 l 1
 0 400 l 1
 0 650 l 1
 250 650 l 1
EndSplineSet
EndChar

StartChar: uniE380
Encoding: 58240 58240 482
Width: 1000
Flags: W
LayerCount: 2
Fore
SplineSet
0 150 m 1
 0 900 l 1
 750 900 l 1
 750 650 l 1
 500 650 l 1
 500 400 l 1
 750 400 l 1
 750 150 l 1
 0 150 l 1
EndSplineSet
EndChar

StartChar: uniE381
Encoding: 58241 58241 483
Width: 1000
Flags: W
LayerCount: 2
Fore
SplineSet
0 150 m 1
 0 1150 l 1
 250 1150 l 1
 250 900 l 1
 750 900 l 1
 750 650 l 1
 500 650 l 1
 500 400 l 1
 750 400 l 1
 750 150 l 1
 0 150 l 1
EndSplineSet
EndChar

StartChar: uniE382
Encoding: 58242 58242 484
Width: 1000
Flags: W
LayerCount: 2
Fore
SplineSet
250 900 m 1
 250 1150 l 1
 500 1150 l 1
 500 900 l 1
 750 900 l 1
 750 650 l 1
 500 650 l 1
 500 400 l 1
 750 400 l 1
 750 150 l 1
 0 150 l 1
 0 900 l 1
 250 900 l 1
EndSplineSet
EndChar

StartChar: uniE383
Encoding: 58243 58243 485
Width: 1000
Flags: W
LayerCount: 2
Fore
SplineSet
500 900 m 1
 500 1150 l 1
 750 1150 l 1
 750 650 l 1
 500 650 l 1
 500 400 l 1
 750 400 l 1
 750 150 l 1
 0 150 l 1
 0 900 l 1
 500 900 l 1
EndSplineSet
EndChar

StartChar: uniE384
Encoding: 58244 58244 486
Width: 1000
Flags: W
LayerCount: 2
Fore
SplineSet
0 -100 m 1
 0 900 l 1
 750 900 l 1
 750 650 l 1
 500 650 l 1
 500 400 l 1
 750 400 l 1
 750 150 l 1
 250 150 l 1
 250 -100 l 1
 0 -100 l 1
EndSplineSet
EndChar

StartChar: uniE385
Encoding: 58245 58245 487
Width: 1000
Flags: W
LayerCount: 2
Fore
SplineSet
0 150 m 1
 0 900 l 1
 750 900 l 1
 750 650 l 1
 500 650 l 1
 500 400 l 1
 750 400 l 1
 750 150 l 1
 500 150 l 1
 500 -100 l 1
 250 -100 l 1
 250 150 l 1
 0 150 l 1
EndSplineSet
EndChar

StartChar: uniE386
Encoding: 58246 58246 488
Width: 1000
Flags: W
LayerCount: 2
Fore
SplineSet
0 150 m 1
 0 900 l 1
 750 900 l 1
 750 650 l 1
 500 650 l 1
 500 400 l 1
 750 400 l 1
 750 -100 l 1
 500 -100 l 1
 500 150 l 1
 0 150 l 1
EndSplineSet
EndChar

StartChar: uniE389
Encoding: 58249 58249 489
Width: 1000
Flags: W
LayerCount: 2
Fore
SplineSet
0 150 m 1
 0 1400 l 1
 250 1400 l 1
 250 900 l 1
 750 900 l 1
 750 650 l 1
 500 650 l 1
 500 400 l 1
 750 400 l 1
 750 150 l 1
 0 150 l 1
EndSplineSet
EndChar

StartChar: uniE38A
Encoding: 58250 58250 490
Width: 1000
Flags: W
LayerCount: 2
Fore
SplineSet
250 1150 m 1
 250 1400 l 1
 500 1400 l 1
 500 900 l 1
 750 900 l 1
 750 650 l 1
 500 650 l 1
 500 400 l 1
 750 400 l 1
 750 150 l 1
 0 150 l 1
 0 1150 l 1
 250 1150 l 1
EndSplineSet
EndChar

StartChar: uniE38B
Encoding: 58251 58251 491
Width: 1000
Flags: W
LayerCount: 2
Fore
SplineSet
500 900 m 1
 500 1400 l 1
 750 1400 l 1
 750 650 l 1
 500 650 l 1
 500 400 l 1
 750 400 l 1
 750 150 l 1
 0 150 l 1
 0 1150 l 1
 250 1150 l 1
 250 900 l 1
 500 900 l 1
EndSplineSet
EndChar

StartChar: uniE38C
Encoding: 58252 58252 492
Width: 1000
Flags: W
LayerCount: 2
Fore
SplineSet
0 -350 m 1
 0 1150 l 1
 250 1150 l 1
 250 900 l 1
 750 900 l 1
 750 650 l 1
 500 650 l 1
 500 400 l 1
 750 400 l 1
 750 150 l 1
 250 150 l 1
 250 -350 l 1
 0 -350 l 1
EndSplineSet
EndChar

StartChar: uniE38D
Encoding: 58253 58253 493
Width: 1000
Flags: W
LayerCount: 2
Fore
SplineSet
0 150 m 1
 0 1150 l 1
 250 1150 l 1
 250 900 l 1
 750 900 l 1
 750 650 l 1
 500 650 l 1
 500 400 l 1
 750 400 l 1
 750 150 l 1
 500 150 l 1
 500 -350 l 1
 250 -350 l 1
 250 150 l 1
 0 150 l 1
EndSplineSet
EndChar

StartChar: uniE38E
Encoding: 58254 58254 494
Width: 1000
Flags: W
LayerCount: 2
Fore
SplineSet
0 150 m 1
 0 1150 l 1
 250 1150 l 1
 250 900 l 1
 750 900 l 1
 750 650 l 1
 500 650 l 1
 500 400 l 1
 750 400 l 1
 750 -350 l 1
 500 -350 l 1
 500 150 l 1
 0 150 l 1
EndSplineSet
EndChar

StartChar: uniE391
Encoding: 58257 58257 495
Width: 1000
Flags: W
LayerCount: 2
Fore
SplineSet
0 150 m 1
 0 1400 l 1
 250 1400 l 1
 250 1150 l 1
 500 1150 l 1
 500 900 l 1
 750 900 l 1
 750 650 l 1
 500 650 l 1
 500 400 l 1
 750 400 l 1
 750 150 l 1
 0 150 l 1
EndSplineSet
EndChar

StartChar: uniE392
Encoding: 58258 58258 496
Width: 1000
Flags: W
LayerCount: 2
Fore
SplineSet
250 900 m 1
 250 1400 l 1
 500 1400 l 1
 500 900 l 1
 750 900 l 1
 750 650 l 1
 500 650 l 1
 500 400 l 1
 750 400 l 1
 750 150 l 1
 0 150 l 1
 0 900 l 1
 250 900 l 1
EndSplineSet
EndChar

StartChar: uniE393
Encoding: 58259 58259 497
Width: 1000
Flags: W
LayerCount: 2
Fore
SplineSet
500 1150 m 1
 500 1400 l 1
 750 1400 l 1
 750 650 l 1
 500 650 l 1
 500 400 l 1
 750 400 l 1
 750 150 l 1
 0 150 l 1
 0 900 l 1
 250 900 l 1
 250 1150 l 1
 500 1150 l 1
EndSplineSet
EndChar

StartChar: uniE394
Encoding: 58260 58260 498
Width: 1000
Flags: W
LayerCount: 2
Fore
SplineSet
250 900 m 1
 250 1150 l 1
 500 1150 l 1
 500 900 l 1
 750 900 l 1
 750 650 l 1
 500 650 l 1
 500 400 l 1
 750 400 l 1
 750 150 l 1
 250 150 l 1
 250 -350 l 1
 0 -350 l 1
 0 900 l 1
 250 900 l 1
EndSplineSet
EndChar

StartChar: uniE395
Encoding: 58261 58261 499
Width: 1000
Flags: W
LayerCount: 2
Fore
SplineSet
250 900 m 1
 250 1150 l 1
 500 1150 l 1
 500 900 l 1
 750 900 l 1
 750 650 l 1
 500 650 l 1
 500 400 l 1
 750 400 l 1
 750 150 l 1
 500 150 l 1
 500 -350 l 1
 250 -350 l 1
 250 150 l 1
 0 150 l 1
 0 900 l 1
 250 900 l 1
EndSplineSet
EndChar

StartChar: uniE396
Encoding: 58262 58262 500
Width: 1000
Flags: W
LayerCount: 2
Fore
SplineSet
250 900 m 1
 250 1150 l 1
 500 1150 l 1
 500 900 l 1
 750 900 l 1
 750 650 l 1
 500 650 l 1
 500 400 l 1
 750 400 l 1
 750 -350 l 1
 500 -350 l 1
 500 150 l 1
 0 150 l 1
 0 900 l 1
 250 900 l 1
EndSplineSet
EndChar

StartChar: uniE399
Encoding: 58265 58265 501
Width: 1000
Flags: W
LayerCount: 2
Fore
SplineSet
0 150 m 1
 0 1400 l 1
 250 1400 l 1
 250 900 l 1
 500 900 l 1
 500 1150 l 1
 750 1150 l 1
 750 650 l 1
 500 650 l 1
 500 400 l 1
 750 400 l 1
 750 150 l 1
 0 150 l 1
EndSplineSet
EndChar

StartChar: uniE39A
Encoding: 58266 58266 502
Width: 1000
Flags: W
LayerCount: 2
Fore
SplineSet
250 900 m 1
 250 1400 l 1
 500 1400 l 1
 500 1150 l 1
 750 1150 l 1
 750 650 l 1
 500 650 l 1
 500 400 l 1
 750 400 l 1
 750 150 l 1
 0 150 l 1
 0 900 l 1
 250 900 l 1
EndSplineSet
EndChar

StartChar: uniE39B
Encoding: 58267 58267 503
Width: 1000
Flags: W
LayerCount: 2
Fore
SplineSet
500 900 m 1
 500 1400 l 1
 750 1400 l 1
 750 650 l 1
 500 650 l 1
 500 400 l 1
 750 400 l 1
 750 150 l 1
 0 150 l 1
 0 900 l 1
 500 900 l 1
EndSplineSet
EndChar

StartChar: uniE39C
Encoding: 58268 58268 504
Width: 1000
Flags: W
LayerCount: 2
Fore
SplineSet
500 900 m 1
 500 1150 l 1
 750 1150 l 1
 750 650 l 1
 500 650 l 1
 500 400 l 1
 750 400 l 1
 750 150 l 1
 250 150 l 1
 250 -350 l 1
 0 -350 l 1
 0 900 l 1
 500 900 l 1
EndSplineSet
EndChar

StartChar: uniE39D
Encoding: 58269 58269 505
Width: 1000
Flags: W
LayerCount: 2
Fore
SplineSet
500 900 m 1
 500 1150 l 1
 750 1150 l 1
 750 650 l 1
 500 650 l 1
 500 400 l 1
 750 400 l 1
 750 150 l 1
 500 150 l 1
 500 -350 l 1
 250 -350 l 1
 250 150 l 1
 0 150 l 1
 0 900 l 1
 500 900 l 1
EndSplineSet
EndChar

StartChar: uniE39E
Encoding: 58270 58270 506
Width: 1000
Flags: W
LayerCount: 2
Fore
SplineSet
500 900 m 1
 500 1150 l 1
 750 1150 l 1
 750 650 l 1
 500 650 l 1
 500 400 l 1
 750 400 l 1
 750 -350 l 1
 500 -350 l 1
 500 150 l 1
 0 150 l 1
 0 900 l 1
 500 900 l 1
EndSplineSet
EndChar

StartChar: uniE3A1
Encoding: 58273 58273 507
Width: 1000
Flags: W
LayerCount: 2
Fore
SplineSet
0 -100 m 1
 0 1400 l 1
 250 1400 l 1
 250 900 l 1
 750 900 l 1
 750 650 l 1
 500 650 l 1
 500 400 l 1
 750 400 l 1
 750 150 l 1
 250 150 l 1
 250 -100 l 1
 0 -100 l 1
EndSplineSet
EndChar

StartChar: uniE3A2
Encoding: 58274 58274 508
Width: 1000
Flags: W
LayerCount: 2
Fore
SplineSet
250 900 m 1
 250 1400 l 1
 500 1400 l 1
 500 900 l 1
 750 900 l 1
 750 650 l 1
 500 650 l 1
 500 400 l 1
 750 400 l 1
 750 150 l 1
 250 150 l 1
 250 -100 l 1
 0 -100 l 1
 0 900 l 1
 250 900 l 1
EndSplineSet
EndChar

StartChar: uniE3A3
Encoding: 58275 58275 509
Width: 1000
Flags: W
LayerCount: 2
Fore
SplineSet
500 900 m 1
 500 1400 l 1
 750 1400 l 1
 750 650 l 1
 500 650 l 1
 500 400 l 1
 750 400 l 1
 750 150 l 1
 250 150 l 1
 250 -100 l 1
 0 -100 l 1
 0 900 l 1
 500 900 l 1
EndSplineSet
EndChar

StartChar: uniE3A4
Encoding: 58276 58276 510
Width: 1000
Flags: W
LayerCount: 2
Fore
SplineSet
0 -350 m 1
 0 900 l 1
 750 900 l 1
 750 650 l 1
 500 650 l 1
 500 400 l 1
 750 400 l 1
 750 150 l 1
 250 150 l 1
 250 -350 l 1
 0 -350 l 1
EndSplineSet
EndChar

StartChar: uniE3A5
Encoding: 58277 58277 511
Width: 1000
Flags: W
LayerCount: 2
Fore
SplineSet
0 -100 m 1
 0 900 l 1
 750 900 l 1
 750 650 l 1
 500 650 l 1
 500 400 l 1
 750 400 l 1
 750 150 l 1
 500 150 l 1
 500 -350 l 1
 250 -350 l 1
 250 -100 l 1
 0 -100 l 1
EndSplineSet
EndChar

StartChar: uniE3A6
Encoding: 58278 58278 512
Width: 1000
Flags: W
LayerCount: 2
Fore
SplineSet
0 -100 m 1
 0 900 l 1
 750 900 l 1
 750 650 l 1
 500 650 l 1
 500 400 l 1
 750 400 l 1
 750 -350 l 1
 500 -350 l 1
 500 150 l 1
 250 150 l 1
 250 -100 l 1
 0 -100 l 1
EndSplineSet
EndChar

StartChar: uniE3A9
Encoding: 58281 58281 513
Width: 1000
Flags: W
LayerCount: 2
Fore
SplineSet
0 150 m 1
 0 1400 l 1
 250 1400 l 1
 250 900 l 1
 750 900 l 1
 750 650 l 1
 500 650 l 1
 500 400 l 1
 750 400 l 1
 750 150 l 1
 500 150 l 1
 500 -100 l 1
 250 -100 l 1
 250 150 l 1
 0 150 l 1
EndSplineSet
EndChar

StartChar: uniE3AA
Encoding: 58282 58282 514
Width: 1000
Flags: W
LayerCount: 2
Fore
SplineSet
250 900 m 1
 250 1400 l 1
 500 1400 l 1
 500 900 l 1
 750 900 l 1
 750 650 l 1
 500 650 l 1
 500 400 l 1
 750 400 l 1
 750 150 l 1
 500 150 l 1
 500 -100 l 1
 250 -100 l 1
 250 150 l 1
 0 150 l 1
 0 900 l 1
 250 900 l 1
EndSplineSet
EndChar

StartChar: uniE3AB
Encoding: 58283 58283 515
Width: 1000
Flags: W
LayerCount: 2
Fore
SplineSet
500 900 m 1
 500 1400 l 1
 750 1400 l 1
 750 650 l 1
 500 650 l 1
 500 400 l 1
 750 400 l 1
 750 150 l 1
 500 150 l 1
 500 -100 l 1
 250 -100 l 1
 250 150 l 1
 0 150 l 1
 0 900 l 1
 500 900 l 1
EndSplineSet
EndChar

StartChar: uniE3AC
Encoding: 58284 58284 516
Width: 1000
Flags: W
LayerCount: 2
Fore
SplineSet
0 -350 m 1
 0 900 l 1
 750 900 l 1
 750 650 l 1
 500 650 l 1
 500 400 l 1
 750 400 l 1
 750 150 l 1
 500 150 l 1
 500 -100 l 1
 250 -100 l 1
 250 -350 l 1
 0 -350 l 1
EndSplineSet
EndChar

StartChar: uniE3AD
Encoding: 58285 58285 517
Width: 1000
Flags: W
LayerCount: 2
Fore
SplineSet
0 150 m 1
 0 900 l 1
 750 900 l 1
 750 650 l 1
 500 650 l 1
 500 400 l 1
 750 400 l 1
 750 150 l 1
 500 150 l 1
 500 -350 l 1
 250 -350 l 1
 250 150 l 1
 0 150 l 1
EndSplineSet
EndChar

StartChar: uniE3AE
Encoding: 58286 58286 518
Width: 1000
Flags: W
LayerCount: 2
Fore
SplineSet
0 150 m 1
 0 900 l 1
 750 900 l 1
 750 650 l 1
 500 650 l 1
 500 400 l 1
 750 400 l 1
 750 -350 l 1
 500 -350 l 1
 500 -100 l 1
 250 -100 l 1
 250 150 l 1
 0 150 l 1
EndSplineSet
EndChar

StartChar: uniE3B1
Encoding: 58289 58289 519
Width: 1000
Flags: W
LayerCount: 2
Fore
SplineSet
0 150 m 1
 0 1400 l 1
 250 1400 l 1
 250 900 l 1
 750 900 l 1
 750 650 l 1
 500 650 l 1
 500 400 l 1
 750 400 l 1
 750 -100 l 1
 500 -100 l 1
 500 150 l 1
 0 150 l 1
EndSplineSet
EndChar

StartChar: uniE3B2
Encoding: 58290 58290 520
Width: 1000
Flags: W
LayerCount: 2
Fore
SplineSet
250 900 m 1
 250 1400 l 1
 500 1400 l 1
 500 900 l 1
 750 900 l 1
 750 650 l 1
 500 650 l 1
 500 400 l 1
 750 400 l 1
 750 -100 l 1
 500 -100 l 1
 500 150 l 1
 0 150 l 1
 0 900 l 1
 250 900 l 1
EndSplineSet
EndChar

StartChar: uniE3B3
Encoding: 58291 58291 521
Width: 1000
Flags: W
LayerCount: 2
Fore
SplineSet
500 900 m 1
 500 1400 l 1
 750 1400 l 1
 750 650 l 1
 500 650 l 1
 500 400 l 1
 750 400 l 1
 750 -100 l 1
 500 -100 l 1
 500 150 l 1
 0 150 l 1
 0 900 l 1
 500 900 l 1
EndSplineSet
EndChar

StartChar: uniE3B4
Encoding: 58292 58292 522
Width: 1000
Flags: W
LayerCount: 2
Fore
SplineSet
0 -350 m 1
 0 900 l 1
 750 900 l 1
 750 650 l 1
 500 650 l 1
 500 400 l 1
 750 400 l 1
 750 -100 l 1
 500 -100 l 1
 500 150 l 1
 250 150 l 1
 250 -350 l 1
 0 -350 l 1
EndSplineSet
EndChar

StartChar: uniE3B5
Encoding: 58293 58293 523
Width: 1000
Flags: W
LayerCount: 2
Fore
SplineSet
0 150 m 1
 0 900 l 1
 750 900 l 1
 750 650 l 1
 500 650 l 1
 500 400 l 1
 750 400 l 1
 750 -100 l 1
 500 -100 l 1
 500 -350 l 1
 250 -350 l 1
 250 150 l 1
 0 150 l 1
EndSplineSet
EndChar

StartChar: uniE3B6
Encoding: 58294 58294 524
Width: 1000
Flags: W
LayerCount: 2
Fore
SplineSet
0 150 m 1
 0 900 l 1
 750 900 l 1
 750 650 l 1
 500 650 l 1
 500 400 l 1
 750 400 l 1
 750 -350 l 1
 500 -350 l 1
 500 150 l 1
 0 150 l 1
EndSplineSet
EndChar

StartChar: uniE3C0
Encoding: 58304 58304 525
Width: 1000
Flags: W
LayerCount: 2
Fore
SplineSet
250 650 m 1
 250 900 l 1
 750 900 l 1
 750 650 l 1
 500 650 l 1
 500 400 l 1
 750 400 l 1
 750 150 l 1
 250 150 l 1
 250 400 l 1
 0 400 l 1
 0 650 l 1
 250 650 l 1
EndSplineSet
EndChar

StartChar: uniE3C1
Encoding: 58305 58305 526
Width: 1000
Flags: W
LayerCount: 2
Fore
SplineSet
0 900 m 1
 0 1150 l 1
 250 1150 l 1
 250 900 l 1
 750 900 l 1
 750 650 l 1
 500 650 l 1
 500 400 l 1
 750 400 l 1
 750 150 l 1
 250 150 l 1
 250 400 l 1
 0 400 l 1
 0 650 l 1
 250 650 l 1
 250 900 l 1
 0 900 l 1
EndSplineSet
EndChar

StartChar: uniE3C2
Encoding: 58306 58306 527
Width: 1000
Flags: W
LayerCount: 2
Fore
SplineSet
250 650 m 1
 250 1150 l 1
 500 1150 l 1
 500 900 l 1
 750 900 l 1
 750 650 l 1
 500 650 l 1
 500 400 l 1
 750 400 l 1
 750 150 l 1
 250 150 l 1
 250 400 l 1
 0 400 l 1
 0 650 l 1
 250 650 l 1
EndSplineSet
EndChar

StartChar: uniE3C3
Encoding: 58307 58307 528
Width: 1000
Flags: W
LayerCount: 2
Fore
SplineSet
500 900 m 1
 500 1150 l 1
 750 1150 l 1
 750 650 l 1
 500 650 l 1
 500 400 l 1
 750 400 l 1
 750 150 l 1
 250 150 l 1
 250 400 l 1
 0 400 l 1
 0 650 l 1
 250 650 l 1
 250 900 l 1
 500 900 l 1
EndSplineSet
EndChar

StartChar: uniE3C4
Encoding: 58308 58308 529
Width: 1000
Flags: W
LayerCount: 2
Fore
SplineSet
250 650 m 1
 250 900 l 1
 750 900 l 1
 750 650 l 1
 500 650 l 1
 500 400 l 1
 750 400 l 1
 750 150 l 1
 250 150 l 1
 250 -100 l 1
 0 -100 l 1
 0 150 l 1
 250 150 l 1
 250 400 l 1
 0 400 l 1
 0 650 l 1
 250 650 l 1
EndSplineSet
EndChar

StartChar: uniE3C5
Encoding: 58309 58309 530
Width: 1000
Flags: W
LayerCount: 2
Fore
SplineSet
250 650 m 1
 250 900 l 1
 750 900 l 1
 750 650 l 1
 500 650 l 1
 500 400 l 1
 750 400 l 1
 750 150 l 1
 500 150 l 1
 500 -100 l 1
 250 -100 l 1
 250 400 l 1
 0 400 l 1
 0 650 l 1
 250 650 l 1
EndSplineSet
EndChar

StartChar: uniE3C6
Encoding: 58310 58310 531
Width: 1000
Flags: W
LayerCount: 2
Fore
SplineSet
250 650 m 1
 250 900 l 1
 750 900 l 1
 750 650 l 1
 500 650 l 1
 500 400 l 1
 750 400 l 1
 750 -100 l 1
 500 -100 l 1
 500 150 l 1
 250 150 l 1
 250 400 l 1
 0 400 l 1
 0 650 l 1
 250 650 l 1
EndSplineSet
EndChar

StartChar: uniE3C9
Encoding: 58313 58313 532
Width: 1000
Flags: W
LayerCount: 2
Fore
SplineSet
0 900 m 1
 0 1400 l 1
 250 1400 l 1
 250 900 l 1
 750 900 l 1
 750 650 l 1
 500 650 l 1
 500 400 l 1
 750 400 l 1
 750 150 l 1
 250 150 l 1
 250 400 l 1
 0 400 l 1
 0 650 l 1
 250 650 l 1
 250 900 l 1
 0 900 l 1
EndSplineSet
EndChar

StartChar: uniE3CA
Encoding: 58314 58314 533
Width: 1000
Flags: W
LayerCount: 2
Fore
SplineSet
250 1150 m 1
 250 1400 l 1
 500 1400 l 1
 500 900 l 1
 750 900 l 1
 750 650 l 1
 500 650 l 1
 500 400 l 1
 750 400 l 1
 750 150 l 1
 250 150 l 1
 250 400 l 1
 0 400 l 1
 0 650 l 1
 250 650 l 1
 250 900 l 1
 0 900 l 1
 0 1150 l 1
 250 1150 l 1
EndSplineSet
EndChar

StartChar: uniE3CB
Encoding: 58315 58315 534
Width: 1000
Flags: W
LayerCount: 2
Fore
SplineSet
500 900 m 1
 500 1400 l 1
 750 1400 l 1
 750 650 l 1
 500 650 l 1
 500 400 l 1
 750 400 l 1
 750 150 l 1
 250 150 l 1
 250 400 l 1
 0 400 l 1
 0 650 l 1
 250 650 l 1
 250 900 l 1
 0 900 l 1
 0 1150 l 1
 250 1150 l 1
 250 900 l 1
 500 900 l 1
EndSplineSet
EndChar

StartChar: uniE3CC
Encoding: 58316 58316 535
Width: 1000
Flags: W
LayerCount: 2
Fore
SplineSet
0 900 m 1
 0 1150 l 1
 250 1150 l 1
 250 900 l 1
 750 900 l 1
 750 650 l 1
 500 650 l 1
 500 400 l 1
 750 400 l 1
 750 150 l 1
 250 150 l 1
 250 -350 l 1
 0 -350 l 1
 0 150 l 1
 250 150 l 1
 250 400 l 1
 0 400 l 1
 0 650 l 1
 250 650 l 1
 250 900 l 1
 0 900 l 1
EndSplineSet
EndChar

StartChar: uniE3CD
Encoding: 58317 58317 536
Width: 1000
Flags: W
LayerCount: 2
Fore
SplineSet
0 900 m 1
 0 1150 l 1
 250 1150 l 1
 250 900 l 1
 750 900 l 1
 750 650 l 1
 500 650 l 1
 500 400 l 1
 750 400 l 1
 750 150 l 1
 500 150 l 1
 500 -350 l 1
 250 -350 l 1
 250 400 l 1
 0 400 l 1
 0 650 l 1
 250 650 l 1
 250 900 l 1
 0 900 l 1
EndSplineSet
EndChar

StartChar: uniE3CE
Encoding: 58318 58318 537
Width: 1000
Flags: W
LayerCount: 2
Fore
SplineSet
0 900 m 1
 0 1150 l 1
 250 1150 l 1
 250 900 l 1
 750 900 l 1
 750 650 l 1
 500 650 l 1
 500 400 l 1
 750 400 l 1
 750 -350 l 1
 500 -350 l 1
 500 150 l 1
 250 150 l 1
 250 400 l 1
 0 400 l 1
 0 650 l 1
 250 650 l 1
 250 900 l 1
 0 900 l 1
EndSplineSet
EndChar

StartChar: uniE3D1
Encoding: 58321 58321 538
Width: 1000
Flags: W
LayerCount: 2
Fore
SplineSet
0 900 m 1
 0 1400 l 1
 250 1400 l 1
 250 1150 l 1
 500 1150 l 1
 500 900 l 1
 750 900 l 1
 750 650 l 1
 500 650 l 1
 500 400 l 1
 750 400 l 1
 750 150 l 1
 250 150 l 1
 250 400 l 1
 0 400 l 1
 0 650 l 1
 250 650 l 1
 250 900 l 1
 0 900 l 1
EndSplineSet
EndChar

StartChar: uniE3D2
Encoding: 58322 58322 539
Width: 1000
Flags: W
LayerCount: 2
Fore
SplineSet
250 650 m 1
 250 1400 l 1
 500 1400 l 1
 500 900 l 1
 750 900 l 1
 750 650 l 1
 500 650 l 1
 500 400 l 1
 750 400 l 1
 750 150 l 1
 250 150 l 1
 250 400 l 1
 0 400 l 1
 0 650 l 1
 250 650 l 1
EndSplineSet
EndChar

StartChar: uniE3D3
Encoding: 58323 58323 540
Width: 1000
Flags: W
LayerCount: 2
Fore
SplineSet
500 1150 m 1
 500 1400 l 1
 750 1400 l 1
 750 650 l 1
 500 650 l 1
 500 400 l 1
 750 400 l 1
 750 150 l 1
 250 150 l 1
 250 400 l 1
 0 400 l 1
 0 650 l 1
 250 650 l 1
 250 1150 l 1
 500 1150 l 1
EndSplineSet
EndChar

StartChar: uniE3D4
Encoding: 58324 58324 541
Width: 1000
Flags: W
LayerCount: 2
Fore
SplineSet
250 650 m 1
 250 1150 l 1
 500 1150 l 1
 500 900 l 1
 750 900 l 1
 750 650 l 1
 500 650 l 1
 500 400 l 1
 750 400 l 1
 750 150 l 1
 250 150 l 1
 250 -350 l 1
 0 -350 l 1
 0 150 l 1
 250 150 l 1
 250 400 l 1
 0 400 l 1
 0 650 l 1
 250 650 l 1
EndSplineSet
EndChar

StartChar: uniE3D5
Encoding: 58325 58325 542
Width: 1000
Flags: W
LayerCount: 2
Fore
SplineSet
250 650 m 1
 250 1150 l 1
 500 1150 l 1
 500 900 l 1
 750 900 l 1
 750 650 l 1
 500 650 l 1
 500 400 l 1
 750 400 l 1
 750 150 l 1
 500 150 l 1
 500 -350 l 1
 250 -350 l 1
 250 400 l 1
 0 400 l 1
 0 650 l 1
 250 650 l 1
EndSplineSet
EndChar

StartChar: uniE3D6
Encoding: 58326 58326 543
Width: 1000
Flags: W
LayerCount: 2
Fore
SplineSet
250 650 m 1
 250 1150 l 1
 500 1150 l 1
 500 900 l 1
 750 900 l 1
 750 650 l 1
 500 650 l 1
 500 400 l 1
 750 400 l 1
 750 -350 l 1
 500 -350 l 1
 500 150 l 1
 250 150 l 1
 250 400 l 1
 0 400 l 1
 0 650 l 1
 250 650 l 1
EndSplineSet
EndChar

StartChar: uniE3D9
Encoding: 58329 58329 544
Width: 1000
Flags: W
LayerCount: 2
Fore
SplineSet
0 900 m 1
 0 1400 l 1
 250 1400 l 1
 250 900 l 1
 500 900 l 1
 500 1150 l 1
 750 1150 l 1
 750 650 l 1
 500 650 l 1
 500 400 l 1
 750 400 l 1
 750 150 l 1
 250 150 l 1
 250 400 l 1
 0 400 l 1
 0 650 l 1
 250 650 l 1
 250 900 l 1
 0 900 l 1
EndSplineSet
EndChar

StartChar: uniE3DA
Encoding: 58330 58330 545
Width: 1000
Flags: W
LayerCount: 2
Fore
SplineSet
250 650 m 1
 250 1400 l 1
 500 1400 l 1
 500 1150 l 1
 750 1150 l 1
 750 650 l 1
 500 650 l 1
 500 400 l 1
 750 400 l 1
 750 150 l 1
 250 150 l 1
 250 400 l 1
 0 400 l 1
 0 650 l 1
 250 650 l 1
EndSplineSet
EndChar

StartChar: uniE3DB
Encoding: 58331 58331 546
Width: 1000
Flags: W
LayerCount: 2
Fore
SplineSet
500 900 m 1
 500 1400 l 1
 750 1400 l 1
 750 650 l 1
 500 650 l 1
 500 400 l 1
 750 400 l 1
 750 150 l 1
 250 150 l 1
 250 400 l 1
 0 400 l 1
 0 650 l 1
 250 650 l 1
 250 900 l 1
 500 900 l 1
EndSplineSet
EndChar

StartChar: uniE3DC
Encoding: 58332 58332 547
Width: 1000
Flags: W
LayerCount: 2
Fore
SplineSet
500 900 m 1
 500 1150 l 1
 750 1150 l 1
 750 650 l 1
 500 650 l 1
 500 400 l 1
 750 400 l 1
 750 150 l 1
 250 150 l 1
 250 -350 l 1
 0 -350 l 1
 0 150 l 1
 250 150 l 1
 250 400 l 1
 0 400 l 1
 0 650 l 1
 250 650 l 1
 250 900 l 1
 500 900 l 1
EndSplineSet
EndChar

StartChar: uniE3DD
Encoding: 58333 58333 548
Width: 1000
Flags: W
LayerCount: 2
Fore
SplineSet
500 900 m 1
 500 1150 l 1
 750 1150 l 1
 750 650 l 1
 500 650 l 1
 500 400 l 1
 750 400 l 1
 750 150 l 1
 500 150 l 1
 500 -350 l 1
 250 -350 l 1
 250 400 l 1
 0 400 l 1
 0 650 l 1
 250 650 l 1
 250 900 l 1
 500 900 l 1
EndSplineSet
EndChar

StartChar: uniE3DE
Encoding: 58334 58334 549
Width: 1000
Flags: W
LayerCount: 2
Fore
SplineSet
500 900 m 1
 500 1150 l 1
 750 1150 l 1
 750 650 l 1
 500 650 l 1
 500 400 l 1
 750 400 l 1
 750 -350 l 1
 500 -350 l 1
 500 150 l 1
 250 150 l 1
 250 400 l 1
 0 400 l 1
 0 650 l 1
 250 650 l 1
 250 900 l 1
 500 900 l 1
EndSplineSet
EndChar

StartChar: uniE3E1
Encoding: 58337 58337 550
Width: 1000
Flags: W
LayerCount: 2
Fore
SplineSet
0 900 m 1
 0 1400 l 1
 250 1400 l 1
 250 900 l 1
 750 900 l 1
 750 650 l 1
 500 650 l 1
 500 400 l 1
 750 400 l 1
 750 150 l 1
 250 150 l 1
 250 -100 l 1
 0 -100 l 1
 0 150 l 1
 250 150 l 1
 250 400 l 1
 0 400 l 1
 0 650 l 1
 250 650 l 1
 250 900 l 1
 0 900 l 1
EndSplineSet
EndChar

StartChar: uniE3E2
Encoding: 58338 58338 551
Width: 1000
Flags: W
LayerCount: 2
Fore
SplineSet
250 650 m 1
 250 1400 l 1
 500 1400 l 1
 500 900 l 1
 750 900 l 1
 750 650 l 1
 500 650 l 1
 500 400 l 1
 750 400 l 1
 750 150 l 1
 250 150 l 1
 250 -100 l 1
 0 -100 l 1
 0 150 l 1
 250 150 l 1
 250 400 l 1
 0 400 l 1
 0 650 l 1
 250 650 l 1
EndSplineSet
EndChar

StartChar: uniE3E3
Encoding: 58339 58339 552
Width: 1000
Flags: W
LayerCount: 2
Fore
SplineSet
500 900 m 1
 500 1400 l 1
 750 1400 l 1
 750 650 l 1
 500 650 l 1
 500 400 l 1
 750 400 l 1
 750 150 l 1
 250 150 l 1
 250 -100 l 1
 0 -100 l 1
 0 150 l 1
 250 150 l 1
 250 400 l 1
 0 400 l 1
 0 650 l 1
 250 650 l 1
 250 900 l 1
 500 900 l 1
EndSplineSet
EndChar

StartChar: uniE3E4
Encoding: 58340 58340 553
Width: 1000
Flags: W
LayerCount: 2
Fore
SplineSet
250 650 m 1
 250 900 l 1
 750 900 l 1
 750 650 l 1
 500 650 l 1
 500 400 l 1
 750 400 l 1
 750 150 l 1
 250 150 l 1
 250 -350 l 1
 0 -350 l 1
 0 150 l 1
 250 150 l 1
 250 400 l 1
 0 400 l 1
 0 650 l 1
 250 650 l 1
EndSplineSet
EndChar

StartChar: uniE3E5
Encoding: 58341 58341 554
Width: 1000
Flags: W
LayerCount: 2
Fore
SplineSet
250 650 m 1
 250 900 l 1
 750 900 l 1
 750 650 l 1
 500 650 l 1
 500 400 l 1
 750 400 l 1
 750 150 l 1
 500 150 l 1
 500 -350 l 1
 250 -350 l 1
 250 -100 l 1
 0 -100 l 1
 0 150 l 1
 250 150 l 1
 250 400 l 1
 0 400 l 1
 0 650 l 1
 250 650 l 1
EndSplineSet
EndChar

StartChar: uniE3E6
Encoding: 58342 58342 555
Width: 1000
Flags: W
LayerCount: 2
Fore
SplineSet
250 650 m 1
 250 900 l 1
 750 900 l 1
 750 650 l 1
 500 650 l 1
 500 400 l 1
 750 400 l 1
 750 -350 l 1
 500 -350 l 1
 500 150 l 1
 250 150 l 1
 250 -100 l 1
 0 -100 l 1
 0 150 l 1
 250 150 l 1
 250 400 l 1
 0 400 l 1
 0 650 l 1
 250 650 l 1
EndSplineSet
EndChar

StartChar: uniE3E9
Encoding: 58345 58345 556
Width: 1000
Flags: W
LayerCount: 2
Fore
SplineSet
0 900 m 1
 0 1400 l 1
 250 1400 l 1
 250 900 l 1
 750 900 l 1
 750 650 l 1
 500 650 l 1
 500 400 l 1
 750 400 l 1
 750 150 l 1
 500 150 l 1
 500 -100 l 1
 250 -100 l 1
 250 400 l 1
 0 400 l 1
 0 650 l 1
 250 650 l 1
 250 900 l 1
 0 900 l 1
EndSplineSet
EndChar

StartChar: uniE3EA
Encoding: 58346 58346 557
Width: 1000
Flags: W
LayerCount: 2
Fore
SplineSet
250 650 m 1
 250 1400 l 1
 500 1400 l 1
 500 900 l 1
 750 900 l 1
 750 650 l 1
 500 650 l 1
 500 400 l 1
 750 400 l 1
 750 150 l 1
 500 150 l 1
 500 -100 l 1
 250 -100 l 1
 250 400 l 1
 0 400 l 1
 0 650 l 1
 250 650 l 1
EndSplineSet
EndChar

StartChar: uniE3EB
Encoding: 58347 58347 558
Width: 1000
Flags: W
LayerCount: 2
Fore
SplineSet
500 900 m 1
 500 1400 l 1
 750 1400 l 1
 750 650 l 1
 500 650 l 1
 500 400 l 1
 750 400 l 1
 750 150 l 1
 500 150 l 1
 500 -100 l 1
 250 -100 l 1
 250 400 l 1
 0 400 l 1
 0 650 l 1
 250 650 l 1
 250 900 l 1
 500 900 l 1
EndSplineSet
EndChar

StartChar: uniE3EC
Encoding: 58348 58348 559
Width: 1000
Flags: W
LayerCount: 2
Fore
SplineSet
250 650 m 1
 250 900 l 1
 750 900 l 1
 750 650 l 1
 500 650 l 1
 500 400 l 1
 750 400 l 1
 750 150 l 1
 500 150 l 1
 500 -100 l 1
 250 -100 l 1
 250 -350 l 1
 0 -350 l 1
 0 150 l 1
 250 150 l 1
 250 400 l 1
 0 400 l 1
 0 650 l 1
 250 650 l 1
EndSplineSet
EndChar

StartChar: uniE3ED
Encoding: 58349 58349 560
Width: 1000
Flags: W
LayerCount: 2
Fore
SplineSet
250 650 m 1
 250 900 l 1
 750 900 l 1
 750 650 l 1
 500 650 l 1
 500 400 l 1
 750 400 l 1
 750 150 l 1
 500 150 l 1
 500 -350 l 1
 250 -350 l 1
 250 400 l 1
 0 400 l 1
 0 650 l 1
 250 650 l 1
EndSplineSet
EndChar

StartChar: uniE3EE
Encoding: 58350 58350 561
Width: 1000
Flags: W
LayerCount: 2
Fore
SplineSet
250 650 m 1
 250 900 l 1
 750 900 l 1
 750 650 l 1
 500 650 l 1
 500 400 l 1
 750 400 l 1
 750 -350 l 1
 500 -350 l 1
 500 -100 l 1
 250 -100 l 1
 250 400 l 1
 0 400 l 1
 0 650 l 1
 250 650 l 1
EndSplineSet
EndChar

StartChar: uniE3F1
Encoding: 58353 58353 562
Width: 1000
Flags: W
LayerCount: 2
Fore
SplineSet
0 900 m 1
 0 1400 l 1
 250 1400 l 1
 250 900 l 1
 750 900 l 1
 750 650 l 1
 500 650 l 1
 500 400 l 1
 750 400 l 1
 750 -100 l 1
 500 -100 l 1
 500 150 l 1
 250 150 l 1
 250 400 l 1
 0 400 l 1
 0 650 l 1
 250 650 l 1
 250 900 l 1
 0 900 l 1
EndSplineSet
EndChar

StartChar: uniE3F2
Encoding: 58354 58354 563
Width: 1000
Flags: W
LayerCount: 2
Fore
SplineSet
250 650 m 1
 250 1400 l 1
 500 1400 l 1
 500 900 l 1
 750 900 l 1
 750 650 l 1
 500 650 l 1
 500 400 l 1
 750 400 l 1
 750 -100 l 1
 500 -100 l 1
 500 150 l 1
 250 150 l 1
 250 400 l 1
 0 400 l 1
 0 650 l 1
 250 650 l 1
EndSplineSet
EndChar

StartChar: uniE3F3
Encoding: 58355 58355 564
Width: 1000
Flags: W
LayerCount: 2
Fore
SplineSet
500 900 m 1
 500 1400 l 1
 750 1400 l 1
 750 650 l 1
 500 650 l 1
 500 400 l 1
 750 400 l 1
 750 -100 l 1
 500 -100 l 1
 500 150 l 1
 250 150 l 1
 250 400 l 1
 0 400 l 1
 0 650 l 1
 250 650 l 1
 250 900 l 1
 500 900 l 1
EndSplineSet
EndChar

StartChar: uniE3F4
Encoding: 58356 58356 565
Width: 1000
Flags: W
LayerCount: 2
Fore
SplineSet
250 650 m 1
 250 900 l 1
 750 900 l 1
 750 650 l 1
 500 650 l 1
 500 400 l 1
 750 400 l 1
 750 -100 l 1
 500 -100 l 1
 500 150 l 1
 250 150 l 1
 250 -350 l 1
 0 -350 l 1
 0 150 l 1
 250 150 l 1
 250 400 l 1
 0 400 l 1
 0 650 l 1
 250 650 l 1
EndSplineSet
EndChar

StartChar: uniE3F5
Encoding: 58357 58357 566
Width: 1000
Flags: W
LayerCount: 2
Fore
SplineSet
250 650 m 1
 250 900 l 1
 750 900 l 1
 750 650 l 1
 500 650 l 1
 500 400 l 1
 750 400 l 1
 750 -100 l 1
 500 -100 l 1
 500 -350 l 1
 250 -350 l 1
 250 400 l 1
 0 400 l 1
 0 650 l 1
 250 650 l 1
EndSplineSet
EndChar

StartChar: uniE3F6
Encoding: 58358 58358 567
Width: 1000
Flags: W
LayerCount: 2
Fore
SplineSet
250 650 m 1
 250 900 l 1
 750 900 l 1
 750 650 l 1
 500 650 l 1
 500 400 l 1
 750 400 l 1
 750 -350 l 1
 500 -350 l 1
 500 150 l 1
 250 150 l 1
 250 400 l 1
 0 400 l 1
 0 650 l 1
 250 650 l 1
EndSplineSet
EndChar

StartChar: uniE400
Encoding: 58368 58368 568
Width: 1000
Flags: W
LayerCount: 2
Fore
SplineSet
0 650 m 1
 0 900 l 1
 750 900 l 1
 750 150 l 1
 500 150 l 1
 500 650 l 1
 0 650 l 1
EndSplineSet
EndChar

StartChar: uniE401
Encoding: 58369 58369 569
Width: 1000
Flags: W
LayerCount: 2
Fore
SplineSet
0 650 m 1
 0 1150 l 1
 250 1150 l 1
 250 900 l 1
 750 900 l 1
 750 150 l 1
 500 150 l 1
 500 650 l 1
 0 650 l 1
EndSplineSet
EndChar

StartChar: uniE402
Encoding: 58370 58370 570
Width: 1000
Flags: W
LayerCount: 2
Fore
SplineSet
250 900 m 1
 250 1150 l 1
 500 1150 l 1
 500 900 l 1
 750 900 l 1
 750 150 l 1
 500 150 l 1
 500 650 l 1
 0 650 l 1
 0 900 l 1
 250 900 l 1
EndSplineSet
EndChar

StartChar: uniE403
Encoding: 58371 58371 571
Width: 1000
Flags: W
LayerCount: 2
Fore
SplineSet
500 900 m 1
 500 1150 l 1
 750 1150 l 1
 750 150 l 1
 500 150 l 1
 500 650 l 1
 0 650 l 1
 0 900 l 1
 500 900 l 1
EndSplineSet
EndChar

StartChar: uniE404
Encoding: 58372 58372 572
Width: 1000
Flags: W
LayerCount: 2
Fore
SplineSet
0 650 m 1
 0 900 l 1
 750 900 l 1
 750 150 l 1
 500 150 l 1
 500 650 l 1
 0 650 l 1
0 -100 m 1
 0 150 l 1
 250 150 l 1
 250 -100 l 1
 0 -100 l 1
EndSplineSet
EndChar

StartChar: uniE405
Encoding: 58373 58373 573
Width: 1000
Flags: W
LayerCount: 2
Fore
SplineSet
0 650 m 1
 0 900 l 1
 750 900 l 1
 750 150 l 1
 500 150 l 1
 500 -100 l 1
 250 -100 l 1
 250 150 l 1
 500 150 l 1
 500 650 l 1
 0 650 l 1
EndSplineSet
EndChar

StartChar: uniE406
Encoding: 58374 58374 574
Width: 1000
Flags: W
LayerCount: 2
Fore
SplineSet
0 650 m 1
 0 900 l 1
 750 900 l 1
 750 -100 l 1
 500 -100 l 1
 500 650 l 1
 0 650 l 1
EndSplineSet
EndChar

StartChar: uniE409
Encoding: 58377 58377 575
Width: 1000
Flags: W
LayerCount: 2
Fore
SplineSet
0 650 m 1
 0 1400 l 1
 250 1400 l 1
 250 900 l 1
 750 900 l 1
 750 150 l 1
 500 150 l 1
 500 650 l 1
 0 650 l 1
EndSplineSet
EndChar

StartChar: uniE40A
Encoding: 58378 58378 576
Width: 1000
Flags: W
LayerCount: 2
Fore
SplineSet
250 1150 m 1
 250 1400 l 1
 500 1400 l 1
 500 900 l 1
 750 900 l 1
 750 150 l 1
 500 150 l 1
 500 650 l 1
 0 650 l 1
 0 1150 l 1
 250 1150 l 1
EndSplineSet
EndChar

StartChar: uniE40B
Encoding: 58379 58379 577
Width: 1000
Flags: W
LayerCount: 2
Fore
SplineSet
500 900 m 1
 500 1400 l 1
 750 1400 l 1
 750 150 l 1
 500 150 l 1
 500 650 l 1
 0 650 l 1
 0 1150 l 1
 250 1150 l 1
 250 900 l 1
 500 900 l 1
EndSplineSet
EndChar

StartChar: uniE40C
Encoding: 58380 58380 578
Width: 1000
Flags: W
LayerCount: 2
Fore
SplineSet
0 650 m 1
 0 1150 l 1
 250 1150 l 1
 250 900 l 1
 750 900 l 1
 750 150 l 1
 500 150 l 1
 500 650 l 1
 0 650 l 1
0 -350 m 1
 0 150 l 1
 250 150 l 1
 250 -350 l 1
 0 -350 l 1
EndSplineSet
EndChar

StartChar: uniE40D
Encoding: 58381 58381 579
Width: 1000
Flags: W
LayerCount: 2
Fore
SplineSet
0 650 m 1
 0 1150 l 1
 250 1150 l 1
 250 900 l 1
 750 900 l 1
 750 150 l 1
 500 150 l 1
 500 -350 l 1
 250 -350 l 1
 250 150 l 1
 500 150 l 1
 500 650 l 1
 0 650 l 1
EndSplineSet
EndChar

StartChar: uniE40E
Encoding: 58382 58382 580
Width: 1000
Flags: W
LayerCount: 2
Fore
SplineSet
0 650 m 1
 0 1150 l 1
 250 1150 l 1
 250 900 l 1
 750 900 l 1
 750 -350 l 1
 500 -350 l 1
 500 650 l 1
 0 650 l 1
EndSplineSet
EndChar

StartChar: uniE411
Encoding: 58385 58385 581
Width: 1000
Flags: W
LayerCount: 2
Fore
SplineSet
0 650 m 1
 0 1400 l 1
 250 1400 l 1
 250 1150 l 1
 500 1150 l 1
 500 900 l 1
 750 900 l 1
 750 150 l 1
 500 150 l 1
 500 650 l 1
 0 650 l 1
EndSplineSet
EndChar

StartChar: uniE412
Encoding: 58386 58386 582
Width: 1000
Flags: W
LayerCount: 2
Fore
SplineSet
250 900 m 1
 250 1400 l 1
 500 1400 l 1
 500 900 l 1
 750 900 l 1
 750 150 l 1
 500 150 l 1
 500 650 l 1
 0 650 l 1
 0 900 l 1
 250 900 l 1
EndSplineSet
EndChar

StartChar: uniE413
Encoding: 58387 58387 583
Width: 1000
Flags: W
LayerCount: 2
Fore
SplineSet
500 1150 m 1
 500 1400 l 1
 750 1400 l 1
 750 150 l 1
 500 150 l 1
 500 650 l 1
 0 650 l 1
 0 900 l 1
 250 900 l 1
 250 1150 l 1
 500 1150 l 1
EndSplineSet
EndChar

StartChar: uniE414
Encoding: 58388 58388 584
Width: 1000
Flags: W
LayerCount: 2
Fore
SplineSet
250 900 m 1
 250 1150 l 1
 500 1150 l 1
 500 900 l 1
 750 900 l 1
 750 150 l 1
 500 150 l 1
 500 650 l 1
 0 650 l 1
 0 900 l 1
 250 900 l 1
0 -350 m 1
 0 150 l 1
 250 150 l 1
 250 -350 l 1
 0 -350 l 1
EndSplineSet
EndChar

StartChar: uniE415
Encoding: 58389 58389 585
Width: 1000
Flags: W
LayerCount: 2
Fore
SplineSet
250 900 m 1
 250 1150 l 1
 500 1150 l 1
 500 900 l 1
 750 900 l 1
 750 150 l 1
 500 150 l 1
 500 -350 l 1
 250 -350 l 1
 250 150 l 1
 500 150 l 1
 500 650 l 1
 0 650 l 1
 0 900 l 1
 250 900 l 1
EndSplineSet
EndChar

StartChar: uniE416
Encoding: 58390 58390 586
Width: 1000
Flags: W
LayerCount: 2
Fore
SplineSet
250 900 m 1
 250 1150 l 1
 500 1150 l 1
 500 900 l 1
 750 900 l 1
 750 -350 l 1
 500 -350 l 1
 500 650 l 1
 0 650 l 1
 0 900 l 1
 250 900 l 1
EndSplineSet
EndChar

StartChar: uniE419
Encoding: 58393 58393 587
Width: 1000
Flags: W
LayerCount: 2
Fore
SplineSet
0 650 m 1
 0 1400 l 1
 250 1400 l 1
 250 900 l 1
 500 900 l 1
 500 1150 l 1
 750 1150 l 1
 750 150 l 1
 500 150 l 1
 500 650 l 1
 0 650 l 1
EndSplineSet
EndChar

StartChar: uniE41A
Encoding: 58394 58394 588
Width: 1000
Flags: W
LayerCount: 2
Fore
SplineSet
250 900 m 1
 250 1400 l 1
 500 1400 l 1
 500 1150 l 1
 750 1150 l 1
 750 150 l 1
 500 150 l 1
 500 650 l 1
 0 650 l 1
 0 900 l 1
 250 900 l 1
EndSplineSet
EndChar

StartChar: uniE41B
Encoding: 58395 58395 589
Width: 1000
Flags: W
LayerCount: 2
Fore
SplineSet
500 900 m 1
 500 1400 l 1
 750 1400 l 1
 750 150 l 1
 500 150 l 1
 500 650 l 1
 0 650 l 1
 0 900 l 1
 500 900 l 1
EndSplineSet
EndChar

StartChar: uniE41C
Encoding: 58396 58396 590
Width: 1000
Flags: W
LayerCount: 2
Fore
SplineSet
500 900 m 1
 500 1150 l 1
 750 1150 l 1
 750 150 l 1
 500 150 l 1
 500 650 l 1
 0 650 l 1
 0 900 l 1
 500 900 l 1
0 -350 m 1
 0 150 l 1
 250 150 l 1
 250 -350 l 1
 0 -350 l 1
EndSplineSet
EndChar

StartChar: uniE41D
Encoding: 58397 58397 591
Width: 1000
Flags: W
LayerCount: 2
Fore
SplineSet
500 900 m 1
 500 1150 l 1
 750 1150 l 1
 750 150 l 1
 500 150 l 1
 500 -350 l 1
 250 -350 l 1
 250 150 l 1
 500 150 l 1
 500 650 l 1
 0 650 l 1
 0 900 l 1
 500 900 l 1
EndSplineSet
EndChar

StartChar: uniE41E
Encoding: 58398 58398 592
Width: 1000
Flags: W
LayerCount: 2
Fore
SplineSet
500 900 m 1
 500 1150 l 1
 750 1150 l 1
 750 -350 l 1
 500 -350 l 1
 500 650 l 1
 0 650 l 1
 0 900 l 1
 500 900 l 1
EndSplineSet
EndChar

StartChar: uniE421
Encoding: 58401 58401 593
Width: 1000
Flags: W
LayerCount: 2
Fore
SplineSet
0 650 m 1
 0 1400 l 1
 250 1400 l 1
 250 900 l 1
 750 900 l 1
 750 150 l 1
 500 150 l 1
 500 650 l 1
 0 650 l 1
0 -100 m 1
 0 150 l 1
 250 150 l 1
 250 -100 l 1
 0 -100 l 1
EndSplineSet
EndChar

StartChar: uniE422
Encoding: 58402 58402 594
Width: 1000
Flags: W
LayerCount: 2
Fore
SplineSet
250 900 m 1
 250 1400 l 1
 500 1400 l 1
 500 900 l 1
 750 900 l 1
 750 150 l 1
 500 150 l 1
 500 650 l 1
 0 650 l 1
 0 900 l 1
 250 900 l 1
0 -100 m 1
 0 150 l 1
 250 150 l 1
 250 -100 l 1
 0 -100 l 1
EndSplineSet
EndChar

StartChar: uniE423
Encoding: 58403 58403 595
Width: 1000
Flags: W
LayerCount: 2
Fore
SplineSet
500 900 m 1
 500 1400 l 1
 750 1400 l 1
 750 150 l 1
 500 150 l 1
 500 650 l 1
 0 650 l 1
 0 900 l 1
 500 900 l 1
0 -100 m 1
 0 150 l 1
 250 150 l 1
 250 -100 l 1
 0 -100 l 1
EndSplineSet
EndChar

StartChar: uniE424
Encoding: 58404 58404 596
Width: 1000
Flags: W
LayerCount: 2
Fore
SplineSet
0 650 m 1
 0 900 l 1
 750 900 l 1
 750 150 l 1
 500 150 l 1
 500 650 l 1
 0 650 l 1
0 -350 m 1
 0 150 l 1
 250 150 l 1
 250 -350 l 1
 0 -350 l 1
EndSplineSet
EndChar

StartChar: uniE425
Encoding: 58405 58405 597
Width: 1000
Flags: W
LayerCount: 2
Fore
SplineSet
0 650 m 1
 0 900 l 1
 750 900 l 1
 750 150 l 1
 500 150 l 1
 500 -350 l 1
 250 -350 l 1
 250 -100 l 1
 0 -100 l 1
 0 150 l 1
 500 150 l 1
 500 650 l 1
 0 650 l 1
EndSplineSet
EndChar

StartChar: uniE426
Encoding: 58406 58406 598
Width: 1000
Flags: W
LayerCount: 2
Fore
SplineSet
0 650 m 1
 0 900 l 1
 750 900 l 1
 750 -350 l 1
 500 -350 l 1
 500 650 l 1
 0 650 l 1
0 -100 m 1
 0 150 l 1
 250 150 l 1
 250 -100 l 1
 0 -100 l 1
EndSplineSet
EndChar

StartChar: uniE429
Encoding: 58409 58409 599
Width: 1000
Flags: W
LayerCount: 2
Fore
SplineSet
0 650 m 1
 0 1400 l 1
 250 1400 l 1
 250 900 l 1
 750 900 l 1
 750 150 l 1
 500 150 l 1
 500 -100 l 1
 250 -100 l 1
 250 150 l 1
 500 150 l 1
 500 650 l 1
 0 650 l 1
EndSplineSet
EndChar

StartChar: uniE42A
Encoding: 58410 58410 600
Width: 1000
Flags: W
LayerCount: 2
Fore
SplineSet
250 900 m 1
 250 1400 l 1
 500 1400 l 1
 500 900 l 1
 750 900 l 1
 750 150 l 1
 500 150 l 1
 500 -100 l 1
 250 -100 l 1
 250 150 l 1
 500 150 l 1
 500 650 l 1
 0 650 l 1
 0 900 l 1
 250 900 l 1
EndSplineSet
EndChar

StartChar: uniE42B
Encoding: 58411 58411 601
Width: 1000
Flags: W
LayerCount: 2
Fore
SplineSet
500 900 m 1
 500 1400 l 1
 750 1400 l 1
 750 150 l 1
 500 150 l 1
 500 -100 l 1
 250 -100 l 1
 250 150 l 1
 500 150 l 1
 500 650 l 1
 0 650 l 1
 0 900 l 1
 500 900 l 1
EndSplineSet
EndChar

StartChar: uniE42C
Encoding: 58412 58412 602
Width: 1000
Flags: W
LayerCount: 2
Fore
SplineSet
0 650 m 1
 0 900 l 1
 750 900 l 1
 750 150 l 1
 500 150 l 1
 500 -100 l 1
 250 -100 l 1
 250 -350 l 1
 0 -350 l 1
 0 150 l 1
 500 150 l 1
 500 650 l 1
 0 650 l 1
EndSplineSet
EndChar

StartChar: uniE42D
Encoding: 58413 58413 603
Width: 1000
Flags: W
LayerCount: 2
Fore
SplineSet
0 650 m 1
 0 900 l 1
 750 900 l 1
 750 150 l 1
 500 150 l 1
 500 -350 l 1
 250 -350 l 1
 250 150 l 1
 500 150 l 1
 500 650 l 1
 0 650 l 1
EndSplineSet
EndChar

StartChar: uniE42E
Encoding: 58414 58414 604
Width: 1000
Flags: W
LayerCount: 2
Fore
SplineSet
0 650 m 1
 0 900 l 1
 750 900 l 1
 750 -350 l 1
 500 -350 l 1
 500 -100 l 1
 250 -100 l 1
 250 150 l 1
 500 150 l 1
 500 650 l 1
 0 650 l 1
EndSplineSet
EndChar

StartChar: uniE431
Encoding: 58417 58417 605
Width: 1000
Flags: W
LayerCount: 2
Fore
SplineSet
0 650 m 1
 0 1400 l 1
 250 1400 l 1
 250 900 l 1
 750 900 l 1
 750 -100 l 1
 500 -100 l 1
 500 650 l 1
 0 650 l 1
EndSplineSet
EndChar

StartChar: uniE432
Encoding: 58418 58418 606
Width: 1000
Flags: W
LayerCount: 2
Fore
SplineSet
250 900 m 1
 250 1400 l 1
 500 1400 l 1
 500 900 l 1
 750 900 l 1
 750 -100 l 1
 500 -100 l 1
 500 650 l 1
 0 650 l 1
 0 900 l 1
 250 900 l 1
EndSplineSet
EndChar

StartChar: uniE433
Encoding: 58419 58419 607
Width: 1000
Flags: W
LayerCount: 2
Fore
SplineSet
500 900 m 1
 500 1400 l 1
 750 1400 l 1
 750 -100 l 1
 500 -100 l 1
 500 650 l 1
 0 650 l 1
 0 900 l 1
 500 900 l 1
EndSplineSet
EndChar

StartChar: uniE434
Encoding: 58420 58420 608
Width: 1000
Flags: W
LayerCount: 2
Fore
SplineSet
0 650 m 1
 0 900 l 1
 750 900 l 1
 750 -100 l 1
 500 -100 l 1
 500 650 l 1
 0 650 l 1
0 -350 m 1
 0 150 l 1
 250 150 l 1
 250 -350 l 1
 0 -350 l 1
EndSplineSet
EndChar

StartChar: uniE435
Encoding: 58421 58421 609
Width: 1000
Flags: W
LayerCount: 2
Fore
SplineSet
0 650 m 1
 0 900 l 1
 750 900 l 1
 750 -100 l 1
 500 -100 l 1
 500 -350 l 1
 250 -350 l 1
 250 150 l 1
 500 150 l 1
 500 650 l 1
 0 650 l 1
EndSplineSet
EndChar

StartChar: uniE436
Encoding: 58422 58422 610
Width: 1000
Flags: W
LayerCount: 2
Fore
SplineSet
0 650 m 1
 0 900 l 1
 750 900 l 1
 750 -350 l 1
 500 -350 l 1
 500 650 l 1
 0 650 l 1
EndSplineSet
EndChar

StartChar: uniE440
Encoding: 58432 58432 611
Width: 1000
Flags: W
LayerCount: 2
Fore
SplineSet
0 650 m 1
 0 900 l 1
 500 900 l 1
 500 650 l 1
 750 650 l 1
 750 150 l 1
 500 150 l 1
 500 650 l 1
 0 650 l 1
EndSplineSet
EndChar

StartChar: uniE441
Encoding: 58433 58433 612
Width: 1000
Flags: W
LayerCount: 2
Fore
SplineSet
0 650 m 1
 0 1150 l 1
 250 1150 l 1
 250 900 l 1
 500 900 l 1
 500 650 l 1
 750 650 l 1
 750 150 l 1
 500 150 l 1
 500 650 l 1
 0 650 l 1
EndSplineSet
EndChar

StartChar: uniE442
Encoding: 58434 58434 613
Width: 1000
Flags: W
LayerCount: 2
Fore
SplineSet
250 900 m 1
 250 1150 l 1
 500 1150 l 1
 500 650 l 1
 750 650 l 1
 750 150 l 1
 500 150 l 1
 500 650 l 1
 0 650 l 1
 0 900 l 1
 250 900 l 1
EndSplineSet
EndChar

StartChar: uniE443
Encoding: 58435 58435 614
Width: 1000
Flags: W
LayerCount: 2
Fore
SplineSet
500 900 m 1
 500 1150 l 1
 750 1150 l 1
 750 900 l 1
 500 900 l 1
 500 650 l 1
 750 650 l 1
 750 150 l 1
 500 150 l 1
 500 650 l 1
 0 650 l 1
 0 900 l 1
 500 900 l 1
EndSplineSet
EndChar

StartChar: uniE444
Encoding: 58436 58436 615
Width: 1000
Flags: W
LayerCount: 2
Fore
SplineSet
0 650 m 1
 0 900 l 1
 500 900 l 1
 500 650 l 1
 750 650 l 1
 750 150 l 1
 500 150 l 1
 500 650 l 1
 0 650 l 1
0 -100 m 1
 0 150 l 1
 250 150 l 1
 250 -100 l 1
 0 -100 l 1
EndSplineSet
EndChar

StartChar: uniE445
Encoding: 58437 58437 616
Width: 1000
Flags: W
LayerCount: 2
Fore
SplineSet
0 650 m 1
 0 900 l 1
 500 900 l 1
 500 650 l 1
 750 650 l 1
 750 150 l 1
 500 150 l 1
 500 -100 l 1
 250 -100 l 1
 250 150 l 1
 500 150 l 1
 500 650 l 1
 0 650 l 1
EndSplineSet
EndChar

StartChar: uniE446
Encoding: 58438 58438 617
Width: 1000
Flags: W
LayerCount: 2
Fore
SplineSet
0 650 m 1
 0 900 l 1
 500 900 l 1
 500 650 l 1
 750 650 l 1
 750 -100 l 1
 500 -100 l 1
 500 650 l 1
 0 650 l 1
EndSplineSet
EndChar

StartChar: uniE449
Encoding: 58441 58441 618
Width: 1000
Flags: W
LayerCount: 2
Fore
SplineSet
0 650 m 1
 0 1400 l 1
 250 1400 l 1
 250 900 l 1
 500 900 l 1
 500 650 l 1
 750 650 l 1
 750 150 l 1
 500 150 l 1
 500 650 l 1
 0 650 l 1
EndSplineSet
EndChar

StartChar: uniE44A
Encoding: 58442 58442 619
Width: 1000
Flags: W
LayerCount: 2
Fore
SplineSet
250 1150 m 1
 250 1400 l 1
 500 1400 l 1
 500 650 l 1
 750 650 l 1
 750 150 l 1
 500 150 l 1
 500 650 l 1
 0 650 l 1
 0 1150 l 1
 250 1150 l 1
EndSplineSet
EndChar

StartChar: uniE44B
Encoding: 58443 58443 620
Width: 1000
Flags: W
LayerCount: 2
Fore
SplineSet
500 900 m 1
 500 1400 l 1
 750 1400 l 1
 750 900 l 1
 500 900 l 1
 500 650 l 1
 750 650 l 1
 750 150 l 1
 500 150 l 1
 500 650 l 1
 0 650 l 1
 0 1150 l 1
 250 1150 l 1
 250 900 l 1
 500 900 l 1
EndSplineSet
EndChar

StartChar: uniE44C
Encoding: 58444 58444 621
Width: 1000
Flags: W
LayerCount: 2
Fore
SplineSet
0 650 m 1
 0 1150 l 1
 250 1150 l 1
 250 900 l 1
 500 900 l 1
 500 650 l 1
 750 650 l 1
 750 150 l 1
 500 150 l 1
 500 650 l 1
 0 650 l 1
0 -350 m 1
 0 150 l 1
 250 150 l 1
 250 -350 l 1
 0 -350 l 1
EndSplineSet
EndChar

StartChar: uniE44D
Encoding: 58445 58445 622
Width: 1000
Flags: W
LayerCount: 2
Fore
SplineSet
0 650 m 1
 0 1150 l 1
 250 1150 l 1
 250 900 l 1
 500 900 l 1
 500 650 l 1
 750 650 l 1
 750 150 l 1
 500 150 l 1
 500 -350 l 1
 250 -350 l 1
 250 150 l 1
 500 150 l 1
 500 650 l 1
 0 650 l 1
EndSplineSet
EndChar

StartChar: uniE44E
Encoding: 58446 58446 623
Width: 1000
Flags: W
LayerCount: 2
Fore
SplineSet
0 650 m 1
 0 1150 l 1
 250 1150 l 1
 250 900 l 1
 500 900 l 1
 500 650 l 1
 750 650 l 1
 750 -350 l 1
 500 -350 l 1
 500 650 l 1
 0 650 l 1
EndSplineSet
EndChar

StartChar: uniE451
Encoding: 58449 58449 624
Width: 1000
Flags: W
LayerCount: 2
Fore
SplineSet
0 650 m 1
 0 1400 l 1
 250 1400 l 1
 250 1150 l 1
 500 1150 l 1
 500 650 l 1
 750 650 l 1
 750 150 l 1
 500 150 l 1
 500 650 l 1
 0 650 l 1
EndSplineSet
EndChar

StartChar: uniE452
Encoding: 58450 58450 625
Width: 1000
Flags: W
LayerCount: 2
Fore
SplineSet
250 900 m 1
 250 1400 l 1
 500 1400 l 1
 500 650 l 1
 750 650 l 1
 750 150 l 1
 500 150 l 1
 500 650 l 1
 0 650 l 1
 0 900 l 1
 250 900 l 1
EndSplineSet
EndChar

StartChar: uniE453
Encoding: 58451 58451 626
Width: 1000
Flags: W
LayerCount: 2
Fore
SplineSet
500 1150 m 1
 500 1400 l 1
 750 1400 l 1
 750 900 l 1
 500 900 l 1
 500 650 l 1
 750 650 l 1
 750 150 l 1
 500 150 l 1
 500 650 l 1
 0 650 l 1
 0 900 l 1
 250 900 l 1
 250 1150 l 1
 500 1150 l 1
EndSplineSet
EndChar

StartChar: uniE454
Encoding: 58452 58452 627
Width: 1000
Flags: W
LayerCount: 2
Fore
SplineSet
250 900 m 1
 250 1150 l 1
 500 1150 l 1
 500 650 l 1
 750 650 l 1
 750 150 l 1
 500 150 l 1
 500 650 l 1
 0 650 l 1
 0 900 l 1
 250 900 l 1
0 -350 m 1
 0 150 l 1
 250 150 l 1
 250 -350 l 1
 0 -350 l 1
EndSplineSet
EndChar

StartChar: uniE455
Encoding: 58453 58453 628
Width: 1000
Flags: W
LayerCount: 2
Fore
SplineSet
250 900 m 1
 250 1150 l 1
 500 1150 l 1
 500 650 l 1
 750 650 l 1
 750 150 l 1
 500 150 l 1
 500 -350 l 1
 250 -350 l 1
 250 150 l 1
 500 150 l 1
 500 650 l 1
 0 650 l 1
 0 900 l 1
 250 900 l 1
EndSplineSet
EndChar

StartChar: uniE456
Encoding: 58454 58454 629
Width: 1000
Flags: W
LayerCount: 2
Fore
SplineSet
250 900 m 1
 250 1150 l 1
 500 1150 l 1
 500 650 l 1
 750 650 l 1
 750 -350 l 1
 500 -350 l 1
 500 650 l 1
 0 650 l 1
 0 900 l 1
 250 900 l 1
EndSplineSet
EndChar

StartChar: uniE459
Encoding: 58457 58457 630
Width: 1000
Flags: W
LayerCount: 2
Fore
SplineSet
0 650 m 1
 0 1400 l 1
 250 1400 l 1
 250 900 l 1
 500 900 l 1
 500 1150 l 1
 750 1150 l 1
 750 900 l 1
 500 900 l 1
 500 650 l 1
 750 650 l 1
 750 150 l 1
 500 150 l 1
 500 650 l 1
 0 650 l 1
EndSplineSet
EndChar

StartChar: uniE45A
Encoding: 58458 58458 631
Width: 1000
Flags: W
LayerCount: 2
Fore
SplineSet
250 900 m 1
 250 1400 l 1
 500 1400 l 1
 500 1150 l 1
 750 1150 l 1
 750 900 l 1
 500 900 l 1
 500 650 l 1
 750 650 l 1
 750 150 l 1
 500 150 l 1
 500 650 l 1
 0 650 l 1
 0 900 l 1
 250 900 l 1
EndSplineSet
EndChar

StartChar: uniE45B
Encoding: 58459 58459 632
Width: 1000
Flags: W
LayerCount: 2
Fore
SplineSet
500 900 m 1
 500 1400 l 1
 750 1400 l 1
 750 900 l 1
 500 900 l 1
 500 650 l 1
 750 650 l 1
 750 150 l 1
 500 150 l 1
 500 650 l 1
 0 650 l 1
 0 900 l 1
 500 900 l 1
EndSplineSet
EndChar

StartChar: uniE45C
Encoding: 58460 58460 633
Width: 1000
Flags: W
LayerCount: 2
Fore
SplineSet
500 900 m 1
 500 1150 l 1
 750 1150 l 1
 750 900 l 1
 500 900 l 1
 500 650 l 1
 750 650 l 1
 750 150 l 1
 500 150 l 1
 500 650 l 1
 0 650 l 1
 0 900 l 1
 500 900 l 1
0 -350 m 1
 0 150 l 1
 250 150 l 1
 250 -350 l 1
 0 -350 l 1
EndSplineSet
EndChar

StartChar: uniE45D
Encoding: 58461 58461 634
Width: 1000
Flags: W
LayerCount: 2
Fore
SplineSet
500 900 m 1
 500 1150 l 1
 750 1150 l 1
 750 900 l 1
 500 900 l 1
 500 650 l 1
 750 650 l 1
 750 150 l 1
 500 150 l 1
 500 -350 l 1
 250 -350 l 1
 250 150 l 1
 500 150 l 1
 500 650 l 1
 0 650 l 1
 0 900 l 1
 500 900 l 1
EndSplineSet
EndChar

StartChar: uniE45E
Encoding: 58462 58462 635
Width: 1000
Flags: W
LayerCount: 2
Fore
SplineSet
500 900 m 1
 500 1150 l 1
 750 1150 l 1
 750 900 l 1
 500 900 l 1
 500 650 l 1
 750 650 l 1
 750 -350 l 1
 500 -350 l 1
 500 650 l 1
 0 650 l 1
 0 900 l 1
 500 900 l 1
EndSplineSet
EndChar

StartChar: uniE461
Encoding: 58465 58465 636
Width: 1000
Flags: W
LayerCount: 2
Fore
SplineSet
0 650 m 1
 0 1400 l 1
 250 1400 l 1
 250 900 l 1
 500 900 l 1
 500 650 l 1
 750 650 l 1
 750 150 l 1
 500 150 l 1
 500 650 l 1
 0 650 l 1
0 -100 m 1
 0 150 l 1
 250 150 l 1
 250 -100 l 1
 0 -100 l 1
EndSplineSet
EndChar

StartChar: uniE462
Encoding: 58466 58466 637
Width: 1000
Flags: W
LayerCount: 2
Fore
SplineSet
250 900 m 1
 250 1400 l 1
 500 1400 l 1
 500 650 l 1
 750 650 l 1
 750 150 l 1
 500 150 l 1
 500 650 l 1
 0 650 l 1
 0 900 l 1
 250 900 l 1
0 -100 m 1
 0 150 l 1
 250 150 l 1
 250 -100 l 1
 0 -100 l 1
EndSplineSet
EndChar

StartChar: uniE463
Encoding: 58467 58467 638
Width: 1000
Flags: W
LayerCount: 2
Fore
SplineSet
500 900 m 1
 500 1400 l 1
 750 1400 l 1
 750 900 l 1
 500 900 l 1
 500 650 l 1
 750 650 l 1
 750 150 l 1
 500 150 l 1
 500 650 l 1
 0 650 l 1
 0 900 l 1
 500 900 l 1
0 -100 m 1
 0 150 l 1
 250 150 l 1
 250 -100 l 1
 0 -100 l 1
EndSplineSet
EndChar

StartChar: uniE464
Encoding: 58468 58468 639
Width: 1000
Flags: W
LayerCount: 2
Fore
SplineSet
0 650 m 1
 0 900 l 1
 500 900 l 1
 500 650 l 1
 750 650 l 1
 750 150 l 1
 500 150 l 1
 500 650 l 1
 0 650 l 1
0 -350 m 1
 0 150 l 1
 250 150 l 1
 250 -350 l 1
 0 -350 l 1
EndSplineSet
EndChar

StartChar: uniE465
Encoding: 58469 58469 640
Width: 1000
Flags: W
LayerCount: 2
Fore
SplineSet
0 650 m 1
 0 900 l 1
 500 900 l 1
 500 650 l 1
 750 650 l 1
 750 150 l 1
 500 150 l 1
 500 -350 l 1
 250 -350 l 1
 250 -100 l 1
 0 -100 l 1
 0 150 l 1
 500 150 l 1
 500 650 l 1
 0 650 l 1
EndSplineSet
EndChar

StartChar: uniE466
Encoding: 58470 58470 641
Width: 1000
Flags: W
LayerCount: 2
Fore
SplineSet
0 650 m 1
 0 900 l 1
 500 900 l 1
 500 650 l 1
 750 650 l 1
 750 -350 l 1
 500 -350 l 1
 500 650 l 1
 0 650 l 1
0 -100 m 1
 0 150 l 1
 250 150 l 1
 250 -100 l 1
 0 -100 l 1
EndSplineSet
EndChar

StartChar: uniE469
Encoding: 58473 58473 642
Width: 1000
Flags: W
LayerCount: 2
Fore
SplineSet
0 650 m 1
 0 1400 l 1
 250 1400 l 1
 250 900 l 1
 500 900 l 1
 500 650 l 1
 750 650 l 1
 750 150 l 1
 500 150 l 1
 500 -100 l 1
 250 -100 l 1
 250 150 l 1
 500 150 l 1
 500 650 l 1
 0 650 l 1
EndSplineSet
EndChar

StartChar: uniE46A
Encoding: 58474 58474 643
Width: 1000
Flags: W
LayerCount: 2
Fore
SplineSet
250 900 m 1
 250 1400 l 1
 500 1400 l 1
 500 650 l 1
 750 650 l 1
 750 150 l 1
 500 150 l 1
 500 -100 l 1
 250 -100 l 1
 250 150 l 1
 500 150 l 1
 500 650 l 1
 0 650 l 1
 0 900 l 1
 250 900 l 1
EndSplineSet
EndChar

StartChar: uniE46B
Encoding: 58475 58475 644
Width: 1000
Flags: W
LayerCount: 2
Fore
SplineSet
500 900 m 1
 500 1400 l 1
 750 1400 l 1
 750 900 l 1
 500 900 l 1
 500 650 l 1
 750 650 l 1
 750 150 l 1
 500 150 l 1
 500 -100 l 1
 250 -100 l 1
 250 150 l 1
 500 150 l 1
 500 650 l 1
 0 650 l 1
 0 900 l 1
 500 900 l 1
EndSplineSet
EndChar

StartChar: uniE46C
Encoding: 58476 58476 645
Width: 1000
Flags: W
LayerCount: 2
Fore
SplineSet
0 650 m 1
 0 900 l 1
 500 900 l 1
 500 650 l 1
 750 650 l 1
 750 150 l 1
 500 150 l 1
 500 -100 l 1
 250 -100 l 1
 250 -350 l 1
 0 -350 l 1
 0 150 l 1
 500 150 l 1
 500 650 l 1
 0 650 l 1
EndSplineSet
EndChar

StartChar: uniE46D
Encoding: 58477 58477 646
Width: 1000
Flags: W
LayerCount: 2
Fore
SplineSet
0 650 m 1
 0 900 l 1
 500 900 l 1
 500 650 l 1
 750 650 l 1
 750 150 l 1
 500 150 l 1
 500 -350 l 1
 250 -350 l 1
 250 150 l 1
 500 150 l 1
 500 650 l 1
 0 650 l 1
EndSplineSet
EndChar

StartChar: uniE46E
Encoding: 58478 58478 647
Width: 1000
Flags: W
LayerCount: 2
Fore
SplineSet
0 650 m 1
 0 900 l 1
 500 900 l 1
 500 650 l 1
 750 650 l 1
 750 -350 l 1
 500 -350 l 1
 500 -100 l 1
 250 -100 l 1
 250 150 l 1
 500 150 l 1
 500 650 l 1
 0 650 l 1
EndSplineSet
EndChar

StartChar: uniE471
Encoding: 58481 58481 648
Width: 1000
Flags: W
LayerCount: 2
Fore
SplineSet
0 650 m 1
 0 1400 l 1
 250 1400 l 1
 250 900 l 1
 500 900 l 1
 500 650 l 1
 750 650 l 1
 750 -100 l 1
 500 -100 l 1
 500 650 l 1
 0 650 l 1
EndSplineSet
EndChar

StartChar: uniE472
Encoding: 58482 58482 649
Width: 1000
Flags: W
LayerCount: 2
Fore
SplineSet
250 900 m 1
 250 1400 l 1
 500 1400 l 1
 500 650 l 1
 750 650 l 1
 750 -100 l 1
 500 -100 l 1
 500 650 l 1
 0 650 l 1
 0 900 l 1
 250 900 l 1
EndSplineSet
EndChar

StartChar: uniE473
Encoding: 58483 58483 650
Width: 1000
Flags: W
LayerCount: 2
Fore
SplineSet
500 900 m 1
 500 1400 l 1
 750 1400 l 1
 750 900 l 1
 500 900 l 1
 500 650 l 1
 750 650 l 1
 750 -100 l 1
 500 -100 l 1
 500 650 l 1
 0 650 l 1
 0 900 l 1
 500 900 l 1
EndSplineSet
EndChar

StartChar: uniE474
Encoding: 58484 58484 651
Width: 1000
Flags: W
LayerCount: 2
Fore
SplineSet
0 650 m 1
 0 900 l 1
 500 900 l 1
 500 650 l 1
 750 650 l 1
 750 -100 l 1
 500 -100 l 1
 500 650 l 1
 0 650 l 1
0 -350 m 1
 0 150 l 1
 250 150 l 1
 250 -350 l 1
 0 -350 l 1
EndSplineSet
EndChar

StartChar: uniE475
Encoding: 58485 58485 652
Width: 1000
Flags: W
LayerCount: 2
Fore
SplineSet
0 650 m 1
 0 900 l 1
 500 900 l 1
 500 650 l 1
 750 650 l 1
 750 -100 l 1
 500 -100 l 1
 500 -350 l 1
 250 -350 l 1
 250 150 l 1
 500 150 l 1
 500 650 l 1
 0 650 l 1
EndSplineSet
EndChar

StartChar: uniE476
Encoding: 58486 58486 653
Width: 1000
Flags: W
LayerCount: 2
Fore
SplineSet
0 650 m 1
 0 900 l 1
 500 900 l 1
 500 650 l 1
 750 650 l 1
 750 -350 l 1
 500 -350 l 1
 500 650 l 1
 0 650 l 1
EndSplineSet
EndChar

StartChar: uniE480
Encoding: 58496 58496 654
Width: 1000
Flags: W
LayerCount: 2
Fore
SplineSet
0 650 m 1
 0 900 l 1
 750 900 l 1
 750 150 l 1
 500 150 l 1
 500 400 l 1
 250 400 l 1
 250 650 l 1
 0 650 l 1
EndSplineSet
EndChar

StartChar: uniE481
Encoding: 58497 58497 655
Width: 1000
Flags: W
LayerCount: 2
Fore
SplineSet
0 650 m 1
 0 1150 l 1
 250 1150 l 1
 250 900 l 1
 750 900 l 1
 750 150 l 1
 500 150 l 1
 500 400 l 1
 250 400 l 1
 250 650 l 1
 0 650 l 1
EndSplineSet
EndChar

StartChar: uniE482
Encoding: 58498 58498 656
Width: 1000
Flags: W
LayerCount: 2
Fore
SplineSet
250 900 m 1
 250 1150 l 1
 500 1150 l 1
 500 900 l 1
 750 900 l 1
 750 150 l 1
 500 150 l 1
 500 400 l 1
 250 400 l 1
 250 650 l 1
 0 650 l 1
 0 900 l 1
 250 900 l 1
EndSplineSet
EndChar

StartChar: uniE483
Encoding: 58499 58499 657
Width: 1000
Flags: W
LayerCount: 2
Fore
SplineSet
500 900 m 1
 500 1150 l 1
 750 1150 l 1
 750 150 l 1
 500 150 l 1
 500 400 l 1
 250 400 l 1
 250 650 l 1
 0 650 l 1
 0 900 l 1
 500 900 l 1
EndSplineSet
EndChar

StartChar: uniE484
Encoding: 58500 58500 658
Width: 1000
Flags: W
LayerCount: 2
Fore
SplineSet
0 650 m 1
 0 900 l 1
 750 900 l 1
 750 150 l 1
 500 150 l 1
 500 400 l 1
 250 400 l 1
 250 650 l 1
 0 650 l 1
0 -100 m 1
 0 150 l 1
 250 150 l 1
 250 -100 l 1
 0 -100 l 1
EndSplineSet
EndChar

StartChar: uniE485
Encoding: 58501 58501 659
Width: 1000
Flags: W
LayerCount: 2
Fore
SplineSet
0 650 m 1
 0 900 l 1
 750 900 l 1
 750 150 l 1
 500 150 l 1
 500 -100 l 1
 250 -100 l 1
 250 150 l 1
 500 150 l 1
 500 400 l 1
 250 400 l 1
 250 650 l 1
 0 650 l 1
EndSplineSet
EndChar

StartChar: uniE486
Encoding: 58502 58502 660
Width: 1000
Flags: W
LayerCount: 2
Fore
SplineSet
0 650 m 1
 0 900 l 1
 750 900 l 1
 750 -100 l 1
 500 -100 l 1
 500 400 l 1
 250 400 l 1
 250 650 l 1
 0 650 l 1
EndSplineSet
EndChar

StartChar: uniE489
Encoding: 58505 58505 661
Width: 1000
Flags: W
LayerCount: 2
Fore
SplineSet
0 650 m 1
 0 1400 l 1
 250 1400 l 1
 250 900 l 1
 750 900 l 1
 750 150 l 1
 500 150 l 1
 500 400 l 1
 250 400 l 1
 250 650 l 1
 0 650 l 1
EndSplineSet
EndChar

StartChar: uniE48A
Encoding: 58506 58506 662
Width: 1000
Flags: W
LayerCount: 2
Fore
SplineSet
250 1150 m 1
 250 1400 l 1
 500 1400 l 1
 500 900 l 1
 750 900 l 1
 750 150 l 1
 500 150 l 1
 500 400 l 1
 250 400 l 1
 250 650 l 1
 0 650 l 1
 0 1150 l 1
 250 1150 l 1
EndSplineSet
EndChar

StartChar: uniE48B
Encoding: 58507 58507 663
Width: 1000
Flags: W
LayerCount: 2
Fore
SplineSet
500 900 m 1
 500 1400 l 1
 750 1400 l 1
 750 150 l 1
 500 150 l 1
 500 400 l 1
 250 400 l 1
 250 650 l 1
 0 650 l 1
 0 1150 l 1
 250 1150 l 1
 250 900 l 1
 500 900 l 1
EndSplineSet
EndChar

